<?xml version="1.0" encoding="utf-8" standalone="no"?><!DOCTYPE svg PUBLIC "-//W3C//DTD SVG 1.1//EN" "http://www.w3.org/Graphics/SVG/1.1/DTD/svg11.dtd">
<svg preserveAspectRatio="xMinYMin meet" width="100%" height="100%" viewBox="0 0 1920.000 975.000"  version="1.1" xmlns="http://www.w3.org/2000/svg" xmlns:xlink="http://www.w3.org/1999/xlink">
  <desc>Matlab Figure Converted by PLOT2SVG written by Juerg Schwizer</desc>
  <g id="topgroup">
  <rect x="0" y="0" width="1920.000" height="975.000" fill="#ffffff" stroke="none" />
  <g id ="ID000000">
  <clipPath id="ID000001">
    <rect x="249.600" y="73.125" width="1488.000" height="332.634"/>
  </clipPath>
      <polygon fill="#ffffff" fill-opacity="1.00" stroke="none" stroke-width="0.5pt" stroke-opacity="1.00" stroke-dasharray="none" points="249.600,405.759 1737.600,405.759 1737.600,73.125 249.600,73.125 "/>
      <polygon fill="#ffffff" fill-opacity="1.00" stroke="none" stroke-width="0.5pt" stroke-opacity="1.00" stroke-dasharray="none" points="249.600,73.125 1737.600,73.125 1737.600,73.125 249.600,73.125 "/>
      <polygon fill="#ffffff" fill-opacity="1.00" stroke="none" stroke-width="0.5pt" stroke-opacity="1.00" stroke-dasharray="none" points="249.600,405.759 249.600,405.759 249.600,73.125 249.600,73.125 "/>
    <g>
<g id="ID000002" clip-path="url(#ID000001)" >
      <polyline fill="none" stroke="#0000ff" stroke-width="0.5pt" stroke-dasharray="none" points="249.600,97.779 263.777,293.295 277.954,344.044 292.131,384.920 306.308,314.816 320.485,279.485 334.663,346.195 348.840,300.015 363.017,351.150 377.194,344.086 391.371,390.067 405.548,305.316 419.725,359.309 433.902,365.134 448.079,364.209 462.256,360.655 476.433,360.009 490.610,300.960 504.788,359.510 518.965,348.735 533.142,388.414 547.319,328.148 561.496,347.222 575.673,265.334 589.850,318.240 604.027,358.601 618.204,371.604 632.381,336.187 646.558,369.862 660.736,364.095 674.913,377.914 689.090,371.431 703.267,370.370 717.444,359.092 731.621,384.814 745.798,379.437 759.975,369.367 774.152,327.136 788.329,373.205 802.506,373.086 816.683,384.845 830.861,398.604 845.038,391.313 859.215,393.944 873.392,392.044 887.569,396.822 901.746,400.690 915.923,394.730 930.100,397.053 944.277,402.153 958.454,396.281 972.631,403.661 986.808,403.430 1000.986,402.019 1015.163,400.395 1029.340,395.835 1043.517,395.686 1057.694,398.246 1071.871,396.581 1086.048,401.288 1100.225,389.087 1114.402,386.535 1128.579,391.382 1142.756,392.119 1156.934,403.248 1171.111,400.645 1185.288,402.107 1199.465,397.923 1213.642,404.822 1227.819,401.722 1241.996,400.702 1256.173,401.812 1270.350,401.954 1284.527,401.144 1298.704,402.048 1312.881,404.886 1327.059,401.369 1341.236,403.622 1355.413,401.701 1369.590,401.383 1383.767,402.642 1397.944,401.683 1412.121,401.355 1426.298,402.278 1440.475,402.122 1454.652,403.527 1468.829,403.711 1483.007,404.479 1497.184,404.040 1511.361,403.673 1525.538,404.608 1539.715,402.635 1553.892,404.802 1568.069,401.179 1582.246,403.746 1596.423,400.577 1610.600,403.045 1624.777,397.140 1638.954,399.035 1653.132,397.994 1667.309,393.160 1681.486,401.163 1695.663,393.120 1709.840,393.561 1724.017,402.446 1738.194,404.740 1752.371,402.908 1766.548,404.143 1780.725,403.146 1794.902,402.908 1809.079,401.526 1823.257,404.088 1837.434,404.357 1851.611,404.462 1865.788,404.568 1879.965,404.122 1894.142,403.347 1908.319,404.857 1922.496,404.517 1936.673,404.174 1950.850,402.773 1965.027,405.272 1979.205,403.664 1993.382,404.740 2007.559,404.624 2021.736,404.614 2035.913,404.597 2050.090,403.530 2064.267,404.325 2078.444,403.790 2092.621,404.676 2106.798,404.365 2120.975,404.527 2135.152,403.946 2149.330,403.129 2163.507,404.967 2177.684,404.128 2191.861,404.869 2206.038,404.131 2220.215,404.248 2234.392,405.461 2248.569,404.464 2262.746,404.718 2276.923,404.114 2291.100,404.883 2305.278,403.675 2319.455,404.939 2333.632,404.943 2347.809,405.422 2361.986,404.775 2376.163,404.956 2390.340,405.009 2404.517,405.026 2418.694,404.498 2432.871,404.955 2447.048,405.128 2461.225,404.107 2475.403,404.750 2489.580,405.263 2503.757,404.741 2517.934,404.826 2532.111,404.494 2546.288,404.741 2560.465,405.013 2574.642,405.091 2588.819,404.436 2602.996,405.288 2617.173,405.248 2631.350,404.395 2645.528,404.510 2659.705,404.348 2673.882,405.048 2688.059,404.929 2702.236,404.605 2716.413,405.520 2730.590,403.875 2744.767,404.502 2758.944,405.621 2773.121,405.370 2787.298,404.310 2801.476,404.516 2815.653,404.440 2829.830,404.932 2844.007,405.369 2858.184,404.707 2872.361,403.642 2886.538,404.391 2900.715,404.251 2914.892,405.096 2929.069,405.545 2943.246,405.316 2957.423,405.050 2971.601,404.404 2985.778,404.994 2999.955,405.051 3014.132,404.865 3028.309,405.010 3042.486,405.254 3056.663,404.653 3070.840,405.283 3085.017,405.138 3099.194,404.712 3113.371,404.941 3127.549,405.140 3141.726,405.500 3155.903,405.460 3170.080,405.420 3184.257,405.335 3198.434,405.235 3212.611,405.237 3226.788,404.915 3240.965,404.871 3255.142,405.196 3269.319,404.683 3283.496,405.260 3297.674,405.468 3311.851,404.767 3326.028,405.124 3340.205,405.294 3354.382,405.256 3368.559,405.321 3382.736,405.177 3396.913,405.664 3411.090,405.150 3425.267,404.408 3439.444,405.078 3453.621,405.479 3467.799,405.372 3481.976,405.162 3496.153,405.474 3510.330,405.396 3524.507,405.211 3538.684,404.773 3552.861,404.068 3567.038,405.468 3581.215,404.757 3595.392,403.921 3609.569,405.115 3623.747,405.338 3637.924,405.082 3652.101,404.903 3666.278,405.009 3680.455,405.022 3694.632,405.142 3708.809,405.216 3722.986,405.105 3737.163,404.767 3751.340,404.599 3765.517,405.427 3779.694,404.735 3793.872,404.909 3808.049,405.198 3822.226,404.853 3836.403,405.158 3850.580,405.383 3864.757,405.675 3878.934,405.487 3893.111,404.730 3907.288,404.531 3921.465,405.160 3935.642,404.973 3949.820,404.931 3963.997,405.224 3978.174,404.630 3992.351,405.442 4006.528,405.513 4020.705,404.945 4034.882,404.952 4049.059,405.281 4063.236,405.139 4077.413,405.211 4091.590,404.614 4105.767,405.330 4119.945,405.085 4134.122,404.736 4148.299,404.927 4162.476,405.556 4176.653,405.352 4190.830,405.417 4205.007,405.493 4219.184,405.331 4233.361,404.961 4247.538,404.886 4261.715,405.115 4275.893,405.265 4290.070,405.194 4304.247,404.948 4318.424,405.045 4332.601,405.338 4346.778,405.112 4360.955,405.009 4375.132,405.198 4389.309,405.198 4403.486,405.280 4417.663,405.483 4431.840,405.254 4446.018,405.210 4460.195,405.193 4474.372,405.129 4488.549,404.979 4502.726,405.224 4516.903,404.963 4531.080,405.607 4545.257,405.209 4559.434,405.391 4573.611,405.539 4587.788,405.152 4601.965,405.065 4616.143,405.547 4630.320,405.420 4644.497,404.851 4658.674,405.241 4672.851,405.330 4687.028,405.300 4701.205,405.603 4715.382,405.612 4729.559,405.174 4743.736,405.241 4757.913,405.235 4772.091,405.309 4786.268,405.440 4800.445,405.231 4814.622,405.295 4828.799,405.177 4842.976,404.999 4857.153,405.518 4871.330,405.543 4885.507,405.310 4899.684,405.267 4913.861,405.318 4928.038,405.518 4942.216,405.329 4956.393,405.378 4970.570,405.472 4984.747,405.251 4998.924,405.278 5013.101,405.620 5027.278,405.477 5041.455,405.248 5055.632,405.155 5069.809,405.386 5083.986,405.264 5098.164,405.266 5112.341,405.334 5126.518,405.493 5140.695,405.345 5154.872,404.938 5169.049,405.342 5183.226,405.279 5197.403,405.394 5211.580,405.413 5225.757,405.427 5239.934,405.320 5254.111,405.196 5268.289,405.602 5282.466,405.539 5296.643,405.533 5310.820,405.530 5324.997,405.264 5339.174,405.377 5353.351,405.489 5367.528,405.519 5381.705,405.466 5395.882,405.341 5410.059,405.193 5424.236,405.281 5438.414,405.383 5452.591,405.265 5466.768,405.343 5480.945,405.278 5495.122,405.265 5509.299,405.405 5523.476,405.305 5537.653,405.322 5551.830,405.715 5566.007,405.311 5580.184,405.304 5594.362,405.413 5608.539,405.324 5622.716,405.436 5636.893,405.355 5651.070,405.407 5665.247,405.482 5679.424,405.405 5693.601,405.388 5707.778,405.537 5721.955,405.518 5736.132,405.107 5750.309,405.442 5764.487,405.533 5778.664,405.302 5792.841,405.524 5807.018,405.482 5821.195,405.343 5835.372,405.503 5849.549,405.314 5863.726,405.578 5877.903,405.463 5892.080,405.509 5906.257,405.368 5920.435,405.388 5934.612,405.287 5948.789,405.500 5962.966,405.486 5977.143,405.470 5991.320,405.312 6005.497,405.410 6019.674,405.557 6033.851,405.639 6048.028,405.569 6062.205,405.429 6076.382,405.408 6090.560,405.424 6104.737,405.511 6118.914,405.472 6133.091,405.514 6147.268,405.570 6161.445,405.402 6175.622,405.453 6189.799,405.483 6203.976,405.315 6218.153,405.267 6232.330,405.434 6246.507,405.541 6260.685,405.398 6274.862,405.351 6289.039,405.505 6303.216,405.547 6317.393,405.561 6331.570,405.363 6345.747,405.461 6359.924,405.554 6374.101,405.469 6388.278,405.497 6402.455,405.496 6416.633,405.294 6430.810,405.412 6444.987,405.407 6459.164,405.469 6473.341,405.506 6487.518,405.499 6501.695,405.406 6515.872,405.586 6530.049,405.341 6544.226,405.354 6558.403,405.441 6572.580,405.405 6586.758,405.407 6600.935,405.315 6615.112,405.319 6629.289,405.377 6643.466,405.490 6657.643,405.376 6671.820,405.468 6685.997,405.348 6700.174,405.365 6714.351,405.550 6728.528,405.447 6742.706,405.502 6756.883,405.396 6771.060,405.238 6785.237,405.307 6799.414,405.437 6813.591,405.570 6827.768,405.508 6841.945,405.487 6856.122,405.393 6870.299,405.371 6884.476,405.445 6898.653,405.408 6912.831,405.448 6927.008,405.387 6941.185,405.442 6955.362,405.603 6969.539,405.464 6983.716,405.392 6997.893,405.496 7012.070,405.482 7026.247,405.466 7040.424,405.559 7054.601,405.563 7068.778,405.533 7082.956,405.413 7097.133,405.448 7111.310,405.569 7125.487,405.423 7139.664,405.511 7153.841,405.539 7168.018,405.378 7182.195,405.497 7196.372,405.483 7210.549,405.444 7224.726,405.410 7238.904,405.493 7253.081,405.461 7267.258,405.531 7281.435,405.537 7295.612,405.388 7309.789,405.429 7323.966,405.460 7338.143,405.440 7352.320,405.505 7366.497,405.530 7380.674,405.494 7394.851,405.562 7409.029,405.522 7423.206,405.557 7437.383,405.602 7451.560,405.426 7465.737,405.431 7479.914,405.500 7494.091,405.519 7508.268,405.511 7522.445,405.686 7536.622,405.458 7550.799,405.498 7564.977,405.481 7579.154,405.487 7593.331,405.643 7607.508,405.555 7621.685,405.525 7635.862,405.534 7650.039,405.688 7664.216,405.479 7678.393,405.558 7692.570,405.517 7706.747,405.397 7720.924,405.522 7735.102,405.457 7749.279,405.558 7763.456,405.580 7777.633,405.474 7791.810,405.419 7805.987,405.550 7820.164,405.568 7834.341,405.429 7848.518,405.487 7862.695,405.454 7876.872,405.447 7891.049,405.478 7905.227,405.459 7919.404,405.494 7933.581,405.520 7947.758,405.514 7961.935,405.688 7976.112,405.552 7990.289,405.486 8004.466,405.540 8018.643,405.522 8032.820,405.563 8046.997,405.476 8061.175,405.534 8075.352,405.484 8089.529,405.586 8103.706,405.476 8117.883,405.471 8132.060,405.511 8146.237,405.451 8160.414,405.537 8174.591,405.514 8188.768,405.478 8202.945,405.502 8217.122,405.446 8231.300,405.486 8245.477,405.532 8259.654,405.516 8273.831,405.477 8288.008,405.595 8302.185,405.551 8316.362,405.460 8330.539,405.445 8344.716,405.589 8358.893,405.452 8373.070,405.512 8387.248,405.478 8401.425,405.554 8415.602,405.517 8429.779,405.590 8443.956,405.537 8458.133,405.523 8472.310,405.583 8486.487,405.452 8500.664,405.618 8514.841,405.468 8529.018,405.501 8543.195,405.506 8557.373,405.460 8571.550,405.419 8585.727,405.509 8599.904,405.501 8614.081,405.557 8628.258,405.580 8642.435,405.452 8656.612,405.589 8670.789,405.529 8684.966,405.482 8699.143,405.573 8713.321,405.566 8727.498,405.568 8741.675,405.527 8755.852,405.577 8770.029,405.502 8784.206,405.518 8798.383,405.540 8812.560,405.461 8826.737,405.605 8840.914,405.419 8855.091,405.577 8869.268,405.571 8883.446,405.495 8897.623,405.469 8911.800,405.433 8925.977,405.498 8940.154,405.618 8954.331,405.440 8968.508,405.560 8982.685,405.616 8996.862,405.532 9011.039,405.583 9025.216,405.665 9039.393,405.613 9053.571,405.519 9067.748,405.535 9081.925,405.445 9096.102,405.526 9110.279,405.553 9124.456,405.570 9138.633,405.602 9152.810,405.571 9166.987,405.508 9181.164,405.647 9195.341,405.701 9209.519,405.487 9223.696,405.561 9237.873,405.492 9252.050,405.599 9266.227,405.615 9280.404,405.500 9294.581,405.479 9308.758,405.537 9322.935,405.429 9337.112,405.490 9351.289,405.684 9365.466,405.544 9379.644,405.577 9393.821,405.698 9407.998,405.569 9422.175,405.613 9436.352,405.584 9450.529,405.543 9464.706,405.598 9478.883,405.603 9493.060,405.456 9507.237,405.605 9521.414,405.572 9535.592,405.547 9549.769,405.576 9563.946,405.604 9578.123,405.535 9592.300,405.546 9606.477,405.535 9620.654,405.529 9634.831,405.624 9649.008,405.545 9663.185,405.547 9677.362,405.467 9691.539,405.591 9705.717,405.547 9719.894,405.652 9734.071,405.543 9748.248,405.457 9762.425,405.533 9776.602,405.479 9790.779,405.587 9804.956,405.614 9819.133,405.550 9833.310,405.553 9847.487,405.544 9861.664,405.586 9875.842,405.552 9890.019,405.595 9904.196,405.569 9918.373,405.539 9932.550,405.484 9946.727,405.587 9960.904,405.646 9975.081,405.569 9989.258,405.515 10003.435,405.584 10017.612,405.515 10031.790,405.545 10045.967,405.596 10060.144,405.503 10074.321,405.606 10088.498,405.544 10102.675,405.537 10116.852,405.524 10131.029,405.654 10145.206,405.542 10159.383,405.640 10173.560,405.564 10187.737,405.600 10201.915,405.650 10216.092,405.542 10230.269,405.532 10244.446,405.555 10258.623,405.637 10272.800,405.641 10286.977,405.578 10301.154,405.567 10315.331,405.533 10329.508,405.532 10343.685,405.541 10357.863,405.543 10372.040,405.507 10386.217,405.499 10400.394,405.564 10414.571,405.501 10428.748,405.571 10442.925,405.604 10457.102,405.623 10471.279,405.520 10485.456,405.677 10499.633,405.502 10513.810,405.604 10527.988,405.616 10542.165,405.596 10556.342,405.599 10570.519,405.526 10584.696,405.528 10598.873,405.566 10613.050,405.660 10627.227,405.594 10641.404,405.562 10655.581,405.645 10669.758,405.571 10683.935,405.603 10698.113,405.623 10712.290,405.547 10726.467,405.521 10740.644,405.569 10754.821,405.593 10768.998,405.614 10783.175,405.621 10797.352,405.545 10811.529,405.574 10825.706,405.634 10839.883,405.553 10854.061,405.606 10868.238,405.520 10882.415,405.549 10896.592,405.661 10910.769,405.530 10924.946,405.600 10939.123,405.534 10953.300,405.501 10967.477,405.592 10981.654,405.646 10995.831,405.535 11010.008,405.523 11024.186,405.594 11038.363,405.583 11052.540,405.547 11066.717,405.527 11080.894,405.543 11095.071,405.501 11109.248,405.487 11123.425,405.582 11137.602,405.589 11151.779,405.559 11165.956,405.572 11180.134,405.597 11194.311,405.592 11208.488,405.612 11222.665,405.608 11236.842,405.710 11251.019,405.599 11265.196,405.601 11279.373,405.532 11293.550,405.587 11307.727,405.586 11321.904,405.557 11336.081,405.586 11350.259,405.593 11364.436,405.560 11378.613,405.656 11392.790,405.559 11406.967,405.575 11421.144,405.536 11435.321,405.482 11449.498,405.555 11463.675,405.648 11477.852,405.559 11492.029,405.576 11506.206,405.572 11520.384,405.550 11534.561,405.565 11548.738,405.535 11562.915,405.617 11577.092,405.657 11591.269,405.572 11605.446,405.509 11619.623,405.618 11633.800,405.561 11647.977,405.573 11662.154,405.607 11676.332,405.570 11690.509,405.583 11704.686,405.601 11718.863,405.597 11733.040,405.686 11747.217,405.545 11761.394,405.525 11775.571,405.606 11789.748,405.618 11803.925,405.487 11818.102,405.601 11832.279,405.646 11846.457,405.541 11860.634,405.629 11874.811,405.624 11888.988,405.565 11903.165,405.609 11917.342,405.665 11931.519,405.656 11945.696,405.602 11959.873,405.583 11974.050,405.581 11988.227,405.637 12002.405,405.609 12016.582,405.613 12030.759,405.632 12044.936,405.588 12059.113,405.587 12073.290,405.612 12087.467,405.617 12101.644,405.561 12115.821,405.584 12129.998,405.576 12144.175,405.565 12158.352,405.638 12172.530,405.611 12186.707,405.561 12200.884,405.626 12215.061,405.620 12229.238,405.589 12243.415,405.559 12257.592,405.609 12271.769,405.693 12285.946,405.638 12300.123,405.590 12314.300,405.581 12328.478,405.583 12342.655,405.557 12356.832,405.658 12371.009,405.628 12385.186,405.527 12399.363,405.588 12413.540,405.554 12427.717,405.574 12441.894,405.603 12456.071,405.554 12470.248,405.625 12484.425,405.554 12498.603,405.581 12512.780,405.600 12526.957,405.607 12541.134,405.623 12555.311,405.573 12569.488,405.595 12583.665,405.535 12597.842,405.666 12612.019,405.634 12626.196,405.700 12640.373,405.585 12654.550,405.581 12668.728,405.621 12682.905,405.625 12697.082,405.521 12711.259,405.619 12725.436,405.605 12739.613,405.603 12753.790,405.591 12767.967,405.614 12782.144,405.531 12796.321,405.606 12810.498,405.564 12824.676,405.612 12838.853,405.602 12853.030,405.483 12867.207,405.588 12881.384,405.663 12895.561,405.605 12909.738,405.595 12923.915,405.585 12938.092,405.558 12952.269,405.651 12966.446,405.647 12980.623,405.627 12994.801,405.614 13008.978,405.517 13023.155,405.631 13037.332,405.567 13051.509,405.623 13065.686,405.615 13079.863,405.651 13094.040,405.579 13108.217,405.526 13122.394,405.580 13136.571,405.516 13150.749,405.729 13164.926,405.683 13179.103,405.539 13193.280,405.601 13207.457,405.645 13221.634,405.636 13235.811,405.672 13249.988,405.658 13264.165,405.548 13278.342,405.644 13292.519,405.591 13306.696,405.622 13320.874,405.644 13335.051,405.638 13349.228,405.486 13363.405,405.674 13377.582,405.656 13391.759,405.618 13405.936,405.653 13420.113,405.630 13434.290,405.583 13448.467,405.581 13462.644,405.615 13476.821,405.596 13490.999,405.634 13505.176,405.617 13519.353,405.620 13533.530,405.609 13547.707,405.609 13561.884,405.563 13576.061,405.679 13590.238,405.627 13604.415,405.626 13618.592,405.654 13632.769,405.694 13646.947,405.744 13661.124,405.608 13675.301,405.649 13689.478,405.667 13703.655,405.587 13717.832,405.595 13732.009,405.664 13746.186,405.570 13760.363,405.606 13774.540,405.596 13788.717,405.589 13802.894,405.549 13817.072,405.651 13831.249,405.555 13845.426,405.599 13859.603,405.682 13873.780,405.545 13887.957,405.657 13902.134,405.616 13916.311,405.674 13930.488,405.656 13944.665,405.556 13958.842,405.602 13973.020,405.673 13987.197,405.632 14001.374,405.615 14015.551,405.663 14029.728,405.559 14043.905,405.496 14058.082,405.642 14072.259,405.568 14086.436,405.603 14100.613,405.623 14114.790,405.546 14128.967,405.615 14143.145,405.538 14157.322,405.579 14171.499,405.669 14185.676,405.637 14199.853,405.585 14214.030,405.579 14228.207,405.658 14242.384,405.438 14256.561,405.664 14270.738,405.665 14284.915,405.582 14299.092,405.562 14313.270,405.576 14327.447,405.559 14341.624,405.624 14355.801,405.604 14369.978,405.614 14384.155,405.644 14398.332,405.614 14412.509,405.687 14426.686,405.689 14440.863,405.585 14455.040,405.548 14469.218,405.563 14483.395,405.505 14497.572,405.546 14511.749,405.583 14525.926,405.543 14540.103,405.583 14554.280,405.600 14568.457,405.564 14582.634,405.669 14596.811,405.592 14610.988,405.644 14625.165,405.666 14639.343,405.560 14653.520,405.568 14667.697,405.679 14681.874,405.648 14696.051,405.534 14710.228,405.550 14724.405,405.609 14738.582,405.644 14752.759,405.614 14766.936,405.507 14781.113,405.575 14795.291,405.637 14809.468,405.658 14823.645,405.580 14837.822,405.539 14851.999,405.651 14866.176,405.626 14880.353,405.574 14894.530,405.586 14908.707,405.612 14922.884,405.621 14937.061,405.545 14951.238,405.641 14965.416,405.602 14979.593,405.631 14993.770,405.598 15007.947,405.664 15022.124,405.608 15036.301,405.544 15050.478,405.636 15064.655,405.586 15078.832,405.573 15093.009,405.539 15107.186,405.510 15121.363,405.689 15135.541,405.518 15149.718,405.558 15163.895,405.634 15178.072,405.615 15192.249,405.607 15206.426,405.608 15220.603,405.650 15234.780,405.608 15248.957,405.663 15263.134,405.620 15277.311,405.629 15291.489,405.633 15305.666,405.507 15319.843,405.707 15334.020,405.617 15348.197,405.577 15362.374,405.745 15376.551,405.657 15390.728,405.703 15404.905,405.530 15419.082,405.611 15433.259,405.604 15447.436,405.694 15461.614,405.557 15475.791,405.594 15489.968,405.662 15504.145,405.620 15518.322,405.591 15532.499,405.571 15546.676,405.591 15560.853,405.633 15575.030,405.595 15589.207,405.649 15603.384,405.601 15617.562,405.726 15631.739,405.603 15645.916,405.662 15660.093,405.648 15674.270,405.549 15688.447,405.676 15702.624,405.620 15716.801,405.696 15730.978,405.675 15745.155,405.616 15759.332,405.633 15773.509,405.658 15787.687,405.683 15801.864,405.624 15816.041,405.705 15830.218,405.611 15844.395,405.648 15858.572,405.616 15872.749,405.566 15886.926,405.611 15901.103,405.641 15915.280,405.664 15929.457,405.631 15943.634,405.685 15957.812,405.670 15971.989,405.628 15986.166,405.625 16000.343,405.585 16014.520,405.665 16028.697,405.592 16042.874,405.714 16057.051,405.657 16071.228,405.576 16085.405,405.652 16099.582,405.631 16113.760,405.635 16127.937,405.647 16142.114,405.684 16156.291,405.659 16170.468,405.658 16184.645,405.632 16198.822,405.679 16212.999,405.696 16227.176,405.598 16241.353,405.568 16255.530,405.636 16269.707,405.701 16283.885,405.729 16298.062,405.701 16312.239,405.659 16326.416,405.671 16340.593,405.624 16354.770,405.668 16368.947,405.705 16383.124,405.636 16397.301,405.648 16411.478,405.610 16425.655,405.597 16439.833,405.639 16454.010,405.683 16468.187,405.645 16482.364,405.652 16496.541,405.630 16510.718,405.636 16524.895,405.655 16539.072,405.642 16553.249,405.607 16567.426,405.652 16581.603,405.710 16595.780,405.575 16609.958,405.624 16624.135,405.666 16638.312,405.658 16652.489,405.621 16666.666,405.630 16680.843,405.618 16695.020,405.640 16709.197,405.679 16723.374,405.633 16737.551,405.663 16751.728,405.617 16765.906,405.592 16780.083,405.636 16794.260,405.641 16808.437,405.692 16822.614,405.641 16836.791,405.605 16850.968,405.629 16865.145,405.604 16879.322,405.626 16893.499,405.612 16907.676,405.608 16921.853,405.581 16936.031,405.547 16950.208,405.684 16964.385,405.568 16978.562,405.604 16992.739,405.624 17006.916,405.622 17021.093,405.621 17035.270,405.636 17049.447,405.685 17063.624,405.614 17077.801,405.614 17091.978,405.589 17106.156,405.589 17120.333,405.682 17134.510,405.545 17148.687,405.599 17162.864,405.731 17177.041,405.607 17191.218,405.476 17205.395,405.650 17219.572,405.720 17233.749,405.614 17247.926,405.580 17262.104,405.645 17276.281,405.600 17290.458,405.570 17304.635,405.633 17318.812,405.650 17332.989,405.674 17347.166,405.637 17361.343,405.616 17375.520,405.704 17389.697,405.630 17403.874,405.602 17418.051,405.588 17432.229,405.660 17446.406,405.588 17460.583,405.686 17474.760,405.643 17488.937,405.625 17503.114,405.681 17517.291,405.651 17531.468,405.640 17545.645,405.599 17559.822,405.680 17573.999,405.681 17588.177,405.573 17602.354,405.564 17616.531,405.632 17630.708,405.677 17644.885,405.556 17659.062,405.540 17673.239,405.636 17687.416,405.597 17701.593,405.661 17715.770,405.537 17729.947,405.588 17744.124,405.669 "/>
<g>
</g>
</g>
<g id="ID000003" >
</g>
<g id="ID000004" >
</g>
<g id="ID000005" >
</g>
<g id="ID000006" >
</g>
<g id="ID000007" >
</g>
<g id="ID000008" clip-path="url(#ID000001)" >
<g id="ID000009" >
<rect x="281.576" y="305.156" width="69.958" height="35.885" fill="#ffffee" stroke="#cccccc" stroke-width="0.5pt" stroke-dasharray="none" />
  <g transform="translate(287.100,321.336)">
    <g transform="rotate(-0.0)">
      <text x="0.000" y="0.000" font-family="Helvetica" text-anchor="start" font-size="8pt" fill="#000000" >X: 0.04002</text>
    </g>
  </g>
  <g transform="translate(287.100,333.336)">
    <g transform="rotate(-0.0)">
      <text x="0.000" y="0.000" font-family="Helvetica" text-anchor="start" font-size="8pt" fill="#000000" >Y: 22.26</text>
    </g>
  </g>
</g>
<g id="ID000010" >
<g>
      <polygon fill="#000000" fill-opacity="1.00" stroke="#ffffdc" stroke-width="2.0pt" stroke-opacity="1.00" stroke-dasharray="none" points="271.288,337.378 271.288,350.711 284.621,350.711 284.621,337.378 271.288,337.378 "/>
</g>
</g>
</g><g id="ID000011" clip-path="url(#ID000001)" >
<g id="ID000012" >
<rect x="352.528" y="261.336" width="63.962" height="35.885" fill="#ffffee" stroke="#cccccc" stroke-width="0.5pt" stroke-dasharray="none" />
  <g transform="translate(358.100,277.385)">
    <g transform="rotate(-0.0)">
      <text x="0.000" y="0.000" font-family="Helvetica" text-anchor="start" font-size="8pt" fill="#000000" >X: 0.1401</text>
    </g>
  </g>
  <g transform="translate(358.100,289.385)">
    <g transform="rotate(-0.0)">
      <text x="0.000" y="0.000" font-family="Helvetica" text-anchor="start" font-size="8pt" fill="#000000" >Y: 38.15</text>
    </g>
  </g>
</g>
<g id="ID000013" >
<g>
      <polygon fill="#000000" fill-opacity="1.00" stroke="#ffffdc" stroke-width="2.0pt" stroke-opacity="1.00" stroke-dasharray="none" points="342.173,293.348 342.173,306.682 355.506,306.682 355.506,293.348 342.173,293.348 "/>
</g>
</g>
</g><g id="ID000014" clip-path="url(#ID000001)" >
<g id="ID000015" >
<rect x="255.593" y="240.421" width="57.966" height="35.885" fill="#ffffee" stroke="#cccccc" stroke-width="0.5pt" stroke-dasharray="none" />
  <g transform="translate(261.100,256.408)">
    <g transform="rotate(-0.0)">
      <text x="0.000" y="0.000" font-family="Helvetica" text-anchor="start" font-size="8pt" fill="#000000" >X: 0.1</text>
    </g>
  </g>
  <g transform="translate(261.100,268.408)">
    <g transform="rotate(-0.0)">
      <text x="0.000" y="0.000" font-family="Helvetica" text-anchor="start" font-size="8pt" fill="#000000" >Y: 45.55</text>
    </g>
  </g>
</g>
<g id="ID000016" >
<g>
      <polygon fill="#000000" fill-opacity="1.00" stroke="#ffffdc" stroke-width="2.0pt" stroke-opacity="1.00" stroke-dasharray="none" points="313.819,272.818 313.819,286.151 327.152,286.151 327.152,272.818 313.819,272.818 "/>
</g>
</g>
</g><g id="ID000017" clip-path="url(#ID000001)" >
<g id="ID000018" >
<rect x="408.491" y="311.131" width="63.962" height="35.885" fill="#ffffee" stroke="#cccccc" stroke-width="0.5pt" stroke-dasharray="none" />
  <g transform="translate(414.100,324.798)">
    <g transform="rotate(-0.0)">
      <text x="0.000" y="0.000" font-family="Helvetica" text-anchor="start" font-size="8pt" fill="#000000" >X: 0.2201</text>
    </g>
  </g>
  <g transform="translate(414.100,336.798)">
    <g transform="rotate(-0.0)">
      <text x="0.000" y="0.000" font-family="Helvetica" text-anchor="start" font-size="8pt" fill="#000000" >Y: 36.24</text>
    </g>
  </g>
</g>
<g id="ID000019" >
<g>
      <polygon fill="#000000" fill-opacity="1.00" stroke="#ffffdc" stroke-width="2.0pt" stroke-opacity="1.00" stroke-dasharray="none" points="398.881,298.650 398.881,311.983 412.215,311.983 412.215,298.650 398.881,298.650 "/>
</g>
</g>
</g><g id="ID000020" clip-path="url(#ID000001)" >
<g id="ID000021" >
<rect x="494.433" y="262.331" width="63.962" height="35.885" fill="#ffffee" stroke="#cccccc" stroke-width="0.5pt" stroke-dasharray="none" />
  <g transform="translate(500.100,278.384)">
    <g transform="rotate(-0.0)">
      <text x="0.000" y="0.000" font-family="Helvetica" text-anchor="start" font-size="8pt" fill="#000000" >X: 0.3401</text>
    </g>
  </g>
  <g transform="translate(500.100,290.384)">
    <g transform="rotate(-0.0)">
      <text x="0.000" y="0.000" font-family="Helvetica" text-anchor="start" font-size="8pt" fill="#000000" >Y: 37.81</text>
    </g>
  </g>
</g>
<g id="ID000022" >
<g>
      <polygon fill="#000000" fill-opacity="1.00" stroke="#ffffdc" stroke-width="2.0pt" stroke-opacity="1.00" stroke-dasharray="none" points="483.944,294.293 483.944,307.627 497.277,307.627 497.277,294.293 483.944,294.293 "/>
</g>
</g>
</g><g id="ID000023" clip-path="url(#ID000001)" >
<g id="ID000024" >
<rect x="579.376" y="226.479" width="63.962" height="35.885" fill="#ffffee" stroke="#cccccc" stroke-width="0.5pt" stroke-dasharray="none" />
  <g transform="translate(585.100,242.423)">
    <g transform="rotate(-0.0)">
      <text x="0.000" y="0.000" font-family="Helvetica" text-anchor="start" font-size="8pt" fill="#000000" >X: 0.4602</text>
    </g>
  </g>
  <g transform="translate(585.100,254.423)">
    <g transform="rotate(-0.0)">
      <text x="0.000" y="0.000" font-family="Helvetica" text-anchor="start" font-size="8pt" fill="#000000" >Y: 50.66</text>
    </g>
  </g>
</g>
<g id="ID000025" >
<g>
      <polygon fill="#000000" fill-opacity="1.00" stroke="#ffffdc" stroke-width="2.0pt" stroke-opacity="1.00" stroke-dasharray="none" points="569.006,258.667 569.006,272.001 582.340,272.001 582.340,258.667 569.006,258.667 "/>
</g>
</g>
</g><g id="ID000026" clip-path="url(#ID000001)" >
<g id="ID000027" >
<rect x="777.243" y="288.225" width="63.962" height="35.885" fill="#ffffee" stroke="#cccccc" stroke-width="0.5pt" stroke-dasharray="none" />
  <g transform="translate(783.100,304.355)">
    <g transform="rotate(-0.0)">
      <text x="0.000" y="0.000" font-family="Helvetica" text-anchor="start" font-size="8pt" fill="#000000" >X: 0.7403</text>
    </g>
  </g>
  <g transform="translate(783.100,316.355)">
    <g transform="rotate(-0.0)">
      <text x="0.000" y="0.000" font-family="Helvetica" text-anchor="start" font-size="8pt" fill="#000000" >Y: 28.36</text>
    </g>
  </g>
</g>
<g id="ID000028" >
<g>
      <polygon fill="#000000" fill-opacity="1.00" stroke="#ffffdc" stroke-width="2.0pt" stroke-opacity="1.00" stroke-dasharray="none" points="767.486,320.469 767.486,333.803 780.819,333.803 780.819,320.469 767.486,320.469 "/>
</g>
</g>
</g><g id="ID000029" clip-path="url(#ID000001)" >
<g id="ID000030" >
<rect x="1103.024" y="349.971" width="57.966" height="35.885" fill="#ffffee" stroke="#cccccc" stroke-width="0.5pt" stroke-dasharray="none" />
  <g transform="translate(1109.100,366.287)">
    <g transform="rotate(-0.0)">
      <text x="0.000" y="0.000" font-family="Helvetica" text-anchor="start" font-size="8pt" fill="#000000" >X: 1.2</text>
    </g>
  </g>
  <g transform="translate(1109.100,378.287)">
    <g transform="rotate(-0.0)">
      <text x="0.000" y="0.000" font-family="Helvetica" text-anchor="start" font-size="8pt" fill="#000000" >Y: 6.014</text>
    </g>
  </g>
</g>
<g id="ID000031" >
<g>
      <polygon fill="#000000" fill-opacity="1.00" stroke="#ffffdc" stroke-width="2.0pt" stroke-opacity="1.00" stroke-dasharray="none" points="1093.559,382.420 1093.559,395.754 1106.892,395.754 1106.892,382.420 1093.559,382.420 "/>
</g>
</g>
</g><g id="ID000032" clip-path="url(#ID000001)" >
<g id="ID000033" >
<rect x="1630.669" y="353.955" width="57.966" height="35.885" fill="#ffffee" stroke="#cccccc" stroke-width="0.5pt" stroke-dasharray="none" />
  <g transform="translate(1637.100,370.282)">
    <g transform="rotate(-0.0)">
      <text x="0.000" y="0.000" font-family="Helvetica" text-anchor="start" font-size="8pt" fill="#000000" >X: 2.041</text>
    </g>
  </g>
  <g transform="translate(1637.100,382.282)">
    <g transform="rotate(-0.0)">
      <text x="0.000" y="0.000" font-family="Helvetica" text-anchor="start" font-size="8pt" fill="#000000" >Y: 4.559</text>
    </g>
  </g>
</g>
<g id="ID000034" >
<g>
      <polygon fill="#000000" fill-opacity="1.00" stroke="#ffffdc" stroke-width="2.0pt" stroke-opacity="1.00" stroke-dasharray="none" points="1688.996,386.454 1688.996,399.787 1702.329,399.787 1702.329,386.454 1688.996,386.454 "/>
</g>
</g>
</g>    </g>
    <g>
      <polyline fill="none" stroke="#000000" stroke-width="0.5pt" stroke-dasharray="none" points="391.314,405.759 391.314,390.879 "/>
      <polyline fill="none" stroke="#000000" stroke-width="0.5pt" stroke-dasharray="none" points="533.029,405.759 533.029,390.879 "/>
      <polyline fill="none" stroke="#000000" stroke-width="0.5pt" stroke-dasharray="none" points="674.743,405.759 674.743,390.879 "/>
      <polyline fill="none" stroke="#000000" stroke-width="0.5pt" stroke-dasharray="none" points="816.457,405.759 816.457,390.879 "/>
      <polyline fill="none" stroke="#000000" stroke-width="0.5pt" stroke-dasharray="none" points="958.171,405.759 958.171,390.879 "/>
      <polyline fill="none" stroke="#000000" stroke-width="0.5pt" stroke-dasharray="none" points="1099.886,405.759 1099.886,390.879 "/>
      <polyline fill="none" stroke="#000000" stroke-width="0.5pt" stroke-dasharray="none" points="1241.600,405.759 1241.600,390.879 "/>
      <polyline fill="none" stroke="#000000" stroke-width="0.5pt" stroke-dasharray="none" points="1383.314,405.759 1383.314,390.879 "/>
      <polyline fill="none" stroke="#000000" stroke-width="0.5pt" stroke-dasharray="none" points="1525.029,405.759 1525.029,390.879 "/>
      <polyline fill="none" stroke="#000000" stroke-width="0.5pt" stroke-dasharray="none" points="1666.743,405.759 1666.743,390.879 "/>
      <polyline fill="none" stroke="#000000" stroke-width="0.5pt" stroke-dasharray="none" points="249.600,405.759 1737.600,405.759 "/>
      <polyline fill="none" stroke="#000000" stroke-width="0.5pt" stroke-dasharray="none" points="391.314,73.125 391.314,88.005 "/>
      <polyline fill="none" stroke="#000000" stroke-width="0.5pt" stroke-dasharray="none" points="533.029,73.125 533.029,88.005 "/>
      <polyline fill="none" stroke="#000000" stroke-width="0.5pt" stroke-dasharray="none" points="674.743,73.125 674.743,88.005 "/>
      <polyline fill="none" stroke="#000000" stroke-width="0.5pt" stroke-dasharray="none" points="816.457,73.125 816.457,88.005 "/>
      <polyline fill="none" stroke="#000000" stroke-width="0.5pt" stroke-dasharray="none" points="958.171,73.125 958.171,88.005 "/>
      <polyline fill="none" stroke="#000000" stroke-width="0.5pt" stroke-dasharray="none" points="1099.886,73.125 1099.886,88.005 "/>
      <polyline fill="none" stroke="#000000" stroke-width="0.5pt" stroke-dasharray="none" points="1241.600,73.125 1241.600,88.005 "/>
      <polyline fill="none" stroke="#000000" stroke-width="0.5pt" stroke-dasharray="none" points="1383.314,73.125 1383.314,88.005 "/>
      <polyline fill="none" stroke="#000000" stroke-width="0.5pt" stroke-dasharray="none" points="1525.029,73.125 1525.029,88.005 "/>
      <polyline fill="none" stroke="#000000" stroke-width="0.5pt" stroke-dasharray="none" points="1666.743,73.125 1666.743,88.005 "/>
      <polyline fill="none" stroke="#000000" stroke-width="0.5pt" stroke-dasharray="none" points="249.600,73.125 1737.600,73.125 "/>
  <g transform="translate(249.600,424.211)">
    <g transform="rotate(-0.0)">
      <text x="0.000" y="0.000" font-family="Helvetica" text-anchor="middle" font-size="10pt" fill="#000000" >0</text>
    </g>
  </g>
  <g transform="translate(391.314,424.211)">
    <g transform="rotate(-0.0)">
      <text x="0.000" y="0.000" font-family="Helvetica" text-anchor="middle" font-size="10pt" fill="#000000" >0.2</text>
    </g>
  </g>
  <g transform="translate(533.029,424.211)">
    <g transform="rotate(-0.0)">
      <text x="0.000" y="0.000" font-family="Helvetica" text-anchor="middle" font-size="10pt" fill="#000000" >0.4</text>
    </g>
  </g>
  <g transform="translate(674.743,424.211)">
    <g transform="rotate(-0.0)">
      <text x="0.000" y="0.000" font-family="Helvetica" text-anchor="middle" font-size="10pt" fill="#000000" >0.6</text>
    </g>
  </g>
  <g transform="translate(816.457,424.211)">
    <g transform="rotate(-0.0)">
      <text x="0.000" y="0.000" font-family="Helvetica" text-anchor="middle" font-size="10pt" fill="#000000" >0.8</text>
    </g>
  </g>
  <g transform="translate(958.171,424.211)">
    <g transform="rotate(-0.0)">
      <text x="0.000" y="0.000" font-family="Helvetica" text-anchor="middle" font-size="10pt" fill="#000000" >1</text>
    </g>
  </g>
  <g transform="translate(1099.886,424.211)">
    <g transform="rotate(-0.0)">
      <text x="0.000" y="0.000" font-family="Helvetica" text-anchor="middle" font-size="10pt" fill="#000000" >1.2</text>
    </g>
  </g>
  <g transform="translate(1241.600,424.211)">
    <g transform="rotate(-0.0)">
      <text x="0.000" y="0.000" font-family="Helvetica" text-anchor="middle" font-size="10pt" fill="#000000" >1.4</text>
    </g>
  </g>
  <g transform="translate(1383.314,424.211)">
    <g transform="rotate(-0.0)">
      <text x="0.000" y="0.000" font-family="Helvetica" text-anchor="middle" font-size="10pt" fill="#000000" >1.6</text>
    </g>
  </g>
  <g transform="translate(1525.029,424.211)">
    <g transform="rotate(-0.0)">
      <text x="0.000" y="0.000" font-family="Helvetica" text-anchor="middle" font-size="10pt" fill="#000000" >1.8</text>
    </g>
  </g>
  <g transform="translate(1666.743,424.211)">
    <g transform="rotate(-0.0)">
      <text x="0.000" y="0.000" font-family="Helvetica" text-anchor="middle" font-size="10pt" fill="#000000" >2</text>
    </g>
  </g>
      <polyline fill="none" stroke="#000000" stroke-width="0.5pt" stroke-dasharray="none" points="249.600,350.320 264.480,350.320 "/>
      <polyline fill="none" stroke="#000000" stroke-width="0.5pt" stroke-dasharray="none" points="249.600,294.881 264.480,294.881 "/>
      <polyline fill="none" stroke="#000000" stroke-width="0.5pt" stroke-dasharray="none" points="249.600,239.442 264.480,239.442 "/>
      <polyline fill="none" stroke="#000000" stroke-width="0.5pt" stroke-dasharray="none" points="249.600,184.003 264.480,184.003 "/>
      <polyline fill="none" stroke="#000000" stroke-width="0.5pt" stroke-dasharray="none" points="249.600,128.564 264.480,128.564 "/>
      <polyline fill="none" stroke="#000000" stroke-width="0.5pt" stroke-dasharray="none" points="249.600,405.759 249.600,73.125 "/>
      <polyline fill="none" stroke="#000000" stroke-width="0.5pt" stroke-dasharray="none" points="1737.600,350.320 1722.720,350.320 "/>
      <polyline fill="none" stroke="#000000" stroke-width="0.5pt" stroke-dasharray="none" points="1737.600,294.881 1722.720,294.881 "/>
      <polyline fill="none" stroke="#000000" stroke-width="0.5pt" stroke-dasharray="none" points="1737.600,239.442 1722.720,239.442 "/>
      <polyline fill="none" stroke="#000000" stroke-width="0.5pt" stroke-dasharray="none" points="1737.600,184.003 1722.720,184.003 "/>
      <polyline fill="none" stroke="#000000" stroke-width="0.5pt" stroke-dasharray="none" points="1737.600,128.564 1722.720,128.564 "/>
      <polyline fill="none" stroke="#000000" stroke-width="0.5pt" stroke-dasharray="none" points="1737.600,405.759 1737.600,73.125 "/>
  <g transform="translate(219.840,410.259)">
    <g transform="rotate(-0.0)">
      <text x="0.000" y="0.000" font-family="Helvetica" text-anchor="end" font-size="10pt" fill="#000000" >0</text>
    </g>
  </g>
  <g transform="translate(219.840,354.820)">
    <g transform="rotate(-0.0)">
      <text x="0.000" y="0.000" font-family="Helvetica" text-anchor="end" font-size="10pt" fill="#000000" >20</text>
    </g>
  </g>
  <g transform="translate(219.840,299.381)">
    <g transform="rotate(-0.0)">
      <text x="0.000" y="0.000" font-family="Helvetica" text-anchor="end" font-size="10pt" fill="#000000" >40</text>
    </g>
  </g>
  <g transform="translate(219.840,243.942)">
    <g transform="rotate(-0.0)">
      <text x="0.000" y="0.000" font-family="Helvetica" text-anchor="end" font-size="10pt" fill="#000000" >60</text>
    </g>
  </g>
  <g transform="translate(219.840,188.503)">
    <g transform="rotate(-0.0)">
      <text x="0.000" y="0.000" font-family="Helvetica" text-anchor="end" font-size="10pt" fill="#000000" >80</text>
    </g>
  </g>
  <g transform="translate(219.840,133.064)">
    <g transform="rotate(-0.0)">
      <text x="0.000" y="0.000" font-family="Helvetica" text-anchor="end" font-size="10pt" fill="#000000" >100</text>
    </g>
  </g>
  <g transform="translate(219.840,77.625)">
    <g transform="rotate(-0.0)">
      <text x="0.000" y="0.000" font-family="Helvetica" text-anchor="end" font-size="10pt" fill="#000000" >120</text>
    </g>
  </g>
      <polyline fill="none" stroke="#000000" stroke-width="0.5pt" stroke-dasharray="none" points="249.600,405.759 249.600,402.432 "/>
      <polyline fill="none" stroke="#000000" stroke-width="0.5pt" stroke-dasharray="none" points="249.600,405.759 249.600,402.432 "/>
      <polyline fill="none" stroke="#000000" stroke-width="0.5pt" stroke-dasharray="none" points="249.600,405.759 249.600,402.432 "/>
      <polyline fill="none" stroke="#000000" stroke-width="0.5pt" stroke-dasharray="none" points="249.600,405.759 249.600,402.432 "/>
      <polyline fill="none" stroke="#000000" stroke-width="0.5pt" stroke-dasharray="none" points="249.600,405.759 249.600,402.432 "/>
      <polyline fill="none" stroke="#000000" stroke-width="0.5pt" stroke-dasharray="none" points="249.600,405.759 249.600,405.759 "/>
    </g>
  </g>
  <g id ="ID000035">
  <clipPath id="ID000036">
    <rect x="1588.250" y="79.750" width="144.500" height="20.000"/>
  </clipPath>
      <polygon fill="#ffffff" fill-opacity="1.00" stroke="none" stroke-width="0.5pt" stroke-opacity="1.00" stroke-dasharray="none" points="1588.250,99.750 1732.750,99.750 1732.750,79.750 1588.250,79.750 "/>
      <polygon fill="#ffffff" fill-opacity="1.00" stroke="none" stroke-width="0.5pt" stroke-opacity="1.00" stroke-dasharray="none" points="1588.250,79.750 1732.750,79.750 1732.750,79.750 1588.250,79.750 "/>
      <polygon fill="#ffffff" fill-opacity="1.00" stroke="none" stroke-width="0.5pt" stroke-opacity="1.00" stroke-dasharray="none" points="1588.250,99.750 1588.250,99.750 1588.250,79.750 1588.250,79.750 "/>
    <g>
<g id="ID000037" >
  <g transform="translate(1637.579,95.750)">
    <g transform="rotate(-0.0)">
      <text x="0.000" y="0.000" font-family="Helvetica" text-anchor="start" font-size="10pt" fill="#000000" >VrpnposFreqdata</text>
    </g>
  </g>
</g>
<g id="ID000038" clip-path="url(#ID000036)" >
      <polyline fill="none" stroke="#0000ff" stroke-width="0.5pt" stroke-dasharray="none" points="1595.750,89.750 1633.250,89.750 "/>
<g>
</g>
</g>
<g id="ID000039" clip-path="url(#ID000036)" >
<g>
</g>
</g>
<g id="ID000040" >
</g>
<g id="ID000041" >
</g>
<g id="ID000042" >
</g>
    </g>
    <g>
      <polyline fill="none" stroke="#000000" stroke-width="0.5pt" stroke-dasharray="none" points="1588.250,99.750 1732.750,99.750 "/>
      <polyline fill="none" stroke="#000000" stroke-width="0.5pt" stroke-dasharray="none" points="1588.250,79.750 1732.750,79.750 "/>
      <polyline fill="none" stroke="#000000" stroke-width="0.5pt" stroke-dasharray="none" points="1588.250,99.750 1588.250,79.750 "/>
      <polyline fill="none" stroke="#000000" stroke-width="0.5pt" stroke-dasharray="none" points="1732.750,99.750 1732.750,79.750 "/>
      <polyline fill="none" stroke="#000000" stroke-width="0.5pt" stroke-dasharray="none" points="1588.250,99.750 1588.250,99.550 "/>
      <polyline fill="none" stroke="#000000" stroke-width="0.5pt" stroke-dasharray="none" points="1588.250,99.750 1588.250,99.750 "/>
    </g>
  </g>
  <g id ="ID000043">
  <clipPath id="ID000044">
    <rect x="249.600" y="535.116" width="1488.000" height="332.634"/>
  </clipPath>
      <polygon fill="#ffffff" fill-opacity="1.00" stroke="none" stroke-width="0.5pt" stroke-opacity="1.00" stroke-dasharray="none" points="249.600,867.750 1737.600,867.750 1737.600,535.116 249.600,535.116 "/>
      <polygon fill="#ffffff" fill-opacity="1.00" stroke="none" stroke-width="0.5pt" stroke-opacity="1.00" stroke-dasharray="none" points="249.600,535.116 1737.600,535.116 1737.600,535.116 249.600,535.116 "/>
      <polygon fill="#ffffff" fill-opacity="1.00" stroke="none" stroke-width="0.5pt" stroke-opacity="1.00" stroke-dasharray="none" points="249.600,867.750 249.600,867.750 249.600,535.116 249.600,535.116 "/>
    <g>
<g id="ID000045" clip-path="url(#ID000044)" >
      <polyline fill="none" stroke="#0000ff" stroke-width="0.5pt" stroke-dasharray="none" points="249.600,731.560 263.777,826.419 277.954,850.077 292.131,858.482 306.308,841.445 320.485,858.248 334.663,865.398 348.840,857.265 363.017,850.375 377.194,831.525 391.371,856.390 405.548,819.720 419.725,851.053 433.902,841.534 448.079,839.773 462.256,841.245 476.433,845.055 490.610,784.547 504.788,815.684 518.965,811.484 533.142,844.039 547.319,785.349 561.496,801.404 575.673,673.734 589.850,735.508 604.027,799.019 618.204,795.862 632.381,733.695 646.558,813.443 660.736,793.531 674.913,786.263 689.090,770.843 703.267,788.027 717.444,755.605 731.621,790.334 745.798,787.586 759.975,722.509 774.152,571.200 788.329,755.579 802.506,748.068 816.683,774.348 830.861,846.505 845.038,806.017 859.215,828.868 873.392,819.109 887.569,799.325 901.746,858.783 915.923,830.751 930.100,834.422 944.277,851.340 958.454,840.956 972.631,859.245 986.808,856.649 1000.986,856.694 1015.163,845.215 1029.340,813.630 1043.517,820.091 1057.694,823.241 1071.871,796.382 1086.048,844.171 1100.225,714.774 1114.402,682.667 1128.579,749.368 1142.756,747.304 1156.934,854.113 1171.111,829.942 1185.288,853.426 1199.465,813.213 1213.642,840.012 1227.819,830.780 1241.996,830.784 1256.173,839.511 1270.350,843.199 1284.527,835.959 1298.704,844.808 1312.881,841.324 1327.059,829.838 1341.236,851.677 1355.413,831.189 1369.590,834.334 1383.767,847.099 1397.944,834.162 1412.121,842.355 1426.298,828.715 1440.475,843.983 1454.652,852.981 1468.829,817.869 1483.007,848.394 1497.184,849.351 1511.361,849.649 1525.538,846.531 1539.715,839.414 1553.892,831.359 1568.069,785.717 1582.246,837.022 1596.423,795.433 1610.600,829.368 1624.777,717.036 1638.954,768.200 1653.132,728.054 1667.309,611.560 1681.486,739.567 1695.663,624.367 1709.840,598.323 1724.017,778.009 1738.194,848.406 1752.371,765.213 1766.548,861.005 1780.725,831.192 1794.902,847.335 1809.079,822.277 1823.257,847.663 1837.434,823.007 1851.611,832.660 1865.788,848.184 1879.965,840.489 1894.142,846.561 1908.319,846.947 1922.496,844.839 1936.673,858.804 1950.850,812.621 1965.027,842.430 1979.205,841.107 1993.382,830.314 2007.559,851.645 2021.736,846.875 2035.913,837.981 2050.090,827.590 2064.267,852.994 2078.444,829.613 2092.621,856.978 2106.798,847.056 2120.975,849.126 2135.152,853.300 2149.330,825.042 2163.507,862.603 2177.684,850.045 2191.861,862.173 2206.038,839.403 2220.215,855.103 2234.392,849.377 2248.569,833.916 2262.746,865.602 2276.923,829.866 2291.100,860.039 2305.278,844.717 2319.455,853.945 2333.632,861.232 2347.809,848.792 2361.986,845.315 2376.163,854.825 2390.340,854.627 2404.517,843.589 2418.694,865.871 2432.871,861.844 2447.048,852.169 2461.225,852.924 2475.403,852.761 2489.580,854.971 2503.757,856.220 2517.934,852.558 2532.111,856.066 2546.288,866.782 2560.465,863.918 2574.642,863.153 2588.819,863.429 2602.996,864.948 2617.173,867.027 2631.350,861.160 2645.528,857.490 2659.705,862.824 2673.882,865.524 2688.059,865.269 2702.236,856.592 2716.413,860.259 2730.590,854.156 2744.767,856.540 2758.944,862.909 2773.121,862.403 2787.298,860.882 2801.476,853.644 2815.653,855.705 2829.830,861.989 2844.007,853.139 2858.184,864.146 2872.361,844.058 2886.538,862.816 2900.715,863.058 2914.892,857.771 2929.069,864.049 2943.246,863.147 2957.423,863.089 2971.601,858.408 2985.778,862.212 2999.955,863.022 3014.132,862.831 3028.309,860.775 3042.486,863.256 3056.663,857.962 3070.840,862.475 3085.017,863.347 3099.194,863.617 3113.371,864.178 3127.549,862.917 3141.726,856.219 3155.903,866.091 3170.080,866.352 3184.257,864.614 3198.434,861.175 3212.611,856.677 3226.788,864.366 3240.965,862.756 3255.142,866.397 3269.319,859.784 3283.496,861.344 3297.674,864.516 3311.851,862.852 3326.028,864.240 3340.205,859.541 3354.382,861.588 3368.559,863.146 3382.736,864.848 3396.913,865.458 3411.090,865.268 3425.267,862.929 3439.444,860.825 3453.621,864.812 3467.799,859.284 3481.976,859.831 3496.153,864.678 3510.330,865.296 3524.507,863.990 3538.684,865.127 3552.861,864.558 3567.038,864.551 3581.215,863.460 3595.392,860.202 3609.569,860.199 3623.747,862.430 3637.924,865.244 3652.101,859.113 3666.278,865.770 3680.455,861.460 3694.632,863.994 3708.809,864.844 3722.986,859.817 3737.163,865.455 3751.340,866.017 3765.517,863.242 3779.694,866.605 3793.872,866.345 3808.049,862.328 3822.226,861.363 3836.403,864.090 3850.580,866.552 3864.757,862.524 3878.934,865.031 3893.111,861.305 3907.288,861.798 3921.465,865.003 3935.642,865.443 3949.820,865.095 3963.997,865.028 3978.174,864.518 3992.351,865.134 4006.528,866.420 4020.705,866.221 4034.882,862.699 4049.059,862.681 4063.236,865.590 4077.413,864.547 4091.590,859.296 4105.767,866.412 4119.945,867.385 4134.122,867.385 4148.299,862.375 4162.476,865.008 4176.653,866.144 4190.830,864.813 4205.007,864.675 4219.184,863.118 4233.361,862.566 4247.538,862.297 4261.715,862.067 4275.893,864.151 4290.070,865.198 4304.247,866.569 4318.424,863.884 4332.601,865.826 4346.778,865.078 4360.955,864.336 4375.132,863.302 4389.309,862.594 4403.486,866.509 4417.663,864.898 4431.840,866.139 4446.018,865.434 4460.195,867.180 4474.372,860.586 4488.549,860.838 4502.726,863.908 4516.903,858.152 4531.080,865.883 4545.257,861.810 4559.434,862.949 4573.611,866.950 4587.788,860.177 4601.965,863.149 4616.143,862.289 4630.320,866.384 4644.497,855.682 4658.674,861.594 4672.851,861.925 4687.028,866.513 4701.205,861.006 4715.382,862.589 4729.559,865.578 4743.736,865.501 4757.913,862.429 4772.091,863.573 4786.268,864.156 4800.445,862.464 4814.622,865.955 4828.799,865.718 4842.976,861.897 4857.153,866.113 4871.330,865.329 4885.507,863.759 4899.684,864.412 4913.861,862.955 4928.038,866.375 4942.216,865.479 4956.393,865.046 4970.570,867.331 4984.747,865.326 4998.924,865.075 5013.101,864.494 5027.278,866.405 5041.455,863.661 5055.632,863.222 5069.809,866.487 5083.986,866.619 5098.164,866.618 5112.341,865.281 5126.518,864.729 5140.695,866.476 5154.872,863.490 5169.049,864.094 5183.226,865.467 5197.403,863.000 5211.580,864.123 5225.757,865.995 5239.934,866.397 5254.111,862.461 5268.289,864.175 5282.466,864.558 5296.643,866.293 5310.820,864.961 5324.997,866.861 5339.174,864.944 5353.351,866.531 5367.528,866.556 5381.705,863.459 5395.882,865.833 5410.059,864.434 5424.236,864.459 5438.414,865.363 5452.591,863.857 5466.768,866.382 5480.945,866.182 5495.122,867.649 5509.299,864.593 5523.476,867.538 5537.653,865.299 5551.830,866.207 5566.007,865.690 5580.184,867.010 5594.362,863.738 5608.539,864.851 5622.716,865.545 5636.893,867.236 5651.070,866.302 5665.247,866.519 5679.424,867.095 5693.601,867.263 5707.778,865.181 5721.955,867.230 5736.132,863.897 5750.309,865.130 5764.487,866.378 5778.664,866.917 5792.841,865.260 5807.018,867.368 5821.195,865.089 5835.372,864.017 5849.549,863.956 5863.726,865.362 5877.903,866.019 5892.080,866.401 5906.257,866.052 5920.435,865.622 5934.612,865.144 5948.789,867.376 5962.966,866.868 5977.143,865.780 5991.320,864.174 6005.497,866.711 6019.674,866.838 6033.851,865.643 6048.028,866.225 6062.205,865.027 6076.382,866.553 6090.560,867.071 6104.737,866.837 6118.914,867.627 6133.091,865.565 6147.268,867.011 6161.445,866.338 6175.622,866.639 6189.799,867.416 6203.976,866.874 6218.153,866.581 6232.330,867.257 6246.507,866.470 6260.685,865.453 6274.862,865.659 6289.039,865.900 6303.216,866.329 6317.393,867.045 6331.570,866.171 6345.747,867.405 6359.924,865.544 6374.101,865.918 6388.278,866.312 6402.455,867.154 6416.633,867.111 6430.810,866.355 6444.987,866.331 6459.164,865.509 6473.341,865.007 6487.518,867.547 6501.695,866.192 6515.872,866.839 6530.049,866.436 6544.226,866.754 6558.403,865.357 6572.580,866.666 6586.758,866.904 6600.935,866.587 6615.112,866.617 6629.289,866.527 6643.466,867.019 6657.643,865.813 6671.820,866.009 6685.997,865.654 6700.174,867.047 6714.351,866.987 6728.528,864.542 6742.706,867.175 6756.883,866.710 6771.060,865.601 6785.237,865.456 6799.414,866.649 6813.591,866.515 6827.768,866.178 6841.945,866.175 6856.122,866.643 6870.299,866.270 6884.476,867.128 6898.653,866.216 6912.831,866.672 6927.008,867.068 6941.185,866.927 6955.362,866.011 6969.539,866.066 6983.716,866.078 6997.893,867.219 7012.070,866.459 7026.247,866.535 7040.424,866.516 7054.601,867.261 7068.778,867.407 7082.956,867.400 7097.133,866.399 7111.310,866.497 7125.487,867.178 7139.664,866.988 7153.841,866.684 7168.018,866.635 7182.195,867.251 7196.372,867.343 7210.549,867.134 7224.726,865.418 7238.904,867.043 7253.081,866.819 7267.258,866.127 7281.435,865.800 7295.612,866.997 7309.789,865.671 7323.966,866.515 7338.143,867.156 7352.320,867.006 7366.497,867.130 7380.674,867.681 7394.851,866.953 7409.029,867.391 7423.206,867.603 7437.383,867.531 7451.560,867.088 7465.737,867.037 7479.914,866.797 7494.091,866.217 7508.268,867.378 7522.445,866.340 7536.622,866.588 7550.799,865.929 7564.977,867.430 7579.154,866.056 7593.331,866.442 7607.508,866.682 7621.685,866.864 7635.862,866.866 7650.039,866.467 7664.216,866.245 7678.393,867.160 7692.570,866.768 7706.747,867.037 7720.924,867.523 7735.102,867.256 7749.279,867.037 7763.456,866.839 7777.633,866.521 7791.810,867.009 7805.987,867.613 7820.164,866.940 7834.341,867.516 7848.518,866.575 7862.695,867.203 7876.872,867.247 7891.049,866.858 7905.227,867.272 7919.404,867.352 7933.581,867.237 7947.758,867.192 7961.935,866.915 7976.112,867.250 7990.289,866.218 8004.466,867.062 8018.643,866.871 8032.820,866.573 8046.997,866.271 8061.175,866.551 8075.352,867.398 8089.529,866.948 8103.706,866.971 8117.883,866.947 8132.060,866.532 8146.237,867.231 8160.414,866.490 8174.591,866.865 8188.768,866.392 8202.945,866.889 8217.122,866.738 8231.300,866.832 8245.477,867.324 8259.654,867.553 8273.831,866.241 8288.008,867.171 8302.185,867.673 8316.362,867.296 8330.539,866.897 8344.716,866.701 8358.893,865.904 8373.070,866.510 8387.248,867.448 8401.425,865.966 8415.602,867.340 8429.779,867.111 8443.956,865.672 8458.133,866.251 8472.310,866.267 8486.487,866.915 8500.664,867.161 8514.841,867.478 8529.018,867.170 8543.195,867.209 8557.373,867.449 8571.550,867.295 8585.727,867.164 8599.904,867.191 8614.081,865.817 8628.258,866.818 8642.435,866.104 8656.612,866.377 8670.789,866.281 8684.966,866.679 8699.143,867.371 8713.321,866.684 8727.498,865.761 8741.675,867.218 8755.852,866.829 8770.029,866.900 8784.206,866.633 8798.383,866.267 8812.560,865.713 8826.737,867.413 8840.914,865.517 8855.091,867.334 8869.268,867.143 8883.446,866.720 8897.623,867.182 8911.800,866.339 8925.977,866.634 8940.154,866.839 8954.331,866.133 8968.508,866.776 8982.685,866.932 8996.862,867.123 9011.039,867.009 9025.216,867.428 9039.393,867.633 9053.571,866.264 9067.748,867.153 9081.925,867.045 9096.102,867.676 9110.279,867.352 9124.456,866.936 9138.633,866.712 9152.810,866.690 9166.987,867.361 9181.164,866.565 9195.341,867.098 9209.519,866.376 9223.696,867.083 9237.873,867.189 9252.050,866.708 9266.227,867.426 9280.404,866.557 9294.581,866.784 9308.758,867.355 9322.935,866.794 9337.112,866.754 9351.289,867.276 9365.466,866.862 9379.644,866.634 9393.821,867.072 9407.998,867.499 9422.175,867.378 9436.352,866.908 9450.529,866.640 9464.706,867.230 9478.883,866.876 9493.060,866.709 9507.237,867.324 9521.414,867.178 9535.592,867.331 9549.769,867.013 9563.946,867.138 9578.123,866.941 9592.300,866.626 9606.477,867.283 9620.654,866.760 9634.831,867.182 9649.008,867.622 9663.185,867.275 9677.362,866.770 9691.539,866.932 9705.717,867.603 9719.894,866.605 9734.071,866.169 9748.248,866.839 9762.425,866.541 9776.602,867.270 9790.779,867.045 9804.956,866.467 9819.133,866.927 9833.310,867.104 9847.487,867.248 9861.664,867.145 9875.842,866.773 9890.019,867.739 9904.196,867.068 9918.373,866.488 9932.550,865.972 9946.727,867.460 9960.904,867.162 9975.081,867.440 9989.258,866.997 10003.435,867.203 10017.612,867.323 10031.790,866.216 10045.967,867.236 10060.144,866.275 10074.321,867.660 10088.498,866.626 10102.675,867.401 10116.852,866.737 10131.029,866.775 10145.206,867.171 10159.383,866.957 10173.560,867.085 10187.737,867.494 10201.915,867.512 10216.092,867.065 10230.269,865.895 10244.446,867.152 10258.623,867.233 10272.800,866.831 10286.977,867.009 10301.154,866.809 10315.331,865.960 10329.508,867.251 10343.685,866.835 10357.863,867.434 10372.040,867.661 10386.217,866.245 10400.394,867.602 10414.571,867.007 10428.748,866.339 10442.925,867.113 10457.102,867.127 10471.279,867.162 10485.456,867.100 10499.633,866.831 10513.810,867.457 10527.988,866.979 10542.165,867.193 10556.342,867.135 10570.519,866.957 10584.696,866.305 10598.873,867.386 10613.050,866.949 10627.227,867.397 10641.404,867.551 10655.581,866.760 10669.758,866.890 10683.935,866.824 10698.113,867.510 10712.290,866.739 10726.467,866.422 10740.644,867.444 10754.821,867.458 10768.998,867.493 10783.175,867.077 10797.352,866.849 10811.529,867.027 10825.706,867.180 10839.883,867.585 10854.061,866.976 10868.238,867.203 10882.415,867.495 10896.592,866.948 10910.769,867.041 10924.946,867.286 10939.123,867.322 10953.300,867.479 10967.477,867.462 10981.654,867.628 10995.831,866.630 11010.008,867.178 11024.186,866.979 11038.363,867.389 11052.540,867.000 11066.717,866.711 11080.894,866.763 11095.071,867.124 11109.248,866.269 11123.425,867.179 11137.602,867.074 11151.779,866.822 11165.956,867.344 11180.134,867.324 11194.311,866.673 11208.488,867.176 11222.665,867.136 11236.842,866.898 11251.019,867.182 11265.196,867.466 11279.373,866.450 11293.550,866.718 11307.727,867.351 11321.904,866.808 11336.081,867.340 11350.259,867.585 11364.436,867.373 11378.613,866.956 11392.790,867.491 11406.967,867.623 11421.144,867.070 11435.321,866.799 11449.498,866.957 11463.675,867.123 11477.852,867.297 11492.029,866.467 11506.206,867.257 11520.384,867.474 11534.561,866.935 11548.738,866.897 11562.915,867.683 11577.092,867.418 11591.269,867.549 11605.446,867.159 11619.623,866.852 11633.800,866.941 11647.977,866.899 11662.154,867.052 11676.332,866.511 11690.509,867.141 11704.686,867.620 11718.863,867.343 11733.040,866.807 11747.217,867.339 11761.394,867.160 11775.571,867.409 11789.748,867.687 11803.925,866.892 11818.102,867.248 11832.279,867.212 11846.457,866.263 11860.634,867.351 11874.811,867.093 11888.988,866.313 11903.165,867.443 11917.342,867.397 11931.519,866.982 11945.696,867.251 11959.873,866.924 11974.050,867.316 11988.227,867.327 12002.405,867.213 12016.582,867.329 12030.759,866.679 12044.936,867.648 12059.113,867.091 12073.290,867.595 12087.467,867.014 12101.644,867.213 12115.821,866.797 12129.998,866.900 12144.175,867.516 12158.352,867.550 12172.530,867.262 12186.707,867.340 12200.884,866.971 12215.061,866.748 12229.238,867.134 12243.415,866.870 12257.592,867.447 12271.769,867.027 12285.946,866.823 12300.123,867.378 12314.300,866.701 12328.478,867.246 12342.655,866.669 12356.832,867.399 12371.009,867.159 12385.186,867.009 12399.363,867.494 12413.540,867.699 12427.717,867.215 12441.894,867.149 12456.071,867.335 12470.248,867.425 12484.425,867.632 12498.603,867.331 12512.780,866.799 12526.957,867.382 12541.134,867.306 12555.311,866.642 12569.488,866.612 12583.665,866.473 12597.842,866.918 12612.019,867.063 12626.196,866.709 12640.373,867.083 12654.550,867.311 12668.728,866.560 12682.905,867.450 12697.082,866.801 12711.259,867.538 12725.436,867.616 12739.613,867.094 12753.790,866.935 12767.967,867.493 12782.144,866.609 12796.321,866.975 12810.498,866.634 12824.676,867.216 12838.853,866.979 12853.030,866.297 12867.207,867.129 12881.384,866.981 12895.561,867.508 12909.738,866.865 12923.915,867.397 12938.092,866.825 12952.269,867.229 12966.446,866.879 12980.623,867.138 12994.801,867.065 13008.978,867.344 13023.155,866.686 13037.332,866.509 13051.509,867.057 13065.686,867.420 13079.863,867.315 13094.040,867.017 13108.217,866.731 13122.394,867.140 13136.571,866.776 13150.749,867.251 13164.926,867.285 13179.103,866.755 13193.280,867.272 13207.457,867.498 13221.634,867.469 13235.811,867.448 13249.988,867.249 13264.165,866.869 13278.342,867.392 13292.519,867.100 13306.696,867.632 13320.874,866.994 13335.051,867.631 13349.228,866.384 13363.405,866.690 13377.582,867.286 13391.759,867.225 13405.936,867.442 13420.113,867.628 13434.290,867.087 13448.467,866.156 13462.644,867.041 13476.821,866.762 13490.999,867.613 13505.176,867.534 13519.353,867.626 13533.530,867.158 13547.707,867.382 13561.884,867.236 13576.061,866.464 13590.238,867.499 13604.415,867.547 13618.592,867.479 13632.769,867.010 13646.947,867.211 13661.124,867.500 13675.301,867.324 13689.478,867.202 13703.655,867.464 13717.832,867.392 13732.009,867.102 13746.186,867.412 13760.363,867.311 13774.540,867.502 13788.717,867.023 13802.894,867.055 13817.072,867.330 13831.249,866.916 13845.426,867.652 13859.603,866.832 13873.780,867.074 13887.957,866.997 13902.134,867.161 13916.311,867.356 13930.488,866.941 13944.665,866.809 13958.842,867.576 13973.020,867.573 13987.197,867.394 14001.374,867.139 14015.551,867.282 14029.728,867.088 14043.905,866.699 14058.082,867.021 14072.259,867.146 14086.436,867.513 14100.613,866.935 14114.790,867.009 14128.967,867.392 14143.145,867.596 14157.322,867.282 14171.499,867.068 14185.676,867.633 14199.853,867.496 14214.030,867.191 14228.207,867.539 14242.384,867.227 14256.561,867.542 14270.738,867.003 14284.915,867.638 14299.092,867.124 14313.270,867.447 14327.447,866.969 14341.624,867.347 14355.801,867.274 14369.978,867.577 14384.155,866.972 14398.332,867.538 14412.509,867.227 14426.686,866.705 14440.863,867.597 14455.040,867.066 14469.218,866.790 14483.395,867.183 14497.572,866.838 14511.749,867.205 14525.926,867.200 14540.103,866.860 14554.280,867.078 14568.457,866.479 14582.634,867.252 14596.811,867.548 14610.988,867.223 14625.165,867.256 14639.343,867.058 14653.520,867.368 14667.697,867.405 14681.874,866.984 14696.051,866.748 14710.228,867.249 14724.405,867.441 14738.582,867.347 14752.759,866.657 14766.936,866.908 14781.113,867.200 14795.291,866.888 14809.468,866.798 14823.645,867.371 14837.822,867.292 14851.999,866.753 14866.176,867.315 14880.353,867.085 14894.530,866.988 14908.707,867.167 14922.884,867.564 14937.061,866.782 14951.238,867.140 14965.416,867.085 14979.593,867.207 14993.770,867.266 15007.947,867.244 15022.124,867.513 15036.301,867.190 15050.478,867.179 15064.655,867.293 15078.832,867.084 15093.009,867.209 15107.186,867.302 15121.363,866.939 15135.541,866.203 15149.718,866.525 15163.895,866.892 15178.072,867.498 15192.249,866.521 15206.426,866.741 15220.603,867.416 15234.780,867.131 15248.957,867.121 15263.134,867.107 15277.311,867.161 15291.489,867.454 15305.666,867.060 15319.843,867.152 15334.020,867.523 15348.197,867.169 15362.374,866.934 15376.551,867.201 15390.728,866.764 15404.905,866.334 15419.082,866.492 15433.259,867.080 15447.436,866.744 15461.614,866.796 15475.791,867.509 15489.968,867.354 15504.145,867.017 15518.322,867.274 15532.499,867.128 15546.676,867.687 15560.853,867.408 15575.030,867.501 15589.207,867.612 15603.384,866.715 15617.562,866.997 15631.739,867.100 15645.916,867.327 15660.093,867.418 15674.270,866.964 15688.447,867.550 15702.624,866.863 15716.801,866.960 15730.978,867.302 15745.155,867.007 15759.332,866.424 15773.509,867.182 15787.687,866.945 15801.864,867.098 15816.041,867.459 15830.218,867.205 15844.395,867.474 15858.572,867.556 15872.749,867.338 15886.926,867.256 15901.103,867.028 15915.280,866.981 15929.457,866.985 15943.634,867.394 15957.812,867.353 15971.989,867.176 15986.166,867.295 16000.343,866.858 16014.520,866.106 16028.697,867.356 16042.874,866.920 16057.051,867.168 16071.228,867.619 16085.405,867.658 16099.582,866.923 16113.760,867.180 16127.937,867.126 16142.114,866.928 16156.291,867.514 16170.468,866.810 16184.645,867.417 16198.822,866.281 16212.999,867.055 16227.176,867.514 16241.353,867.211 16255.530,867.496 16269.707,867.398 16283.885,867.332 16298.062,866.934 16312.239,867.353 16326.416,867.404 16340.593,867.542 16354.770,867.578 16368.947,867.281 16383.124,867.137 16397.301,867.380 16411.478,867.527 16425.655,866.489 16439.833,866.496 16454.010,867.043 16468.187,867.567 16482.364,866.851 16496.541,867.293 16510.718,867.293 16524.895,866.896 16539.072,866.940 16553.249,867.128 16567.426,867.251 16581.603,867.575 16595.780,867.139 16609.958,867.225 16624.135,867.563 16638.312,867.314 16652.489,867.228 16666.666,867.260 16680.843,867.021 16695.020,867.652 16709.197,867.344 16723.374,867.313 16737.551,867.184 16751.728,867.474 16765.906,867.323 16780.083,867.202 16794.260,867.378 16808.437,867.575 16822.614,867.294 16836.791,867.320 16850.968,867.180 16865.145,866.774 16879.322,867.018 16893.499,867.334 16907.676,866.878 16921.853,867.712 16936.031,866.703 16950.208,867.453 16964.385,866.501 16978.562,866.854 16992.739,867.205 17006.916,867.315 17021.093,867.132 17035.270,867.146 17049.447,867.426 17063.624,867.566 17077.801,867.316 17091.978,867.449 17106.156,866.976 17120.333,867.695 17134.510,867.268 17148.687,867.214 17162.864,867.279 17177.041,867.547 17191.218,866.801 17205.395,867.042 17219.572,867.638 17233.749,867.065 17247.926,867.379 17262.104,867.119 17276.281,867.422 17290.458,867.388 17304.635,867.140 17318.812,867.372 17332.989,867.478 17347.166,867.420 17361.343,867.099 17375.520,867.298 17389.697,867.396 17403.874,867.120 17418.051,867.545 17432.229,867.199 17446.406,867.497 17460.583,866.784 17474.760,867.288 17488.937,867.648 17503.114,867.522 17517.291,867.621 17531.468,867.237 17545.645,866.705 17559.822,867.266 17573.999,867.258 17588.177,866.687 17602.354,867.217 17616.531,867.437 17630.708,867.327 17644.885,866.285 17659.062,867.172 17673.239,867.360 17687.416,867.368 17701.593,867.013 17715.770,866.902 17729.947,866.937 17744.124,867.232 "/>
<g>
</g>
</g>
<g id="ID000046" >
</g>
<g id="ID000047" >
</g>
<g id="ID000048" >
</g>
<g id="ID000049" >
</g>
<g id="ID000050" >
</g>
<g id="ID000051" clip-path="url(#ID000044)" >
<g id="ID000052" >
<rect x="579.376" y="679.507" width="63.962" height="35.885" fill="#ffffee" stroke="#cccccc" stroke-width="0.5pt" stroke-dasharray="none" />
  <g transform="translate(585.100,692.893)">
    <g transform="rotate(-0.0)">
      <text x="0.000" y="0.000" font-family="Helvetica" text-anchor="start" font-size="8pt" fill="#000000" >X: 0.4602</text>
    </g>
  </g>
  <g transform="translate(585.100,704.893)">
    <g transform="rotate(-0.0)">
      <text x="0.000" y="0.000" font-family="Helvetica" text-anchor="start" font-size="8pt" fill="#000000" >Y: 40.83</text>
    </g>
  </g>
</g>
<g id="ID000053" >
<g>
      <polygon fill="#000000" fill-opacity="1.00" stroke="#ffffdc" stroke-width="2.0pt" stroke-opacity="1.00" stroke-dasharray="none" points="569.006,667.068 569.006,680.401 582.340,680.401 582.340,667.068 569.006,667.068 "/>
</g>
</g>
</g><g id="ID000054" clip-path="url(#ID000044)" >
<g id="ID000055" >
<rect x="777.243" y="577.924" width="63.962" height="35.885" fill="#ffffee" stroke="#cccccc" stroke-width="0.5pt" stroke-dasharray="none" />
  <g transform="translate(783.100,591.005)">
    <g transform="rotate(-0.0)">
      <text x="0.000" y="0.000" font-family="Helvetica" text-anchor="start" font-size="8pt" fill="#000000" >X: 0.7403</text>
    </g>
  </g>
  <g transform="translate(783.100,603.005)">
    <g transform="rotate(-0.0)">
      <text x="0.000" y="0.000" font-family="Helvetica" text-anchor="start" font-size="8pt" fill="#000000" >Y: 62.41</text>
    </g>
  </g>
</g>
<g id="ID000056" >
<g>
      <polygon fill="#000000" fill-opacity="1.00" stroke="#ffffdc" stroke-width="2.0pt" stroke-opacity="1.00" stroke-dasharray="none" points="767.486,564.533 767.486,577.867 780.819,577.867 780.819,564.533 767.486,564.533 "/>
</g>
</g>
</g><g id="ID000057" clip-path="url(#ID000044)" >
<g id="ID000058" >
<rect x="1117.014" y="688.470" width="57.966" height="35.885" fill="#ffffee" stroke="#cccccc" stroke-width="0.5pt" stroke-dasharray="none" />
  <g transform="translate(1123.100,701.883)">
    <g transform="rotate(-0.0)">
      <text x="0.000" y="0.000" font-family="Helvetica" text-anchor="start" font-size="8pt" fill="#000000" >X: 1.22</text>
    </g>
  </g>
  <g transform="translate(1123.100,713.883)">
    <g transform="rotate(-0.0)">
      <text x="0.000" y="0.000" font-family="Helvetica" text-anchor="start" font-size="8pt" fill="#000000" >Y: 38.95</text>
    </g>
  </g>
</g>
<g id="ID000059" >
<g>
      <polygon fill="#000000" fill-opacity="1.00" stroke="#ffffdc" stroke-width="2.0pt" stroke-opacity="1.00" stroke-dasharray="none" points="1107.736,676.001 1107.736,689.334 1121.069,689.334 1121.069,676.001 1107.736,676.001 "/>
</g>
</g>
</g><g id="ID000060" clip-path="url(#ID000044)" >
<g id="ID000061" >
<rect x="494.433" y="745.237" width="63.962" height="35.885" fill="#ffffee" stroke="#cccccc" stroke-width="0.5pt" stroke-dasharray="none" />
  <g transform="translate(500.100,761.352)">
    <g transform="rotate(-0.0)">
      <text x="0.000" y="0.000" font-family="Helvetica" text-anchor="start" font-size="8pt" fill="#000000" >X: 0.3401</text>
    </g>
  </g>
  <g transform="translate(500.100,773.352)">
    <g transform="rotate(-0.0)">
      <text x="0.000" y="0.000" font-family="Helvetica" text-anchor="start" font-size="8pt" fill="#000000" >Y: 17.51</text>
    </g>
  </g>
</g>
<g id="ID000062" >
<g>
      <polygon fill="#000000" fill-opacity="1.00" stroke="#ffffdc" stroke-width="2.0pt" stroke-opacity="1.00" stroke-dasharray="none" points="483.944,777.880 483.944,791.214 497.277,791.214 497.277,777.880 483.944,777.880 "/>
</g>
</g>
</g><g id="ID000063" clip-path="url(#ID000044)" >
<g id="ID000064" >
<rect x="408.491" y="780.094" width="63.962" height="35.885" fill="#ffffee" stroke="#cccccc" stroke-width="0.5pt" stroke-dasharray="none" />
  <g transform="translate(414.100,796.313)">
    <g transform="rotate(-0.0)">
      <text x="0.000" y="0.000" font-family="Helvetica" text-anchor="start" font-size="8pt" fill="#000000" >X: 0.2201</text>
    </g>
  </g>
  <g transform="translate(414.100,808.313)">
    <g transform="rotate(-0.0)">
      <text x="0.000" y="0.000" font-family="Helvetica" text-anchor="start" font-size="8pt" fill="#000000" >Y: 10.11</text>
    </g>
  </g>
</g>
<g id="ID000065" >
<g>
      <polygon fill="#000000" fill-opacity="1.00" stroke="#ffffdc" stroke-width="2.0pt" stroke-opacity="1.00" stroke-dasharray="none" points="398.881,813.054 398.881,826.387 412.215,826.387 412.215,813.054 398.881,813.054 "/>
</g>
</g>
</g><g id="ID000066" clip-path="url(#ID000044)" >
<g id="ID000067" >
<rect x="306.559" y="792.045" width="63.962" height="35.885" fill="#ffffee" stroke="#cccccc" stroke-width="0.5pt" stroke-dasharray="none" />
  <g transform="translate(312.100,808.300)">
    <g transform="rotate(-0.0)">
      <text x="0.000" y="0.000" font-family="Helvetica" text-anchor="start" font-size="8pt" fill="#000000" >X: 0.1801</text>
    </g>
  </g>
  <g transform="translate(312.100,820.300)">
    <g transform="rotate(-0.0)">
      <text x="0.000" y="0.000" font-family="Helvetica" text-anchor="start" font-size="8pt" fill="#000000" >Y: 7.623</text>
    </g>
  </g>
</g>
<g id="ID000068" >
<g>
      <polygon fill="#000000" fill-opacity="1.00" stroke="#ffffdc" stroke-width="2.0pt" stroke-opacity="1.00" stroke-dasharray="none" points="370.527,824.858 370.527,838.191 383.860,838.191 383.860,824.858 370.527,824.858 "/>
</g>
</g>
</g><g id="ID000069" clip-path="url(#ID000044)" >
<g id="ID000070" >
<rect x="229.611" y="802.004" width="69.958" height="35.885" fill="#ffffee" stroke="#cccccc" stroke-width="0.5pt" stroke-dasharray="none" />
  <g transform="translate(235.100,818.289)">
    <g transform="rotate(-0.0)">
      <text x="0.000" y="0.000" font-family="Helvetica" text-anchor="start" font-size="8pt" fill="#000000" >X: 0.08003</text>
    </g>
  </g>
  <g transform="translate(235.100,830.289)">
    <g transform="rotate(-0.0)">
      <text x="0.000" y="0.000" font-family="Helvetica" text-anchor="start" font-size="8pt" fill="#000000" >Y: 5.536</text>
    </g>
  </g>
</g>
<g id="ID000071" >
<g>
      <polygon fill="#000000" fill-opacity="1.00" stroke="#ffffdc" stroke-width="2.0pt" stroke-opacity="1.00" stroke-dasharray="none" points="299.642,834.779 299.642,848.112 312.975,848.112 312.975,834.779 299.642,834.779 "/>
</g>
</g>
</g><g id="ID000072" clip-path="url(#ID000044)" >
<g id="ID000073" >
<rect x="281.576" y="810.967" width="69.958" height="35.885" fill="#ffffee" stroke="#cccccc" stroke-width="0.5pt" stroke-dasharray="none" />
  <g transform="translate(287.100,827.279)">
    <g transform="rotate(-0.0)">
      <text x="0.000" y="0.000" font-family="Helvetica" text-anchor="start" font-size="8pt" fill="#000000" >X: 0.04002</text>
    </g>
  </g>
  <g transform="translate(287.100,839.279)">
    <g transform="rotate(-0.0)">
      <text x="0.000" y="0.000" font-family="Helvetica" text-anchor="start" font-size="8pt" fill="#000000" >Y: 3.719</text>
    </g>
  </g>
</g>
<g id="ID000074" >
<g>
      <polygon fill="#000000" fill-opacity="1.00" stroke="#ffffdc" stroke-width="2.0pt" stroke-opacity="1.00" stroke-dasharray="none" points="271.288,843.410 271.288,856.743 284.621,856.743 284.621,843.410 271.288,843.410 "/>
</g>
</g>
</g><g id="ID000075" clip-path="url(#ID000044)" >
<g id="ID000076" >
<rect x="1644.660" y="559.998" width="57.966" height="35.885" fill="#ffffee" stroke="#cccccc" stroke-width="0.5pt" stroke-dasharray="none" />
  <g transform="translate(1651.100,575.556)">
    <g transform="rotate(-0.0)">
      <text x="0.000" y="0.000" font-family="Helvetica" text-anchor="start" font-size="8pt" fill="#000000" >X: 2.061</text>
    </g>
  </g>
  <g transform="translate(1651.100,587.556)">
    <g transform="rotate(-0.0)">
      <text x="0.000" y="0.000" font-family="Helvetica" text-anchor="start" font-size="8pt" fill="#000000" >Y: 56.7</text>
    </g>
  </g>
</g>
<g id="ID000077" >
<g>
      <polygon fill="#000000" fill-opacity="1.00" stroke="#ffffdc" stroke-width="2.0pt" stroke-opacity="1.00" stroke-dasharray="none" points="1703.173,591.656 1703.173,604.990 1716.507,604.990 1716.507,591.656 1703.173,591.656 "/>
</g>
</g>
</g><g id="ID000078" clip-path="url(#ID000044)" >
<g id="ID000079" >
<rect x="1601.689" y="617.760" width="57.966" height="35.885" fill="#ffffee" stroke="#cccccc" stroke-width="0.5pt" stroke-dasharray="none" />
  <g transform="translate(1608.100,630.961)">
    <g transform="rotate(-0.0)">
      <text x="0.000" y="0.000" font-family="Helvetica" text-anchor="start" font-size="8pt" fill="#000000" >X: 2.001</text>
    </g>
  </g>
  <g transform="translate(1608.100,642.961)">
    <g transform="rotate(-0.0)">
      <text x="0.000" y="0.000" font-family="Helvetica" text-anchor="start" font-size="8pt" fill="#000000" >Y: 53.91</text>
    </g>
  </g>
</g>
<g id="ID000080" >
<g>
      <polygon fill="#000000" fill-opacity="1.00" stroke="#ffffdc" stroke-width="2.0pt" stroke-opacity="1.00" stroke-dasharray="none" points="1660.642,604.894 1660.642,618.227 1673.975,618.227 1673.975,604.894 1660.642,604.894 "/>
</g>
</g>
</g>    </g>
    <g>
      <polyline fill="none" stroke="#000000" stroke-width="0.5pt" stroke-dasharray="none" points="391.314,867.750 391.314,852.870 "/>
      <polyline fill="none" stroke="#000000" stroke-width="0.5pt" stroke-dasharray="none" points="533.029,867.750 533.029,852.870 "/>
      <polyline fill="none" stroke="#000000" stroke-width="0.5pt" stroke-dasharray="none" points="674.743,867.750 674.743,852.870 "/>
      <polyline fill="none" stroke="#000000" stroke-width="0.5pt" stroke-dasharray="none" points="816.457,867.750 816.457,852.870 "/>
      <polyline fill="none" stroke="#000000" stroke-width="0.5pt" stroke-dasharray="none" points="958.171,867.750 958.171,852.870 "/>
      <polyline fill="none" stroke="#000000" stroke-width="0.5pt" stroke-dasharray="none" points="1099.886,867.750 1099.886,852.870 "/>
      <polyline fill="none" stroke="#000000" stroke-width="0.5pt" stroke-dasharray="none" points="1241.600,867.750 1241.600,852.870 "/>
      <polyline fill="none" stroke="#000000" stroke-width="0.5pt" stroke-dasharray="none" points="1383.314,867.750 1383.314,852.870 "/>
      <polyline fill="none" stroke="#000000" stroke-width="0.5pt" stroke-dasharray="none" points="1525.029,867.750 1525.029,852.870 "/>
      <polyline fill="none" stroke="#000000" stroke-width="0.5pt" stroke-dasharray="none" points="1666.743,867.750 1666.743,852.870 "/>
      <polyline fill="none" stroke="#000000" stroke-width="0.5pt" stroke-dasharray="none" points="249.600,867.750 1737.600,867.750 "/>
      <polyline fill="none" stroke="#000000" stroke-width="0.5pt" stroke-dasharray="none" points="391.314,535.116 391.314,549.996 "/>
      <polyline fill="none" stroke="#000000" stroke-width="0.5pt" stroke-dasharray="none" points="533.029,535.116 533.029,549.996 "/>
      <polyline fill="none" stroke="#000000" stroke-width="0.5pt" stroke-dasharray="none" points="674.743,535.116 674.743,549.996 "/>
      <polyline fill="none" stroke="#000000" stroke-width="0.5pt" stroke-dasharray="none" points="816.457,535.116 816.457,549.996 "/>
      <polyline fill="none" stroke="#000000" stroke-width="0.5pt" stroke-dasharray="none" points="958.171,535.116 958.171,549.996 "/>
      <polyline fill="none" stroke="#000000" stroke-width="0.5pt" stroke-dasharray="none" points="1099.886,535.116 1099.886,549.996 "/>
      <polyline fill="none" stroke="#000000" stroke-width="0.5pt" stroke-dasharray="none" points="1241.600,535.116 1241.600,549.996 "/>
      <polyline fill="none" stroke="#000000" stroke-width="0.5pt" stroke-dasharray="none" points="1383.314,535.116 1383.314,549.996 "/>
      <polyline fill="none" stroke="#000000" stroke-width="0.5pt" stroke-dasharray="none" points="1525.029,535.116 1525.029,549.996 "/>
      <polyline fill="none" stroke="#000000" stroke-width="0.5pt" stroke-dasharray="none" points="1666.743,535.116 1666.743,549.996 "/>
      <polyline fill="none" stroke="#000000" stroke-width="0.5pt" stroke-dasharray="none" points="249.600,535.116 1737.600,535.116 "/>
  <g transform="translate(249.600,886.203)">
    <g transform="rotate(-0.0)">
      <text x="0.000" y="0.000" font-family="Helvetica" text-anchor="middle" font-size="10pt" fill="#000000" >0</text>
    </g>
  </g>
  <g transform="translate(391.314,886.203)">
    <g transform="rotate(-0.0)">
      <text x="0.000" y="0.000" font-family="Helvetica" text-anchor="middle" font-size="10pt" fill="#000000" >0.2</text>
    </g>
  </g>
  <g transform="translate(533.029,886.203)">
    <g transform="rotate(-0.0)">
      <text x="0.000" y="0.000" font-family="Helvetica" text-anchor="middle" font-size="10pt" fill="#000000" >0.4</text>
    </g>
  </g>
  <g transform="translate(674.743,886.203)">
    <g transform="rotate(-0.0)">
      <text x="0.000" y="0.000" font-family="Helvetica" text-anchor="middle" font-size="10pt" fill="#000000" >0.6</text>
    </g>
  </g>
  <g transform="translate(816.457,886.203)">
    <g transform="rotate(-0.0)">
      <text x="0.000" y="0.000" font-family="Helvetica" text-anchor="middle" font-size="10pt" fill="#000000" >0.8</text>
    </g>
  </g>
  <g transform="translate(958.171,886.203)">
    <g transform="rotate(-0.0)">
      <text x="0.000" y="0.000" font-family="Helvetica" text-anchor="middle" font-size="10pt" fill="#000000" >1</text>
    </g>
  </g>
  <g transform="translate(1099.886,886.203)">
    <g transform="rotate(-0.0)">
      <text x="0.000" y="0.000" font-family="Helvetica" text-anchor="middle" font-size="10pt" fill="#000000" >1.2</text>
    </g>
  </g>
  <g transform="translate(1241.600,886.203)">
    <g transform="rotate(-0.0)">
      <text x="0.000" y="0.000" font-family="Helvetica" text-anchor="middle" font-size="10pt" fill="#000000" >1.4</text>
    </g>
  </g>
  <g transform="translate(1383.314,886.203)">
    <g transform="rotate(-0.0)">
      <text x="0.000" y="0.000" font-family="Helvetica" text-anchor="middle" font-size="10pt" fill="#000000" >1.6</text>
    </g>
  </g>
  <g transform="translate(1525.029,886.203)">
    <g transform="rotate(-0.0)">
      <text x="0.000" y="0.000" font-family="Helvetica" text-anchor="middle" font-size="10pt" fill="#000000" >1.8</text>
    </g>
  </g>
  <g transform="translate(1666.743,886.203)">
    <g transform="rotate(-0.0)">
      <text x="0.000" y="0.000" font-family="Helvetica" text-anchor="middle" font-size="10pt" fill="#000000" >2</text>
    </g>
  </g>
      <polyline fill="none" stroke="#000000" stroke-width="0.5pt" stroke-dasharray="none" points="249.600,820.231 264.480,820.231 "/>
      <polyline fill="none" stroke="#000000" stroke-width="0.5pt" stroke-dasharray="none" points="249.600,772.712 264.480,772.712 "/>
      <polyline fill="none" stroke="#000000" stroke-width="0.5pt" stroke-dasharray="none" points="249.600,725.193 264.480,725.193 "/>
      <polyline fill="none" stroke="#000000" stroke-width="0.5pt" stroke-dasharray="none" points="249.600,677.674 264.480,677.674 "/>
      <polyline fill="none" stroke="#000000" stroke-width="0.5pt" stroke-dasharray="none" points="249.600,630.154 264.480,630.154 "/>
      <polyline fill="none" stroke="#000000" stroke-width="0.5pt" stroke-dasharray="none" points="249.600,582.635 264.480,582.635 "/>
      <polyline fill="none" stroke="#000000" stroke-width="0.5pt" stroke-dasharray="none" points="249.600,867.750 249.600,535.116 "/>
      <polyline fill="none" stroke="#000000" stroke-width="0.5pt" stroke-dasharray="none" points="1737.600,820.231 1722.720,820.231 "/>
      <polyline fill="none" stroke="#000000" stroke-width="0.5pt" stroke-dasharray="none" points="1737.600,772.712 1722.720,772.712 "/>
      <polyline fill="none" stroke="#000000" stroke-width="0.5pt" stroke-dasharray="none" points="1737.600,725.193 1722.720,725.193 "/>
      <polyline fill="none" stroke="#000000" stroke-width="0.5pt" stroke-dasharray="none" points="1737.600,677.674 1722.720,677.674 "/>
      <polyline fill="none" stroke="#000000" stroke-width="0.5pt" stroke-dasharray="none" points="1737.600,630.154 1722.720,630.154 "/>
      <polyline fill="none" stroke="#000000" stroke-width="0.5pt" stroke-dasharray="none" points="1737.600,582.635 1722.720,582.635 "/>
      <polyline fill="none" stroke="#000000" stroke-width="0.5pt" stroke-dasharray="none" points="1737.600,867.750 1737.600,535.116 "/>
  <g transform="translate(219.840,872.250)">
    <g transform="rotate(-0.0)">
      <text x="0.000" y="0.000" font-family="Helvetica" text-anchor="end" font-size="10pt" fill="#000000" >0</text>
    </g>
  </g>
  <g transform="translate(219.840,824.731)">
    <g transform="rotate(-0.0)">
      <text x="0.000" y="0.000" font-family="Helvetica" text-anchor="end" font-size="10pt" fill="#000000" >10</text>
    </g>
  </g>
  <g transform="translate(219.840,777.212)">
    <g transform="rotate(-0.0)">
      <text x="0.000" y="0.000" font-family="Helvetica" text-anchor="end" font-size="10pt" fill="#000000" >20</text>
    </g>
  </g>
  <g transform="translate(219.840,729.693)">
    <g transform="rotate(-0.0)">
      <text x="0.000" y="0.000" font-family="Helvetica" text-anchor="end" font-size="10pt" fill="#000000" >30</text>
    </g>
  </g>
  <g transform="translate(219.840,682.174)">
    <g transform="rotate(-0.0)">
      <text x="0.000" y="0.000" font-family="Helvetica" text-anchor="end" font-size="10pt" fill="#000000" >40</text>
    </g>
  </g>
  <g transform="translate(219.840,634.654)">
    <g transform="rotate(-0.0)">
      <text x="0.000" y="0.000" font-family="Helvetica" text-anchor="end" font-size="10pt" fill="#000000" >50</text>
    </g>
  </g>
  <g transform="translate(219.840,587.135)">
    <g transform="rotate(-0.0)">
      <text x="0.000" y="0.000" font-family="Helvetica" text-anchor="end" font-size="10pt" fill="#000000" >60</text>
    </g>
  </g>
  <g transform="translate(219.840,539.616)">
    <g transform="rotate(-0.0)">
      <text x="0.000" y="0.000" font-family="Helvetica" text-anchor="end" font-size="10pt" fill="#000000" >70</text>
    </g>
  </g>
      <polyline fill="none" stroke="#000000" stroke-width="0.5pt" stroke-dasharray="none" points="249.600,867.750 249.600,864.424 "/>
      <polyline fill="none" stroke="#000000" stroke-width="0.5pt" stroke-dasharray="none" points="249.600,867.750 249.600,864.424 "/>
      <polyline fill="none" stroke="#000000" stroke-width="0.5pt" stroke-dasharray="none" points="249.600,867.750 249.600,867.750 "/>
    </g>
  </g>
  <g id ="ID000081">
  <clipPath id="ID000082">
    <rect x="1588.250" y="541.750" width="144.500" height="20.000"/>
  </clipPath>
      <polygon fill="#ffffff" fill-opacity="1.00" stroke="none" stroke-width="0.5pt" stroke-opacity="1.00" stroke-dasharray="none" points="1588.250,561.750 1732.750,561.750 1732.750,541.750 1588.250,541.750 "/>
      <polygon fill="#ffffff" fill-opacity="1.00" stroke="none" stroke-width="0.5pt" stroke-opacity="1.00" stroke-dasharray="none" points="1588.250,541.750 1732.750,541.750 1732.750,541.750 1588.250,541.750 "/>
      <polygon fill="#ffffff" fill-opacity="1.00" stroke="none" stroke-width="0.5pt" stroke-opacity="1.00" stroke-dasharray="none" points="1588.250,561.750 1588.250,561.750 1588.250,541.750 1588.250,541.750 "/>
    <g>
<g id="ID000083" >
  <g transform="translate(1637.579,557.750)">
    <g transform="rotate(-0.0)">
      <text x="0.000" y="0.000" font-family="Helvetica" text-anchor="start" font-size="10pt" fill="#000000" >VrpnFreqrpydata</text>
    </g>
  </g>
</g>
<g id="ID000084" clip-path="url(#ID000082)" >
      <polyline fill="none" stroke="#0000ff" stroke-width="0.5pt" stroke-dasharray="none" points="1595.750,551.750 1633.250,551.750 "/>
<g>
</g>
</g>
<g id="ID000085" clip-path="url(#ID000082)" >
<g>
</g>
</g>
<g id="ID000086" >
</g>
<g id="ID000087" >
</g>
<g id="ID000088" >
</g>
    </g>
    <g>
      <polyline fill="none" stroke="#000000" stroke-width="0.5pt" stroke-dasharray="none" points="1588.250,561.750 1732.750,561.750 "/>
      <polyline fill="none" stroke="#000000" stroke-width="0.5pt" stroke-dasharray="none" points="1588.250,541.750 1732.750,541.750 "/>
      <polyline fill="none" stroke="#000000" stroke-width="0.5pt" stroke-dasharray="none" points="1588.250,561.750 1588.250,541.750 "/>
      <polyline fill="none" stroke="#000000" stroke-width="0.5pt" stroke-dasharray="none" points="1732.750,561.750 1732.750,541.750 "/>
      <polyline fill="none" stroke="#000000" stroke-width="0.5pt" stroke-dasharray="none" points="1588.250,561.750 1588.250,561.550 "/>
      <polyline fill="none" stroke="#000000" stroke-width="0.5pt" stroke-dasharray="none" points="1588.250,561.750 1588.250,561.750 "/>
    </g>
  </g>
  </g>
</svg>
