<?xml version="1.0" encoding="utf-8" standalone="no"?><!DOCTYPE svg PUBLIC "-//W3C//DTD SVG 1.1//EN" "http://www.w3.org/Graphics/SVG/1.1/DTD/svg11.dtd">
<svg preserveAspectRatio="xMinYMin meet" width="100%" height="100%" viewBox="0 0 1920.000 975.000"  version="1.1" xmlns="http://www.w3.org/2000/svg" xmlns:xlink="http://www.w3.org/1999/xlink">
  <desc>Matlab Figure Converted by PLOT2SVG written by Juerg Schwizer</desc>
  <g id="topgroup">
  <rect x="0" y="0" width="1920.000" height="975.000" fill="#ffffff" stroke="none" />
  <g id ="ID000000">
  <clipPath id="ID000001">
    <rect x="249.600" y="73.125" width="1488.000" height="794.625"/>
  </clipPath>
      <polygon fill="#ffffff" fill-opacity="1.00" stroke="none" stroke-width="0.5pt" stroke-opacity="1.00" stroke-dasharray="none" points="249.600,867.750 1737.600,867.750 1737.600,73.125 249.600,73.125 "/>
      <polygon fill="#ffffff" fill-opacity="1.00" stroke="none" stroke-width="0.5pt" stroke-opacity="1.00" stroke-dasharray="none" points="249.600,867.750 1737.600,867.750 1737.600,867.750 249.600,867.750 "/>
      <polygon fill="#ffffff" fill-opacity="1.00" stroke="none" stroke-width="0.5pt" stroke-opacity="1.00" stroke-dasharray="none" points="249.600,867.750 249.600,867.750 249.600,73.125 249.600,73.125 "/>
    <g>
<g id="ID000002" clip-path="url(#ID000001)" >
      <polyline fill="none" stroke="#0000ff" stroke-width="0.5pt" stroke-dasharray="none" points="548.259,172.413 635.600,239.064 745.637,211.878 818.117,305.243 915.479,382.270 1009.251,443.916 1074.365,501.755 1176.776,600.665 1284.472,685.411 1393.092,785.048 "/>
<g>
<circle cx="548.259" cy="172.413" r="3.000" fill="none" stroke="#0000ff" stroke-width="0.5pt" />
<circle cx="635.600" cy="239.064" r="3.000" fill="none" stroke="#0000ff" stroke-width="0.5pt" />
<circle cx="745.637" cy="211.878" r="3.000" fill="none" stroke="#0000ff" stroke-width="0.5pt" />
<circle cx="818.117" cy="305.243" r="3.000" fill="none" stroke="#0000ff" stroke-width="0.5pt" />
<circle cx="915.479" cy="382.270" r="3.000" fill="none" stroke="#0000ff" stroke-width="0.5pt" />
<circle cx="1009.251" cy="443.916" r="3.000" fill="none" stroke="#0000ff" stroke-width="0.5pt" />
<circle cx="1074.365" cy="501.755" r="3.000" fill="none" stroke="#0000ff" stroke-width="0.5pt" />
<circle cx="1176.776" cy="600.665" r="3.000" fill="none" stroke="#0000ff" stroke-width="0.5pt" />
<circle cx="1284.472" cy="685.411" r="3.000" fill="none" stroke="#0000ff" stroke-width="0.5pt" />
<circle cx="1393.092" cy="785.048" r="3.000" fill="none" stroke="#0000ff" stroke-width="0.5pt" />
</g>
</g>
<g id="ID000003" >
</g>
<g id="ID000004" >
</g>
<g id="ID000005" >
</g>
    </g>
    <g>
      <polyline fill="none" stroke="#000000" stroke-width="0.5pt" stroke-dasharray="none" points="745.600,867.750 745.600,852.870 "/>
      <polyline fill="none" stroke="#000000" stroke-width="0.5pt" stroke-dasharray="none" points="1241.600,867.750 1241.600,852.870 "/>
      <polyline fill="none" stroke="#000000" stroke-width="0.5pt" stroke-dasharray="none" points="249.600,867.750 1737.600,867.750 "/>
      <polyline fill="none" stroke="#000000" stroke-width="0.5pt" stroke-dasharray="none" points="745.600,73.125 745.600,88.005 "/>
      <polyline fill="none" stroke="#000000" stroke-width="0.5pt" stroke-dasharray="none" points="1241.600,73.125 1241.600,88.005 "/>
      <polyline fill="none" stroke="#000000" stroke-width="0.5pt" stroke-dasharray="none" points="249.600,73.125 1737.600,73.125 "/>
      <polyline fill="none" stroke="#000000" stroke-width="0.5pt" stroke-dasharray="none" points="398.911,867.750 398.911,860.310 "/>
      <polyline fill="none" stroke="#000000" stroke-width="0.5pt" stroke-dasharray="none" points="486.252,867.750 486.252,860.310 "/>
      <polyline fill="none" stroke="#000000" stroke-width="0.5pt" stroke-dasharray="none" points="548.222,867.750 548.222,860.310 "/>
      <polyline fill="none" stroke="#000000" stroke-width="0.5pt" stroke-dasharray="none" points="596.289,867.750 596.289,860.310 "/>
      <polyline fill="none" stroke="#000000" stroke-width="0.5pt" stroke-dasharray="none" points="635.563,867.750 635.563,860.310 "/>
      <polyline fill="none" stroke="#000000" stroke-width="0.5pt" stroke-dasharray="none" points="668.769,867.750 668.769,860.310 "/>
      <polyline fill="none" stroke="#000000" stroke-width="0.5pt" stroke-dasharray="none" points="697.533,867.750 697.533,860.310 "/>
      <polyline fill="none" stroke="#000000" stroke-width="0.5pt" stroke-dasharray="none" points="722.904,867.750 722.904,860.310 "/>
      <polyline fill="none" stroke="#000000" stroke-width="0.5pt" stroke-dasharray="none" points="894.911,867.750 894.911,860.310 "/>
      <polyline fill="none" stroke="#000000" stroke-width="0.5pt" stroke-dasharray="none" points="982.252,867.750 982.252,860.310 "/>
      <polyline fill="none" stroke="#000000" stroke-width="0.5pt" stroke-dasharray="none" points="1044.222,867.750 1044.222,860.310 "/>
      <polyline fill="none" stroke="#000000" stroke-width="0.5pt" stroke-dasharray="none" points="1092.289,867.750 1092.289,860.310 "/>
      <polyline fill="none" stroke="#000000" stroke-width="0.5pt" stroke-dasharray="none" points="1131.563,867.750 1131.563,860.310 "/>
      <polyline fill="none" stroke="#000000" stroke-width="0.5pt" stroke-dasharray="none" points="1164.769,867.750 1164.769,860.310 "/>
      <polyline fill="none" stroke="#000000" stroke-width="0.5pt" stroke-dasharray="none" points="1193.533,867.750 1193.533,860.310 "/>
      <polyline fill="none" stroke="#000000" stroke-width="0.5pt" stroke-dasharray="none" points="1218.904,867.750 1218.904,860.310 "/>
      <polyline fill="none" stroke="#000000" stroke-width="0.5pt" stroke-dasharray="none" points="1390.911,867.750 1390.911,860.310 "/>
      <polyline fill="none" stroke="#000000" stroke-width="0.5pt" stroke-dasharray="none" points="1478.252,867.750 1478.252,860.310 "/>
      <polyline fill="none" stroke="#000000" stroke-width="0.5pt" stroke-dasharray="none" points="1540.222,867.750 1540.222,860.310 "/>
      <polyline fill="none" stroke="#000000" stroke-width="0.5pt" stroke-dasharray="none" points="1588.289,867.750 1588.289,860.310 "/>
      <polyline fill="none" stroke="#000000" stroke-width="0.5pt" stroke-dasharray="none" points="1627.563,867.750 1627.563,860.310 "/>
      <polyline fill="none" stroke="#000000" stroke-width="0.5pt" stroke-dasharray="none" points="1660.769,867.750 1660.769,860.310 "/>
      <polyline fill="none" stroke="#000000" stroke-width="0.5pt" stroke-dasharray="none" points="1689.533,867.750 1689.533,860.310 "/>
      <polyline fill="none" stroke="#000000" stroke-width="0.5pt" stroke-dasharray="none" points="1714.904,867.750 1714.904,860.310 "/>
      <polyline fill="none" stroke="#000000" stroke-width="0.5pt" stroke-dasharray="none" points="398.911,73.125 398.911,80.565 "/>
      <polyline fill="none" stroke="#000000" stroke-width="0.5pt" stroke-dasharray="none" points="486.252,73.125 486.252,80.565 "/>
      <polyline fill="none" stroke="#000000" stroke-width="0.5pt" stroke-dasharray="none" points="548.222,73.125 548.222,80.565 "/>
      <polyline fill="none" stroke="#000000" stroke-width="0.5pt" stroke-dasharray="none" points="596.289,73.125 596.289,80.565 "/>
      <polyline fill="none" stroke="#000000" stroke-width="0.5pt" stroke-dasharray="none" points="635.563,73.125 635.563,80.565 "/>
      <polyline fill="none" stroke="#000000" stroke-width="0.5pt" stroke-dasharray="none" points="668.769,73.125 668.769,80.565 "/>
      <polyline fill="none" stroke="#000000" stroke-width="0.5pt" stroke-dasharray="none" points="697.533,73.125 697.533,80.565 "/>
      <polyline fill="none" stroke="#000000" stroke-width="0.5pt" stroke-dasharray="none" points="722.904,73.125 722.904,80.565 "/>
      <polyline fill="none" stroke="#000000" stroke-width="0.5pt" stroke-dasharray="none" points="894.911,73.125 894.911,80.565 "/>
      <polyline fill="none" stroke="#000000" stroke-width="0.5pt" stroke-dasharray="none" points="982.252,73.125 982.252,80.565 "/>
      <polyline fill="none" stroke="#000000" stroke-width="0.5pt" stroke-dasharray="none" points="1044.222,73.125 1044.222,80.565 "/>
      <polyline fill="none" stroke="#000000" stroke-width="0.5pt" stroke-dasharray="none" points="1092.289,73.125 1092.289,80.565 "/>
      <polyline fill="none" stroke="#000000" stroke-width="0.5pt" stroke-dasharray="none" points="1131.563,73.125 1131.563,80.565 "/>
      <polyline fill="none" stroke="#000000" stroke-width="0.5pt" stroke-dasharray="none" points="1164.769,73.125 1164.769,80.565 "/>
      <polyline fill="none" stroke="#000000" stroke-width="0.5pt" stroke-dasharray="none" points="1193.533,73.125 1193.533,80.565 "/>
      <polyline fill="none" stroke="#000000" stroke-width="0.5pt" stroke-dasharray="none" points="1218.904,73.125 1218.904,80.565 "/>
      <polyline fill="none" stroke="#000000" stroke-width="0.5pt" stroke-dasharray="none" points="1390.911,73.125 1390.911,80.565 "/>
      <polyline fill="none" stroke="#000000" stroke-width="0.5pt" stroke-dasharray="none" points="1478.252,73.125 1478.252,80.565 "/>
      <polyline fill="none" stroke="#000000" stroke-width="0.5pt" stroke-dasharray="none" points="1540.222,73.125 1540.222,80.565 "/>
      <polyline fill="none" stroke="#000000" stroke-width="0.5pt" stroke-dasharray="none" points="1588.289,73.125 1588.289,80.565 "/>
      <polyline fill="none" stroke="#000000" stroke-width="0.5pt" stroke-dasharray="none" points="1627.563,73.125 1627.563,80.565 "/>
      <polyline fill="none" stroke="#000000" stroke-width="0.5pt" stroke-dasharray="none" points="1660.769,73.125 1660.769,80.565 "/>
      <polyline fill="none" stroke="#000000" stroke-width="0.5pt" stroke-dasharray="none" points="1689.533,73.125 1689.533,80.565 "/>
      <polyline fill="none" stroke="#000000" stroke-width="0.5pt" stroke-dasharray="none" points="1714.904,73.125 1714.904,80.565 "/>
  <g transform="translate(249.600,899.442)">
    <g transform="rotate(-0.0)">
      <text x="0.000" y="0.000" font-family="Helvetica" text-anchor="middle" font-size="10pt" fill="#000000" >10<tspan font-size="7.0pt" dy="-7.0pt">-2</tspan></text>
    </g>
  </g>
  <g transform="translate(745.600,899.442)">
    <g transform="rotate(-0.0)">
      <text x="0.000" y="0.000" font-family="Helvetica" text-anchor="middle" font-size="10pt" fill="#000000" >10<tspan font-size="7.0pt" dy="-7.0pt">-1</tspan></text>
    </g>
  </g>
  <g transform="translate(1241.600,899.442)">
    <g transform="rotate(-0.0)">
      <text x="0.000" y="0.000" font-family="Helvetica" text-anchor="middle" font-size="10pt" fill="#000000" >10<tspan font-size="7.0pt" dy="-7.0pt">0</tspan></text>
    </g>
  </g>
  <g transform="translate(1737.600,899.442)">
    <g transform="rotate(-0.0)">
      <text x="0.000" y="0.000" font-family="Helvetica" text-anchor="middle" font-size="10pt" fill="#000000" >10<tspan font-size="7.0pt" dy="-7.0pt">1</tspan></text>
    </g>
  </g>
      <polyline fill="none" stroke="#000000" stroke-width="0.5pt" stroke-dasharray="none" points="249.600,754.232 264.480,754.232 "/>
      <polyline fill="none" stroke="#000000" stroke-width="0.5pt" stroke-dasharray="none" points="249.600,640.714 264.480,640.714 "/>
      <polyline fill="none" stroke="#000000" stroke-width="0.5pt" stroke-dasharray="none" points="249.600,527.196 264.480,527.196 "/>
      <polyline fill="none" stroke="#000000" stroke-width="0.5pt" stroke-dasharray="none" points="249.600,413.679 264.480,413.679 "/>
      <polyline fill="none" stroke="#000000" stroke-width="0.5pt" stroke-dasharray="none" points="249.600,300.161 264.480,300.161 "/>
      <polyline fill="none" stroke="#000000" stroke-width="0.5pt" stroke-dasharray="none" points="249.600,186.643 264.480,186.643 "/>
      <polyline fill="none" stroke="#000000" stroke-width="0.5pt" stroke-dasharray="none" points="249.600,867.750 249.600,73.125 "/>
      <polyline fill="none" stroke="#000000" stroke-width="0.5pt" stroke-dasharray="none" points="1737.600,754.232 1722.720,754.232 "/>
      <polyline fill="none" stroke="#000000" stroke-width="0.5pt" stroke-dasharray="none" points="1737.600,640.714 1722.720,640.714 "/>
      <polyline fill="none" stroke="#000000" stroke-width="0.5pt" stroke-dasharray="none" points="1737.600,527.196 1722.720,527.196 "/>
      <polyline fill="none" stroke="#000000" stroke-width="0.5pt" stroke-dasharray="none" points="1737.600,413.679 1722.720,413.679 "/>
      <polyline fill="none" stroke="#000000" stroke-width="0.5pt" stroke-dasharray="none" points="1737.600,300.161 1722.720,300.161 "/>
      <polyline fill="none" stroke="#000000" stroke-width="0.5pt" stroke-dasharray="none" points="1737.600,186.643 1722.720,186.643 "/>
      <polyline fill="none" stroke="#000000" stroke-width="0.5pt" stroke-dasharray="none" points="1737.600,867.750 1737.600,73.125 "/>
  <g transform="translate(219.840,872.250)">
    <g transform="rotate(-0.0)">
      <text x="0.000" y="0.000" font-family="Helvetica" text-anchor="end" font-size="10pt" fill="#000000" >-30</text>
    </g>
  </g>
  <g transform="translate(219.840,758.732)">
    <g transform="rotate(-0.0)">
      <text x="0.000" y="0.000" font-family="Helvetica" text-anchor="end" font-size="10pt" fill="#000000" >-20</text>
    </g>
  </g>
  <g transform="translate(219.840,645.214)">
    <g transform="rotate(-0.0)">
      <text x="0.000" y="0.000" font-family="Helvetica" text-anchor="end" font-size="10pt" fill="#000000" >-10</text>
    </g>
  </g>
  <g transform="translate(219.840,531.696)">
    <g transform="rotate(-0.0)">
      <text x="0.000" y="0.000" font-family="Helvetica" text-anchor="end" font-size="10pt" fill="#000000" >0</text>
    </g>
  </g>
  <g transform="translate(219.840,418.179)">
    <g transform="rotate(-0.0)">
      <text x="0.000" y="0.000" font-family="Helvetica" text-anchor="end" font-size="10pt" fill="#000000" >10</text>
    </g>
  </g>
  <g transform="translate(219.840,304.661)">
    <g transform="rotate(-0.0)">
      <text x="0.000" y="0.000" font-family="Helvetica" text-anchor="end" font-size="10pt" fill="#000000" >20</text>
    </g>
  </g>
  <g transform="translate(219.840,191.143)">
    <g transform="rotate(-0.0)">
      <text x="0.000" y="0.000" font-family="Helvetica" text-anchor="end" font-size="10pt" fill="#000000" >30</text>
    </g>
  </g>
  <g transform="translate(219.840,77.625)">
    <g transform="rotate(-0.0)">
      <text x="0.000" y="0.000" font-family="Helvetica" text-anchor="end" font-size="10pt" fill="#000000" >40</text>
    </g>
  </g>
      <polyline fill="none" stroke="#000000" stroke-width="0.5pt" stroke-dasharray="none" points="249.600,867.750 249.600,859.804 "/>
      <polyline fill="none" stroke="#000000" stroke-width="0.5pt" stroke-dasharray="none" points="249.600,867.750 249.600,867.750 "/>
    </g>
  </g>
  </g>
</svg>
