<?xml version="1.0" encoding="utf-8" standalone="no"?><!DOCTYPE svg PUBLIC "-//W3C//DTD SVG 1.1//EN" "http://www.w3.org/Graphics/SVG/1.1/DTD/svg11.dtd">
<svg preserveAspectRatio="xMinYMin meet" width="100%" height="100%" viewBox="0 0 1920.000 975.000"  version="1.1" xmlns="http://www.w3.org/2000/svg" xmlns:xlink="http://www.w3.org/1999/xlink">
  <desc>Matlab Figure Converted by PLOT2SVG written by Juerg Schwizer</desc>
  <g id="topgroup">
  <rect x="0" y="0" width="1920.000" height="975.000" fill="#ffffff" stroke="none" />
  <g id ="ID000000">
  <clipPath id="ID000001">
    <rect x="249.600" y="73.125" width="1488.000" height="332.634"/>
  </clipPath>
      <polygon fill="#ffffff" fill-opacity="1.00" stroke="none" stroke-width="0.5pt" stroke-opacity="1.00" stroke-dasharray="none" points="249.600,405.759 1737.600,405.759 1737.600,73.125 249.600,73.125 "/>
      <polygon fill="#ffffff" fill-opacity="1.00" stroke="none" stroke-width="0.5pt" stroke-opacity="1.00" stroke-dasharray="none" points="249.600,73.125 1737.600,73.125 1737.600,73.125 249.600,73.125 "/>
      <polygon fill="#ffffff" fill-opacity="1.00" stroke="none" stroke-width="0.5pt" stroke-opacity="1.00" stroke-dasharray="none" points="249.600,405.759 249.600,405.759 249.600,73.125 249.600,73.125 "/>
    <g>
<g id="ID000002" clip-path="url(#ID000001)" >
      <polyline fill="none" stroke="#0000ff" stroke-width="0.5pt" stroke-dasharray="none" points="249.600,84.163 263.780,373.207 277.960,337.262 292.140,303.216 306.320,304.071 320.499,288.232 334.679,395.248 348.859,280.353 363.039,389.376 377.219,367.007 391.399,400.193 405.579,304.509 419.759,387.281 433.939,377.791 448.118,352.779 462.298,356.152 476.478,381.111 490.658,237.491 504.838,347.295 519.018,367.212 533.198,395.824 547.378,372.084 561.557,371.133 575.737,210.196 589.917,348.245 604.097,351.565 618.277,377.821 632.457,385.971 646.637,382.957 660.817,392.324 674.997,395.368 689.176,403.562 703.356,383.885 717.536,389.421 731.716,384.923 745.896,397.655 760.076,376.154 774.256,265.526 788.436,372.960 802.616,397.966 816.795,401.732 830.975,400.425 845.155,398.241 859.335,394.033 873.515,400.203 887.695,390.079 901.875,398.219 916.055,401.417 930.235,398.737 944.414,404.853 958.594,401.395 972.774,402.883 986.954,398.951 1001.134,399.122 1015.314,397.194 1029.494,399.564 1043.674,398.090 1057.853,401.511 1072.033,400.836 1086.213,400.176 1100.393,395.129 1114.573,370.970 1128.753,400.826 1142.933,396.994 1157.113,402.755 1171.293,402.390 1185.472,401.011 1199.652,402.267 1213.832,401.873 1228.012,402.837 1242.192,404.050 1256.372,402.243 1270.552,403.797 1284.732,401.498 1298.912,403.341 1313.091,402.390 1327.271,400.962 1341.451,403.795 1355.631,404.515 1369.811,403.373 1383.991,402.873 1398.171,404.601 1412.351,404.521 1426.531,402.298 1440.710,401.839 1454.890,402.667 1469.070,401.171 1483.250,402.472 1497.430,403.209 1511.610,401.707 1525.790,403.625 1539.970,405.107 1554.149,404.084 1568.329,404.639 1582.509,400.984 1596.689,403.375 1610.869,403.002 1625.049,402.744 1639.229,398.548 1653.409,401.941 1667.589,395.057 1681.768,389.018 1695.948,402.303 1710.128,393.820 1724.308,405.280 1738.488,403.827 1752.668,405.210 1766.848,404.616 1781.028,402.659 1795.208,403.232 1809.387,402.198 1823.567,405.710 1837.747,403.124 1851.927,403.317 1866.107,403.730 1880.287,403.624 1894.467,403.449 1908.647,403.426 1922.827,402.868 1937.006,404.110 1951.186,403.744 1965.366,403.949 1979.546,404.639 1993.726,403.764 2007.906,403.902 2022.086,403.077 2036.266,402.871 2050.446,403.385 2064.625,403.990 2078.805,404.559 2092.985,403.663 2107.165,404.119 2121.345,403.595 2135.525,404.105 2149.705,403.516 2163.885,404.225 2178.064,404.532 2192.244,404.365 2206.424,404.448 2220.604,403.991 2234.784,403.422 2248.964,404.104 2263.144,404.364 2277.324,403.332 2291.504,403.332 2305.683,404.637 2319.863,403.918 2334.043,404.394 2348.223,404.213 2362.403,404.626 2376.583,404.047 2390.763,404.538 2404.943,404.188 2419.123,404.415 2433.302,404.864 2447.482,404.936 2461.662,404.181 2475.842,404.652 2490.022,404.580 2504.202,404.218 2518.382,404.275 2532.562,404.352 2546.742,404.253 2560.921,404.320 2575.101,405.063 2589.281,404.472 2603.461,404.420 2617.641,404.728 2631.821,405.303 2646.001,404.328 2660.181,404.095 2674.360,405.140 2688.540,404.209 2702.720,404.921 2716.900,405.017 2731.080,405.592 2745.260,404.857 2759.440,405.269 2773.620,404.625 2787.800,404.974 2801.979,405.073 2816.159,404.176 2830.339,404.230 2844.519,404.997 2858.699,404.025 2872.879,404.904 2887.059,404.686 2901.239,404.623 2915.419,405.281 2929.598,404.641 2943.778,404.359 2957.958,405.024 2972.138,404.789 2986.318,405.268 3000.498,405.035 3014.678,405.269 3028.858,404.726 3043.038,404.850 3057.217,404.562 3071.397,405.116 3085.577,404.819 3099.757,404.746 3113.937,405.087 3128.117,404.736 3142.297,404.969 3156.477,404.925 3170.656,404.995 3184.836,405.154 3199.016,405.238 3213.196,404.925 3227.376,404.987 3241.556,404.776 3255.736,404.988 3269.916,405.152 3284.096,405.140 3298.275,405.164 3312.455,404.725 3326.635,405.530 3340.815,405.160 3354.995,404.980 3369.175,405.191 3383.355,404.379 3397.535,404.469 3411.715,405.007 3425.894,404.751 3440.074,404.806 3454.254,404.905 3468.434,403.817 3482.614,404.856 3496.794,404.870 3510.974,404.404 3525.154,404.749 3539.334,405.190 3553.513,404.684 3567.693,405.087 3581.873,404.946 3596.053,405.186 3610.233,405.023 3624.413,404.914 3638.593,404.967 3652.773,404.711 3666.952,404.138 3681.132,404.657 3695.312,405.367 3709.492,404.973 3723.672,404.875 3737.852,405.182 3752.032,404.621 3766.212,404.994 3780.392,404.733 3794.571,404.721 3808.751,404.982 3822.931,404.890 3837.111,404.948 3851.291,404.792 3865.471,405.058 3879.651,405.251 3893.831,404.797 3908.011,405.037 3922.190,405.291 3936.370,404.995 3950.550,405.176 3964.730,404.951 3978.910,405.020 3993.090,404.937 4007.270,404.731 4021.450,405.333 4035.630,404.762 4049.809,405.099 4063.989,405.137 4078.169,405.191 4092.349,404.836 4106.529,405.185 4120.709,405.238 4134.889,405.044 4149.069,405.206 4163.248,405.327 4177.428,405.214 4191.608,405.211 4205.788,405.108 4219.968,404.951 4234.148,405.005 4248.328,405.027 4262.508,405.263 4276.688,405.476 4290.867,405.324 4305.047,405.097 4319.227,405.010 4333.407,405.230 4347.587,405.117 4361.767,405.379 4375.947,405.269 4390.127,405.146 4404.307,405.207 4418.486,404.939 4432.666,405.253 4446.846,405.093 4461.026,405.067 4475.206,405.053 4489.386,405.166 4503.566,405.279 4517.746,405.405 4531.926,405.128 4546.105,405.276 4560.285,405.469 4574.465,405.518 4588.645,405.266 4602.825,405.171 4617.005,404.998 4631.185,405.226 4645.365,405.069 4659.545,405.322 4673.724,405.395 4687.904,405.463 4702.084,405.373 4716.264,405.225 4730.444,405.258 4744.624,405.321 4758.804,405.157 4772.984,405.314 4787.163,405.048 4801.343,405.262 4815.523,404.977 4829.703,405.044 4843.883,405.211 4858.063,405.251 4872.243,405.202 4886.423,405.119 4900.603,405.087 4914.782,405.360 4928.962,405.174 4943.142,405.421 4957.322,405.267 4971.502,405.027 4985.682,405.193 4999.862,405.203 5014.042,405.255 5028.222,405.293 5042.401,405.385 5056.581,405.092 5070.761,405.315 5084.941,405.304 5099.121,405.218 5113.301,405.400 5127.481,405.266 5141.661,405.266 5155.841,405.256 5170.020,405.065 5184.200,405.087 5198.380,405.298 5212.560,405.307 5226.740,405.261 5240.920,405.275 5255.100,405.262 5269.280,405.277 5283.459,405.379 5297.639,405.447 5311.819,405.427 5325.999,405.300 5340.179,405.217 5354.359,405.180 5368.539,405.195 5382.719,405.224 5396.899,405.450 5411.078,405.126 5425.258,405.350 5439.438,405.185 5453.618,405.193 5467.798,405.293 5481.978,405.255 5496.158,405.282 5510.338,405.147 5524.518,405.345 5538.697,405.182 5552.877,405.176 5567.057,405.340 5581.237,405.332 5595.417,405.329 5609.597,405.390 5623.777,405.374 5637.957,405.258 5652.137,405.351 5666.316,405.478 5680.496,405.309 5694.676,405.336 5708.856,405.298 5723.036,405.285 5737.216,405.332 5751.396,405.342 5765.576,405.328 5779.755,405.271 5793.935,405.143 5808.115,405.451 5822.295,405.388 5836.475,405.330 5850.655,405.182 5864.835,405.392 5879.015,405.391 5893.195,405.306 5907.374,405.268 5921.554,405.320 5935.734,405.375 5949.914,405.376 5964.094,405.373 5978.274,405.327 5992.454,405.124 6006.634,405.430 6020.814,405.306 6034.993,405.423 6049.173,405.344 6063.353,405.293 6077.533,405.160 6091.713,405.360 6105.893,405.377 6120.073,405.420 6134.253,405.244 6148.433,405.375 6162.612,405.327 6176.792,405.340 6190.972,405.353 6205.152,405.417 6219.332,405.443 6233.512,405.382 6247.692,405.449 6261.872,405.383 6276.051,405.389 6290.231,405.382 6304.411,405.338 6318.591,405.409 6332.771,405.352 6346.951,405.321 6361.131,405.451 6375.311,405.388 6389.491,405.400 6403.670,405.374 6417.850,405.400 6432.030,405.299 6446.210,405.289 6460.390,405.339 6474.570,405.373 6488.750,405.295 6502.930,405.341 6517.110,405.359 6531.289,405.429 6545.469,405.327 6559.649,405.373 6573.829,405.340 6588.009,405.401 6602.189,405.367 6616.369,405.330 6630.549,405.424 6644.729,405.208 6658.908,405.612 6673.088,405.284 6687.268,405.329 6701.448,405.400 6715.628,405.308 6729.808,405.378 6743.988,405.425 6758.168,405.378 6772.347,405.395 6786.527,405.404 6800.707,405.480 6814.887,405.252 6829.067,405.474 6843.247,405.398 6857.427,405.393 6871.607,405.370 6885.787,405.326 6899.966,405.448 6914.146,405.346 6928.326,405.421 6942.506,405.557 6956.686,405.463 6970.866,405.396 6985.046,405.346 6999.226,405.387 7013.406,405.329 7027.585,405.403 7041.765,405.441 7055.945,405.326 7070.125,405.341 7084.305,405.413 7098.485,405.423 7112.665,405.382 7126.845,405.396 7141.025,405.384 7155.204,405.407 7169.384,405.357 7183.564,405.377 7197.744,405.403 7211.924,405.405 7226.104,405.435 7240.284,405.476 7254.464,405.262 7268.644,405.445 7282.823,405.424 7297.003,405.559 7311.183,405.375 7325.363,405.497 7339.543,405.496 7353.723,405.411 7367.903,405.471 7382.083,405.448 7396.262,405.373 7410.442,405.466 7424.622,405.354 7438.802,405.449 7452.982,405.337 7467.162,405.486 7481.342,405.492 7495.522,405.472 7509.702,405.431 7523.881,405.413 7538.061,405.313 7552.241,405.442 7566.421,405.465 7580.601,405.414 7594.781,405.477 7608.961,405.448 7623.141,405.443 7637.321,405.303 7651.500,405.493 7665.680,405.400 7679.860,405.404 7694.040,405.474 7708.220,405.353 7722.400,405.435 7736.580,405.331 7750.760,405.398 7764.940,405.428 7779.119,405.401 7793.299,405.395 7807.479,405.368 7821.659,405.403 7835.839,405.373 7850.019,405.475 7864.199,405.417 7878.379,405.367 7892.558,405.431 7906.738,405.457 7920.918,405.503 7935.098,405.459 7949.278,405.382 7963.458,405.451 7977.638,405.419 7991.818,405.397 8005.998,405.435 8020.177,405.539 8034.357,405.459 8048.537,405.462 8062.717,405.458 8076.897,405.353 8091.077,405.419 8105.257,405.378 8119.437,405.440 8133.617,405.528 8147.796,405.386 8161.976,405.454 8176.156,405.311 8190.336,405.482 8204.516,405.463 8218.696,405.483 8232.876,405.428 8247.056,405.471 8261.236,405.544 8275.415,405.507 8289.595,405.460 8303.775,405.492 8317.955,405.366 8332.135,405.463 8346.315,405.456 8360.495,405.422 8374.675,405.314 8388.854,405.371 8403.034,405.442 8417.214,405.458 8431.394,405.431 8445.574,405.518 8459.754,405.410 8473.934,405.500 8488.114,405.444 8502.294,405.507 8516.473,405.459 8530.653,405.463 8544.833,405.497 8559.013,405.462 8573.193,405.568 8587.373,405.539 8601.553,405.547 8615.733,405.517 8629.913,405.493 8644.092,405.445 8658.272,405.464 8672.452,405.551 8686.632,405.603 8700.812,405.502 8714.992,405.443 8729.172,405.461 8743.352,405.402 8757.532,405.429 8771.711,405.553 8785.891,405.506 8800.071,405.464 8814.251,405.479 8828.431,405.488 8842.611,405.477 8856.791,405.516 8870.971,405.516 8885.150,405.664 8899.330,405.441 8913.510,405.470 8927.690,405.489 8941.870,405.441 8956.050,405.551 8970.230,405.385 8984.410,405.440 8998.590,405.516 9012.769,405.479 9026.949,405.484 9041.129,405.496 9055.309,405.472 9069.489,405.433 9083.669,405.470 9097.849,405.475 9112.029,405.397 9126.209,405.549 9140.388,405.484 9154.568,405.551 9168.748,405.506 9182.928,405.478 9197.108,405.428 9211.288,405.487 9225.468,405.566 9239.648,405.447 9253.828,405.471 9268.007,405.518 9282.187,405.498 9296.367,405.504 9310.547,405.466 9324.727,405.450 9338.907,405.457 9353.087,405.399 9367.267,405.449 9381.446,405.494 9395.626,405.491 9409.806,405.454 9423.986,405.458 9438.166,405.505 9452.346,405.372 9466.526,405.540 9480.706,405.381 9494.886,405.485 9509.065,405.508 9523.245,405.446 9537.425,405.431 9551.605,405.411 9565.785,405.416 9579.965,405.495 9594.145,405.556 9608.325,405.570 9622.505,405.403 9636.684,405.489 9650.864,405.416 9665.044,405.621 9679.224,405.478 9693.404,405.517 9707.584,405.526 9721.764,405.424 9735.944,405.429 9750.124,405.493 9764.303,405.485 9778.483,405.455 9792.663,405.517 9806.843,405.507 9821.023,405.510 9835.203,405.466 9849.383,405.491 9863.563,405.531 9877.743,405.542 9891.922,405.447 9906.102,405.487 9920.282,405.500 9934.462,405.551 9948.642,405.548 9962.822,405.467 9977.002,405.556 9991.182,405.485 10005.361,405.529 10019.541,405.612 10033.721,405.504 10047.901,405.529 10062.081,405.456 10076.261,405.502 10090.441,405.461 10104.621,405.581 10118.801,405.506 10132.980,405.544 10147.160,405.595 10161.340,405.516 10175.520,405.473 10189.700,405.462 10203.880,405.516 10218.060,405.546 10232.240,405.576 10246.420,405.593 10260.599,405.578 10274.779,405.498 10288.959,405.605 10303.139,405.486 10317.319,405.531 10331.499,405.486 10345.679,405.471 10359.859,405.458 10374.039,405.463 10388.218,405.481 10402.398,405.420 10416.578,405.430 10430.758,405.512 10444.938,405.479 10459.118,405.480 10473.298,405.490 10487.478,405.457 10501.657,405.494 10515.837,405.477 10530.017,405.501 10544.197,405.473 10558.377,405.529 10572.557,405.561 10586.737,405.599 10600.917,405.567 10615.097,405.472 10629.276,405.575 10643.456,405.588 10657.636,405.510 10671.816,405.547 10685.996,405.540 10700.176,405.506 10714.356,405.471 10728.536,405.537 10742.716,405.507 10756.895,405.482 10771.075,405.421 10785.255,405.524 10799.435,405.628 10813.615,405.544 10827.795,405.526 10841.975,405.561 10856.155,405.521 10870.335,405.542 10884.514,405.501 10898.694,405.538 10912.874,405.534 10927.054,405.501 10941.234,405.554 10955.414,405.531 10969.594,405.560 10983.774,405.482 10997.953,405.519 11012.133,405.505 11026.313,405.546 11040.493,405.502 11054.673,405.501 11068.853,405.423 11083.033,405.531 11097.213,405.557 11111.393,405.533 11125.572,405.601 11139.752,405.511 11153.932,405.450 11168.112,405.536 11182.292,405.653 11196.472,405.522 11210.652,405.529 11224.832,405.569 11239.012,405.490 11253.191,405.504 11267.371,405.571 11281.551,405.525 11295.731,405.540 11309.911,405.389 11324.091,405.455 11338.271,405.467 11352.451,405.563 11366.631,405.520 11380.810,405.476 11394.990,405.523 11409.170,405.553 11423.350,405.578 11437.530,405.464 11451.710,405.520 11465.890,405.561 11480.070,405.516 11494.249,405.481 11508.429,405.503 11522.609,405.498 11536.789,405.555 11550.969,405.558 11565.149,405.495 11579.329,405.389 11593.509,405.542 11607.689,405.591 11621.868,405.498 11636.048,405.502 11650.228,405.451 11664.408,405.567 11678.588,405.536 11692.768,405.593 11706.948,405.538 11721.128,405.445 11735.308,405.569 11749.487,405.500 11763.667,405.570 11777.847,405.509 11792.027,405.496 11806.207,405.516 11820.387,405.576 11834.567,405.596 11848.747,405.447 11862.927,405.508 11877.106,405.511 11891.286,405.512 11905.466,405.590 11919.646,405.512 11933.826,405.603 11948.006,405.519 11962.186,405.528 11976.366,405.524 11990.545,405.594 12004.725,405.517 12018.905,405.566 12033.085,405.454 12047.265,405.564 12061.445,405.528 12075.625,405.604 12089.805,405.515 12103.985,405.578 12118.164,405.509 12132.344,405.567 12146.524,405.459 12160.704,405.522 12174.884,405.489 12189.064,405.582 12203.244,405.589 12217.424,405.649 12231.604,405.502 12245.783,405.608 12259.963,405.554 12274.143,405.618 12288.323,405.494 12302.503,405.604 12316.683,405.525 12330.863,405.591 12345.043,405.600 12359.223,405.605 12373.402,405.574 12387.582,405.520 12401.762,405.568 12415.942,405.546 12430.122,405.587 12444.302,405.481 12458.482,405.588 12472.662,405.550 12486.842,405.633 12501.021,405.545 12515.201,405.566 12529.381,405.644 12543.561,405.580 12557.741,405.616 12571.921,405.571 12586.101,405.463 12600.281,405.552 12614.460,405.534 12628.640,405.623 12642.820,405.573 12657.000,405.571 12671.180,405.597 12685.360,405.611 12699.540,405.555 12713.720,405.541 12727.900,405.572 12742.079,405.584 12756.259,405.615 12770.439,405.596 12784.619,405.429 12798.799,405.534 12812.979,405.645 12827.159,405.606 12841.339,405.586 12855.519,405.523 12869.698,405.633 12883.878,405.612 12898.058,405.581 12912.238,405.628 12926.418,405.633 12940.598,405.478 12954.778,405.548 12968.958,405.587 12983.138,405.472 12997.317,405.633 13011.497,405.560 13025.677,405.520 13039.857,405.429 13054.037,405.526 13068.217,405.529 13082.397,405.595 13096.577,405.553 13110.756,405.563 13124.936,405.504 13139.116,405.487 13153.296,405.557 13167.476,405.580 13181.656,405.634 13195.836,405.639 13210.016,405.558 13224.196,405.478 13238.375,405.480 13252.555,405.477 13266.735,405.460 13280.915,405.506 13295.095,405.499 13309.275,405.562 13323.455,405.538 13337.635,405.517 13351.815,405.452 13365.994,405.517 13380.174,405.592 13394.354,405.561 13408.534,405.517 13422.714,405.516 13436.894,405.537 13451.074,405.609 13465.254,405.605 13479.434,405.561 13493.613,405.540 13507.793,405.555 13521.973,405.584 13536.153,405.565 13550.333,405.585 13564.513,405.496 13578.693,405.567 13592.873,405.484 13607.052,405.530 13621.232,405.615 13635.412,405.509 13649.592,405.569 13663.772,405.499 13677.952,405.605 13692.132,405.635 13706.312,405.538 13720.492,405.464 13734.671,405.547 13748.851,405.552 13763.031,405.632 13777.211,405.555 13791.391,405.631 13805.571,405.621 13819.751,405.540 13833.931,405.576 13848.111,405.563 13862.290,405.652 13876.470,405.506 13890.650,405.630 13904.830,405.537 13919.010,405.487 13933.190,405.488 13947.370,405.558 13961.550,405.533 13975.730,405.580 13989.909,405.677 14004.089,405.597 14018.269,405.530 14032.449,405.534 14046.629,405.585 14060.809,405.567 14074.989,405.576 14089.169,405.565 14103.348,405.544 14117.528,405.608 14131.708,405.517 14145.888,405.531 14160.068,405.604 14174.248,405.576 14188.428,405.614 14202.608,405.610 14216.788,405.494 14230.967,405.536 14245.147,405.525 14259.327,405.469 14273.507,405.674 14287.687,405.611 14301.867,405.566 14316.047,405.540 14330.227,405.629 14344.407,405.571 14358.586,405.590 14372.766,405.601 14386.946,405.512 14401.126,405.630 14415.306,405.553 14429.486,405.526 14443.666,405.589 14457.846,405.517 14472.026,405.587 14486.205,405.457 14500.385,405.617 14514.565,405.470 14528.745,405.523 14542.925,405.596 14557.105,405.646 14571.285,405.583 14585.465,405.536 14599.644,405.598 14613.824,405.552 14628.004,405.624 14642.184,405.566 14656.364,405.552 14670.544,405.506 14684.724,405.451 14698.904,405.500 14713.084,405.494 14727.263,405.582 14741.443,405.528 14755.623,405.597 14769.803,405.643 14783.983,405.584 14798.163,405.509 14812.343,405.580 14826.523,405.523 14840.703,405.531 14854.882,405.546 14869.062,405.567 14883.242,405.569 14897.422,405.497 14911.602,405.675 14925.782,405.582 14939.962,405.643 14954.142,405.603 14968.322,405.588 14982.501,405.554 14996.681,405.554 15010.861,405.538 15025.041,405.689 15039.221,405.443 15053.401,405.503 15067.581,405.526 15081.761,405.574 15095.940,405.574 15110.120,405.625 15124.300,405.528 15138.480,405.620 15152.660,405.572 15166.840,405.575 15181.020,405.505 15195.200,405.708 15209.380,405.490 15223.559,405.489 15237.739,405.574 15251.919,405.562 15266.099,405.565 15280.279,405.542 15294.459,405.619 15308.639,405.611 15322.819,405.597 15336.999,405.631 15351.178,405.644 15365.358,405.570 15379.538,405.503 15393.718,405.657 15407.898,405.513 15422.078,405.522 15436.258,405.588 15450.438,405.566 15464.618,405.587 15478.797,405.657 15492.977,405.577 15507.157,405.585 15521.337,405.569 15535.517,405.676 15549.697,405.588 15563.877,405.741 15578.057,405.690 15592.237,405.587 15606.416,405.563 15620.596,405.430 15634.776,405.609 15648.956,405.542 15663.136,405.640 15677.316,405.644 15691.496,405.591 15705.676,405.642 15719.855,405.594 15734.035,405.702 15748.215,405.698 15762.395,405.651 15776.575,405.586 15790.755,405.623 15804.935,405.587 15819.115,405.658 15833.295,405.646 15847.474,405.655 15861.654,405.549 15875.834,405.568 15890.014,405.614 15904.194,405.530 15918.374,405.486 15932.554,405.561 15946.734,405.667 15960.914,405.546 15975.093,405.573 15989.273,405.549 16003.453,405.568 16017.633,405.641 16031.813,405.531 16045.993,405.635 16060.173,405.577 16074.353,405.613 16088.533,405.658 16102.712,405.647 16116.892,405.574 16131.072,405.595 16145.252,405.561 16159.432,405.515 16173.612,405.560 16187.792,405.618 16201.972,405.580 16216.151,405.720 16230.331,405.568 16244.511,405.509 16258.691,405.576 16272.871,405.542 16287.051,405.703 16301.231,405.596 16315.411,405.590 16329.591,405.526 16343.770,405.589 16357.950,405.640 16372.130,405.606 16386.310,405.529 16400.490,405.526 16414.670,405.611 16428.850,405.597 16443.030,405.546 16457.210,405.562 16471.389,405.577 16485.569,405.513 16499.749,405.582 16513.929,405.530 16528.109,405.637 16542.289,405.617 16556.469,405.562 16570.649,405.552 16584.829,405.517 16599.008,405.478 16613.188,405.513 16627.368,405.665 16641.548,405.691 16655.728,405.678 16669.908,405.627 16684.088,405.510 16698.268,405.549 16712.447,405.664 16726.627,405.610 16740.807,405.643 16754.987,405.583 16769.167,405.563 16783.347,405.534 16797.527,405.611 16811.707,405.626 16825.887,405.595 16840.066,405.517 16854.246,405.576 16868.426,405.576 16882.606,405.614 16896.786,405.626 16910.966,405.589 16925.146,405.638 16939.326,405.699 16953.506,405.607 16967.685,405.552 16981.865,405.505 16996.045,405.565 17010.225,405.591 17024.405,405.599 17038.585,405.603 17052.765,405.610 17066.945,405.577 17081.125,405.598 17095.304,405.583 17109.484,405.633 17123.664,405.561 17137.844,405.617 17152.024,405.591 17166.204,405.622 17180.384,405.596 17194.564,405.562 17208.743,405.597 17222.923,405.623 17237.103,405.579 17251.283,405.582 17265.463,405.635 17279.643,405.658 17293.823,405.609 17308.003,405.579 17322.183,405.571 17336.362,405.596 17350.542,405.669 17364.722,405.636 17378.902,405.505 17393.082,405.561 17407.262,405.562 17421.442,405.670 17435.622,405.650 17449.802,405.611 17463.981,405.533 17478.161,405.584 17492.341,405.599 17506.521,405.697 17520.701,405.588 17534.881,405.622 17549.061,405.590 17563.241,405.547 17577.421,405.568 17591.600,405.586 17605.780,405.530 17619.960,405.510 17634.140,405.572 17648.320,405.645 17662.500,405.543 17676.680,405.648 17690.860,405.564 17705.039,405.582 17719.219,405.563 17733.399,405.614 17747.579,405.615 17761.759,405.593 17775.939,405.563 17790.119,405.562 17804.299,405.558 17818.479,405.558 17832.658,405.550 17846.838,405.667 17861.018,405.650 17875.198,405.636 17889.378,405.677 17903.558,405.573 17917.738,405.616 17931.918,405.611 17946.098,405.565 17960.277,405.634 17974.457,405.634 17988.637,405.522 18002.817,405.622 18016.997,405.629 18031.177,405.668 18045.357,405.665 18059.537,405.627 18073.717,405.632 18087.896,405.608 18102.076,405.616 18116.256,405.543 18130.436,405.640 18144.616,405.550 18158.796,405.553 18172.976,405.651 18187.156,405.649 18201.336,405.585 18215.515,405.697 18229.695,405.575 18243.875,405.681 18258.055,405.619 18272.235,405.638 18286.415,405.648 18300.595,405.701 18314.775,405.595 18328.954,405.666 18343.134,405.542 18357.314,405.507 "/>
<g>
</g>
</g>
<g id="ID000003" >
</g>
<g id="ID000004" >
</g>
<g id="ID000005" >
</g>
<g id="ID000006" >
</g>
<g id="ID000007" >
</g>
<g id="ID000008" clip-path="url(#ID000001)" >
<g id="ID000009" >
<rect x="201.630" y="298.184" width="69.958" height="35.885" fill="#ffffee" stroke="#cccccc" stroke-width="0.5pt" stroke-dasharray="none" />
  <g transform="translate(207.100,314.344)">
    <g transform="rotate(-0.0)">
      <text x="0.000" y="0.000" font-family="Helvetica" text-anchor="start" font-size="8pt" fill="#000000" >X: 0.04002</text>
    </g>
  </g>
  <g transform="translate(207.100,326.344)">
    <g transform="rotate(-0.0)">
      <text x="0.000" y="0.000" font-family="Helvetica" text-anchor="start" font-size="8pt" fill="#000000" >Y: 51.48</text>
    </g>
  </g>
</g>
<g id="ID000010" >
<g>
      <polygon fill="#000000" fill-opacity="1.00" stroke="#ffffdc" stroke-width="2.0pt" stroke-opacity="1.00" stroke-dasharray="none" points="271.293,330.595 271.293,343.928 284.626,343.928 284.626,330.595 271.293,330.595 "/>
</g>
</g>
</g><g id="ID000011" clip-path="url(#ID000001)" >
<g id="ID000012" >
<rect x="323.548" y="294.201" width="63.962" height="35.885" fill="#ffffee" stroke="#cccccc" stroke-width="0.5pt" stroke-dasharray="none" />
  <g transform="translate(329.100,307.817)">
    <g transform="rotate(-0.0)">
      <text x="0.000" y="0.000" font-family="Helvetica" text-anchor="start" font-size="8pt" fill="#000000" >X: 0.1001</text>
    </g>
  </g>
  <g transform="translate(329.100,319.817)">
    <g transform="rotate(-0.0)">
      <text x="0.000" y="0.000" font-family="Helvetica" text-anchor="start" font-size="8pt" fill="#000000" >Y: 88.33</text>
    </g>
  </g>
</g>
<g id="ID000013" >
<g>
      <polygon fill="#000000" fill-opacity="1.00" stroke="#ffffdc" stroke-width="2.0pt" stroke-opacity="1.00" stroke-dasharray="none" points="313.833,281.566 313.833,294.899 327.166,294.899 327.166,281.566 313.833,281.566 "/>
</g>
</g>
</g><g id="ID000014" clip-path="url(#ID000001)" >
<g id="ID000015" >
<rect x="352.528" y="241.417" width="63.962" height="35.885" fill="#ffffee" stroke="#cccccc" stroke-width="0.5pt" stroke-dasharray="none" />
  <g transform="translate(358.100,257.407)">
    <g transform="rotate(-0.0)">
      <text x="0.000" y="0.000" font-family="Helvetica" text-anchor="start" font-size="8pt" fill="#000000" >X: 0.1401</text>
    </g>
  </g>
  <g transform="translate(358.100,269.407)">
    <g transform="rotate(-0.0)">
      <text x="0.000" y="0.000" font-family="Helvetica" text-anchor="start" font-size="8pt" fill="#000000" >Y: 94.25</text>
    </g>
  </g>
</g>
<g id="ID000016" >
<g>
      <polygon fill="#000000" fill-opacity="1.00" stroke="#ffffdc" stroke-width="2.0pt" stroke-opacity="1.00" stroke-dasharray="none" points="342.193,273.687 342.193,287.020 355.526,287.020 355.526,273.687 342.193,273.687 "/>
</g>
</g>
</g><g id="ID000017" clip-path="url(#ID000001)" >
<g id="ID000018" >
<rect x="408.491" y="310.135" width="63.962" height="35.885" fill="#ffffee" stroke="#cccccc" stroke-width="0.5pt" stroke-dasharray="none" />
  <g transform="translate(414.100,323.799)">
    <g transform="rotate(-0.0)">
      <text x="0.000" y="0.000" font-family="Helvetica" text-anchor="start" font-size="8pt" fill="#000000" >X: 0.2201</text>
    </g>
  </g>
  <g transform="translate(414.100,335.799)">
    <g transform="rotate(-0.0)">
      <text x="0.000" y="0.000" font-family="Helvetica" text-anchor="start" font-size="8pt" fill="#000000" >Y: 76.1</text>
    </g>
  </g>
</g>
<g id="ID000019" >
<g>
      <polygon fill="#000000" fill-opacity="1.00" stroke="#ffffdc" stroke-width="2.0pt" stroke-opacity="1.00" stroke-dasharray="none" points="398.912,297.842 398.912,311.176 412.245,311.176 412.245,297.842 398.912,297.842 "/>
</g>
</g>
</g><g id="ID000020" clip-path="url(#ID000001)" >
<g id="ID000021" >
<rect x="494.433" y="243.409" width="63.962" height="35.885" fill="#ffffee" stroke="#cccccc" stroke-width="0.5pt" stroke-dasharray="none" />
  <g transform="translate(500.100,256.873)">
    <g transform="rotate(-0.0)">
      <text x="0.000" y="0.000" font-family="Helvetica" text-anchor="start" font-size="8pt" fill="#000000" >X: 0.3402</text>
    </g>
  </g>
  <g transform="translate(500.100,268.873)">
    <g transform="rotate(-0.0)">
      <text x="0.000" y="0.000" font-family="Helvetica" text-anchor="start" font-size="8pt" fill="#000000" >Y: 126.5</text>
    </g>
  </g>
</g>
<g id="ID000022" >
<g>
      <polygon fill="#000000" fill-opacity="1.00" stroke="#ffffdc" stroke-width="2.0pt" stroke-opacity="1.00" stroke-dasharray="none" points="483.991,230.825 483.991,244.158 497.325,244.158 497.325,230.825 483.991,230.825 "/>
</g>
</g>
</g><g id="ID000023" clip-path="url(#ID000001)" >
<g id="ID000024" >
<rect x="579.376" y="216.520" width="63.962" height="35.885" fill="#ffffee" stroke="#cccccc" stroke-width="0.5pt" stroke-dasharray="none" />
  <g transform="translate(585.100,229.903)">
    <g transform="rotate(-0.0)">
      <text x="0.000" y="0.000" font-family="Helvetica" text-anchor="start" font-size="8pt" fill="#000000" >X: 0.4603</text>
    </g>
  </g>
  <g transform="translate(585.100,241.903)">
    <g transform="rotate(-0.0)">
      <text x="0.000" y="0.000" font-family="Helvetica" text-anchor="start" font-size="8pt" fill="#000000" >Y: 147</text>
    </g>
  </g>
</g>
<g id="ID000025" >
<g>
      <polygon fill="#000000" fill-opacity="1.00" stroke="#ffffdc" stroke-width="2.0pt" stroke-opacity="1.00" stroke-dasharray="none" points="569.071,203.529 569.071,216.862 582.404,216.862 582.404,203.529 569.071,203.529 "/>
</g>
</g>
</g><g id="ID000026" clip-path="url(#ID000001)" >
<g id="ID000027" >
<rect x="777.243" y="271.295" width="63.962" height="35.885" fill="#ffffee" stroke="#cccccc" stroke-width="0.5pt" stroke-dasharray="none" />
  <g transform="translate(783.100,284.842)">
    <g transform="rotate(-0.0)">
      <text x="0.000" y="0.000" font-family="Helvetica" text-anchor="start" font-size="8pt" fill="#000000" >X: 0.7404</text>
    </g>
  </g>
  <g transform="translate(783.100,296.842)">
    <g transform="rotate(-0.0)">
      <text x="0.000" y="0.000" font-family="Helvetica" text-anchor="start" font-size="8pt" fill="#000000" >Y: 105.4</text>
    </g>
  </g>
</g>
<g id="ID000028" >
<g>
      <polygon fill="#000000" fill-opacity="1.00" stroke="#ffffdc" stroke-width="2.0pt" stroke-opacity="1.00" stroke-dasharray="none" points="767.589,258.859 767.589,272.192 780.922,272.192 780.922,258.859 767.589,258.859 "/>
</g>
</g>
</g><g id="ID000029" clip-path="url(#ID000001)" >
<g id="ID000030" >
<rect x="1117.014" y="332.045" width="57.966" height="35.885" fill="#ffffee" stroke="#cccccc" stroke-width="0.5pt" stroke-dasharray="none" />
  <g transform="translate(1123.100,348.307)">
    <g transform="rotate(-0.0)">
      <text x="0.000" y="0.000" font-family="Helvetica" text-anchor="start" font-size="8pt" fill="#000000" >X: 1.221</text>
    </g>
  </g>
  <g transform="translate(1123.100,360.307)">
    <g transform="rotate(-0.0)">
      <text x="0.000" y="0.000" font-family="Helvetica" text-anchor="start" font-size="8pt" fill="#000000" >Y: 26.15</text>
    </g>
  </g>
</g>
<g id="ID000031" >
<g>
      <polygon fill="#000000" fill-opacity="1.00" stroke="#ffffdc" stroke-width="2.0pt" stroke-opacity="1.00" stroke-dasharray="none" points="1107.906,364.304 1107.906,377.637 1121.240,377.637 1121.240,364.304 1107.906,364.304 "/>
</g>
</g>
</g><g id="ID000032" clip-path="url(#ID000001)" >
<g id="ID000033" >
<rect x="1616.679" y="349.971" width="57.966" height="35.885" fill="#ffffee" stroke="#cccccc" stroke-width="0.5pt" stroke-dasharray="none" />
  <g transform="translate(1623.100,366.287)">
    <g transform="rotate(-0.0)">
      <text x="0.000" y="0.000" font-family="Helvetica" text-anchor="start" font-size="8pt" fill="#000000" >X: 2.021</text>
    </g>
  </g>
  <g transform="translate(1623.100,378.287)">
    <g transform="rotate(-0.0)">
      <text x="0.000" y="0.000" font-family="Helvetica" text-anchor="start" font-size="8pt" fill="#000000" >Y: 12.58</text>
    </g>
  </g>
</g>
<g id="ID000034" >
<g>
      <polygon fill="#000000" fill-opacity="1.00" stroke="#ffffdc" stroke-width="2.0pt" stroke-opacity="1.00" stroke-dasharray="none" points="1675.102,382.351 1675.102,395.685 1688.435,395.685 1688.435,382.351 1675.102,382.351 "/>
</g>
</g>
</g><g id="ID000035" clip-path="url(#ID000001)" >
<g id="ID000036" >
<rect x="295.566" y="264.323" width="69.958" height="35.885" fill="#ffffee" stroke="#cccccc" stroke-width="0.5pt" stroke-dasharray="none" />
  <g transform="translate(301.100,280.381)">
    <g transform="rotate(-0.0)">
      <text x="0.000" y="0.000" font-family="Helvetica" text-anchor="start" font-size="8pt" fill="#000000" >X: 0.06004</text>
    </g>
  </g>
  <g transform="translate(301.100,292.381)">
    <g transform="rotate(-0.0)">
      <text x="0.000" y="0.000" font-family="Helvetica" text-anchor="start" font-size="8pt" fill="#000000" >Y: 77.07</text>
    </g>
  </g>
</g>
<g id="ID000037" >
<g>
      <polygon fill="#000000" fill-opacity="1.00" stroke="#ffffdc" stroke-width="2.0pt" stroke-opacity="1.00" stroke-dasharray="none" points="285.473,296.549 285.473,309.883 298.806,309.883 298.806,296.549 285.473,296.549 "/>
</g>
</g>
</g>    </g>
    <g>
      <polyline fill="none" stroke="#000000" stroke-width="0.5pt" stroke-dasharray="none" points="391.314,405.759 391.314,390.879 "/>
      <polyline fill="none" stroke="#000000" stroke-width="0.5pt" stroke-dasharray="none" points="533.029,405.759 533.029,390.879 "/>
      <polyline fill="none" stroke="#000000" stroke-width="0.5pt" stroke-dasharray="none" points="674.743,405.759 674.743,390.879 "/>
      <polyline fill="none" stroke="#000000" stroke-width="0.5pt" stroke-dasharray="none" points="816.457,405.759 816.457,390.879 "/>
      <polyline fill="none" stroke="#000000" stroke-width="0.5pt" stroke-dasharray="none" points="958.171,405.759 958.171,390.879 "/>
      <polyline fill="none" stroke="#000000" stroke-width="0.5pt" stroke-dasharray="none" points="1099.886,405.759 1099.886,390.879 "/>
      <polyline fill="none" stroke="#000000" stroke-width="0.5pt" stroke-dasharray="none" points="1241.600,405.759 1241.600,390.879 "/>
      <polyline fill="none" stroke="#000000" stroke-width="0.5pt" stroke-dasharray="none" points="1383.314,405.759 1383.314,390.879 "/>
      <polyline fill="none" stroke="#000000" stroke-width="0.5pt" stroke-dasharray="none" points="1525.029,405.759 1525.029,390.879 "/>
      <polyline fill="none" stroke="#000000" stroke-width="0.5pt" stroke-dasharray="none" points="1666.743,405.759 1666.743,390.879 "/>
      <polyline fill="none" stroke="#000000" stroke-width="0.5pt" stroke-dasharray="none" points="249.600,405.759 1737.600,405.759 "/>
      <polyline fill="none" stroke="#000000" stroke-width="0.5pt" stroke-dasharray="none" points="391.314,73.125 391.314,88.005 "/>
      <polyline fill="none" stroke="#000000" stroke-width="0.5pt" stroke-dasharray="none" points="533.029,73.125 533.029,88.005 "/>
      <polyline fill="none" stroke="#000000" stroke-width="0.5pt" stroke-dasharray="none" points="674.743,73.125 674.743,88.005 "/>
      <polyline fill="none" stroke="#000000" stroke-width="0.5pt" stroke-dasharray="none" points="816.457,73.125 816.457,88.005 "/>
      <polyline fill="none" stroke="#000000" stroke-width="0.5pt" stroke-dasharray="none" points="958.171,73.125 958.171,88.005 "/>
      <polyline fill="none" stroke="#000000" stroke-width="0.5pt" stroke-dasharray="none" points="1099.886,73.125 1099.886,88.005 "/>
      <polyline fill="none" stroke="#000000" stroke-width="0.5pt" stroke-dasharray="none" points="1241.600,73.125 1241.600,88.005 "/>
      <polyline fill="none" stroke="#000000" stroke-width="0.5pt" stroke-dasharray="none" points="1383.314,73.125 1383.314,88.005 "/>
      <polyline fill="none" stroke="#000000" stroke-width="0.5pt" stroke-dasharray="none" points="1525.029,73.125 1525.029,88.005 "/>
      <polyline fill="none" stroke="#000000" stroke-width="0.5pt" stroke-dasharray="none" points="1666.743,73.125 1666.743,88.005 "/>
      <polyline fill="none" stroke="#000000" stroke-width="0.5pt" stroke-dasharray="none" points="249.600,73.125 1737.600,73.125 "/>
  <g transform="translate(249.600,424.211)">
    <g transform="rotate(-0.0)">
      <text x="0.000" y="0.000" font-family="Helvetica" text-anchor="middle" font-size="10pt" fill="#000000" >0</text>
    </g>
  </g>
  <g transform="translate(391.314,424.211)">
    <g transform="rotate(-0.0)">
      <text x="0.000" y="0.000" font-family="Helvetica" text-anchor="middle" font-size="10pt" fill="#000000" >0.2</text>
    </g>
  </g>
  <g transform="translate(533.029,424.211)">
    <g transform="rotate(-0.0)">
      <text x="0.000" y="0.000" font-family="Helvetica" text-anchor="middle" font-size="10pt" fill="#000000" >0.4</text>
    </g>
  </g>
  <g transform="translate(674.743,424.211)">
    <g transform="rotate(-0.0)">
      <text x="0.000" y="0.000" font-family="Helvetica" text-anchor="middle" font-size="10pt" fill="#000000" >0.6</text>
    </g>
  </g>
  <g transform="translate(816.457,424.211)">
    <g transform="rotate(-0.0)">
      <text x="0.000" y="0.000" font-family="Helvetica" text-anchor="middle" font-size="10pt" fill="#000000" >0.8</text>
    </g>
  </g>
  <g transform="translate(958.171,424.211)">
    <g transform="rotate(-0.0)">
      <text x="0.000" y="0.000" font-family="Helvetica" text-anchor="middle" font-size="10pt" fill="#000000" >1</text>
    </g>
  </g>
  <g transform="translate(1099.886,424.211)">
    <g transform="rotate(-0.0)">
      <text x="0.000" y="0.000" font-family="Helvetica" text-anchor="middle" font-size="10pt" fill="#000000" >1.2</text>
    </g>
  </g>
  <g transform="translate(1241.600,424.211)">
    <g transform="rotate(-0.0)">
      <text x="0.000" y="0.000" font-family="Helvetica" text-anchor="middle" font-size="10pt" fill="#000000" >1.4</text>
    </g>
  </g>
  <g transform="translate(1383.314,424.211)">
    <g transform="rotate(-0.0)">
      <text x="0.000" y="0.000" font-family="Helvetica" text-anchor="middle" font-size="10pt" fill="#000000" >1.6</text>
    </g>
  </g>
  <g transform="translate(1525.029,424.211)">
    <g transform="rotate(-0.0)">
      <text x="0.000" y="0.000" font-family="Helvetica" text-anchor="middle" font-size="10pt" fill="#000000" >1.8</text>
    </g>
  </g>
  <g transform="translate(1666.743,424.211)">
    <g transform="rotate(-0.0)">
      <text x="0.000" y="0.000" font-family="Helvetica" text-anchor="middle" font-size="10pt" fill="#000000" >2</text>
    </g>
  </g>
      <polyline fill="none" stroke="#000000" stroke-width="0.5pt" stroke-dasharray="none" points="249.600,339.232 264.480,339.232 "/>
      <polyline fill="none" stroke="#000000" stroke-width="0.5pt" stroke-dasharray="none" points="249.600,272.705 264.480,272.705 "/>
      <polyline fill="none" stroke="#000000" stroke-width="0.5pt" stroke-dasharray="none" points="249.600,206.178 264.480,206.178 "/>
      <polyline fill="none" stroke="#000000" stroke-width="0.5pt" stroke-dasharray="none" points="249.600,139.652 264.480,139.652 "/>
      <polyline fill="none" stroke="#000000" stroke-width="0.5pt" stroke-dasharray="none" points="249.600,405.759 249.600,73.125 "/>
      <polyline fill="none" stroke="#000000" stroke-width="0.5pt" stroke-dasharray="none" points="1737.600,339.232 1722.720,339.232 "/>
      <polyline fill="none" stroke="#000000" stroke-width="0.5pt" stroke-dasharray="none" points="1737.600,272.705 1722.720,272.705 "/>
      <polyline fill="none" stroke="#000000" stroke-width="0.5pt" stroke-dasharray="none" points="1737.600,206.178 1722.720,206.178 "/>
      <polyline fill="none" stroke="#000000" stroke-width="0.5pt" stroke-dasharray="none" points="1737.600,139.652 1722.720,139.652 "/>
      <polyline fill="none" stroke="#000000" stroke-width="0.5pt" stroke-dasharray="none" points="1737.600,405.759 1737.600,73.125 "/>
  <g transform="translate(219.840,410.259)">
    <g transform="rotate(-0.0)">
      <text x="0.000" y="0.000" font-family="Helvetica" text-anchor="end" font-size="10pt" fill="#000000" >0</text>
    </g>
  </g>
  <g transform="translate(219.840,343.732)">
    <g transform="rotate(-0.0)">
      <text x="0.000" y="0.000" font-family="Helvetica" text-anchor="end" font-size="10pt" fill="#000000" >50</text>
    </g>
  </g>
  <g transform="translate(219.840,277.205)">
    <g transform="rotate(-0.0)">
      <text x="0.000" y="0.000" font-family="Helvetica" text-anchor="end" font-size="10pt" fill="#000000" >100</text>
    </g>
  </g>
  <g transform="translate(219.840,210.678)">
    <g transform="rotate(-0.0)">
      <text x="0.000" y="0.000" font-family="Helvetica" text-anchor="end" font-size="10pt" fill="#000000" >150</text>
    </g>
  </g>
  <g transform="translate(219.840,144.152)">
    <g transform="rotate(-0.0)">
      <text x="0.000" y="0.000" font-family="Helvetica" text-anchor="end" font-size="10pt" fill="#000000" >200</text>
    </g>
  </g>
  <g transform="translate(219.840,77.625)">
    <g transform="rotate(-0.0)">
      <text x="0.000" y="0.000" font-family="Helvetica" text-anchor="end" font-size="10pt" fill="#000000" >250</text>
    </g>
  </g>
      <polyline fill="none" stroke="#000000" stroke-width="0.5pt" stroke-dasharray="none" points="249.600,405.759 249.600,402.432 "/>
      <polyline fill="none" stroke="#000000" stroke-width="0.5pt" stroke-dasharray="none" points="249.600,405.759 249.600,402.432 "/>
      <polyline fill="none" stroke="#000000" stroke-width="0.5pt" stroke-dasharray="none" points="249.600,405.759 249.600,405.759 "/>
    </g>
  </g>
  <g id ="ID000038">
  <clipPath id="ID000039">
    <rect x="249.600" y="535.116" width="1488.000" height="332.634"/>
  </clipPath>
      <polygon fill="#ffffff" fill-opacity="1.00" stroke="none" stroke-width="0.5pt" stroke-opacity="1.00" stroke-dasharray="none" points="249.600,867.750 1737.600,867.750 1737.600,535.116 249.600,535.116 "/>
      <polygon fill="#ffffff" fill-opacity="1.00" stroke="none" stroke-width="0.5pt" stroke-opacity="1.00" stroke-dasharray="none" points="249.600,535.116 1737.600,535.116 1737.600,535.116 249.600,535.116 "/>
      <polygon fill="#ffffff" fill-opacity="1.00" stroke="none" stroke-width="0.5pt" stroke-opacity="1.00" stroke-dasharray="none" points="249.600,867.750 249.600,867.750 249.600,535.116 249.600,535.116 "/>
    <g>
<g id="ID000040" clip-path="url(#ID000039)" >
      <polyline fill="none" stroke="#0000ff" stroke-width="0.5pt" stroke-dasharray="none" points="249.600,856.691 263.780,861.706 277.960,865.875 292.140,862.232 306.320,855.513 320.499,862.949 334.679,858.934 348.859,854.546 363.039,855.795 377.219,864.918 391.399,861.497 405.579,844.466 419.759,863.746 433.939,856.004 448.118,848.674 462.298,849.250 476.478,863.035 490.658,795.442 504.838,837.564 519.018,846.868 533.198,863.692 547.378,851.202 561.557,845.853 575.737,716.663 589.917,812.443 604.097,824.904 618.277,832.797 632.457,847.958 646.637,834.062 660.817,860.306 674.997,852.771 689.176,859.159 703.356,827.499 717.536,848.555 731.716,824.393 745.896,854.555 760.076,801.899 774.256,572.323 788.436,801.574 802.616,841.846 816.795,855.201 830.975,855.682 845.155,845.100 859.335,838.110 873.515,854.054 887.695,830.756 901.875,856.250 916.055,855.743 930.235,840.767 944.414,851.914 958.594,860.787 972.774,863.523 986.954,848.168 1001.134,854.725 1015.314,838.091 1029.494,854.109 1043.674,841.224 1057.853,855.988 1072.033,853.132 1086.213,845.719 1100.393,815.028 1114.573,694.647 1128.753,826.634 1142.933,826.271 1157.113,856.303 1171.293,864.473 1185.472,852.389 1199.652,854.956 1213.832,857.843 1228.012,856.757 1242.192,855.285 1256.372,845.370 1270.552,861.726 1284.732,850.741 1298.912,856.770 1313.091,841.534 1327.271,849.474 1341.451,857.624 1355.631,847.500 1369.811,850.301 1383.991,850.488 1398.171,853.698 1412.351,854.419 1426.531,840.245 1440.710,836.618 1454.890,852.139 1469.070,838.782 1483.250,851.088 1497.430,841.555 1511.610,819.634 1525.790,866.081 1539.970,853.281 1554.149,861.916 1568.329,861.718 1582.509,822.808 1596.689,852.166 1610.869,860.107 1625.049,834.395 1639.229,790.629 1653.409,822.011 1667.589,714.715 1681.768,638.925 1695.948,801.431 1710.128,724.288 1724.308,856.177 1738.488,848.859 1752.668,846.303 1766.848,856.055 1781.028,831.422 1795.208,841.307 1809.387,839.170 1823.567,849.815 1837.747,812.788 1851.927,840.710 1866.107,846.799 1880.287,851.175 1894.467,858.742 1908.647,848.117 1922.827,843.803 1937.006,847.291 1951.186,848.974 1965.366,859.193 1979.546,857.506 1993.726,857.048 2007.906,856.026 2022.086,843.050 2036.266,846.883 2050.446,846.191 2064.625,856.865 2078.805,848.159 2092.985,855.975 2107.165,858.034 2121.345,850.021 2135.525,855.438 2149.705,858.523 2163.885,858.500 2178.064,861.320 2192.244,864.883 2206.424,854.214 2220.604,854.018 2234.784,853.491 2248.964,863.204 2263.144,864.720 2277.324,846.889 2291.504,846.236 2305.683,866.275 2319.863,858.957 2334.043,858.909 2348.223,859.507 2362.403,865.398 2376.583,855.139 2390.763,863.937 2404.943,858.574 2419.123,863.905 2433.302,864.629 2447.482,860.037 2461.662,865.073 2475.842,863.322 2490.022,861.524 2504.202,860.660 2518.382,862.452 2532.562,859.965 2546.742,858.975 2560.921,863.591 2575.101,860.806 2589.281,857.586 2603.461,863.980 2617.641,859.997 2631.821,866.316 2646.001,865.391 2660.181,862.967 2674.360,862.994 2688.540,864.060 2702.720,864.658 2716.900,863.883 2731.080,859.460 2745.260,865.708 2759.440,863.766 2773.620,863.115 2787.800,865.775 2801.979,862.644 2816.159,865.641 2830.339,862.056 2844.519,861.351 2858.699,866.893 2872.879,864.514 2887.059,860.796 2901.239,865.335 2915.419,862.132 2929.598,862.489 2943.778,863.846 2957.958,865.266 2972.138,865.698 2986.318,865.862 3000.498,864.574 3014.678,865.356 3028.858,866.158 3043.038,865.254 3057.217,864.645 3071.397,865.023 3085.577,863.775 3099.757,863.305 3113.937,864.909 3128.117,860.714 3142.297,866.812 3156.477,865.298 3170.656,863.101 3184.836,865.547 3199.016,864.797 3213.196,864.072 3227.376,865.992 3241.556,861.545 3255.736,864.614 3269.916,865.338 3284.096,866.866 3298.275,865.888 3312.455,864.387 3326.635,864.723 3340.815,865.989 3354.995,864.996 3369.175,866.549 3383.355,866.189 3397.535,863.377 3411.715,866.451 3425.894,866.032 3440.074,865.415 3454.254,864.983 3468.434,866.943 3482.614,864.931 3496.794,864.864 3510.974,866.561 3525.154,863.641 3539.334,863.845 3553.513,866.757 3567.693,865.324 3581.873,866.227 3596.053,866.900 3610.233,865.794 3624.413,865.945 3638.593,867.142 3652.773,865.570 3666.952,866.083 3681.132,864.072 3695.312,864.286 3709.492,865.218 3723.672,866.683 3737.852,862.970 3752.032,863.355 3766.212,866.136 3780.392,864.636 3794.571,865.703 3808.751,864.304 3822.931,865.076 3837.111,866.173 3851.291,863.550 3865.471,865.857 3879.651,864.285 3893.831,864.920 3908.011,864.465 3922.190,866.503 3936.370,865.689 3950.550,866.008 3964.730,863.031 3978.910,865.079 3993.090,864.147 4007.270,864.763 4021.450,866.217 4035.630,863.888 4049.809,865.827 4063.989,866.273 4078.169,866.286 4092.349,866.704 4106.529,867.536 4120.709,865.250 4134.889,865.513 4149.069,867.089 4163.248,866.512 4177.428,866.578 4191.608,867.160 4205.788,866.624 4219.968,866.281 4234.148,866.222 4248.328,865.425 4262.508,867.104 4276.688,867.611 4290.867,866.883 4305.047,866.397 4319.227,864.837 4333.407,866.069 4347.587,865.372 4361.767,865.605 4375.947,866.908 4390.127,865.466 4404.307,867.448 4418.486,865.306 4432.666,866.250 4446.846,866.308 4461.026,865.519 4475.206,865.517 4489.386,865.013 4503.566,866.978 4517.746,865.946 4531.926,863.966 4546.105,866.596 4560.285,865.406 4574.465,864.111 4588.645,866.969 4602.825,863.866 4617.005,864.396 4631.185,866.431 4645.365,864.503 4659.545,862.750 4673.724,865.266 4687.904,865.118 4702.084,865.248 4716.264,866.467 4730.444,865.560 4744.624,866.949 4758.804,866.812 4772.984,866.663 4787.163,865.554 4801.343,865.803 4815.523,864.964 4829.703,864.693 4843.883,865.718 4858.063,866.904 4872.243,866.616 4886.423,865.728 4900.603,866.838 4914.782,867.594 4928.962,866.896 4943.142,866.888 4957.322,866.332 4971.502,866.983 4985.682,866.391 4999.862,867.027 5014.042,867.132 5028.222,867.603 5042.401,865.401 5056.581,865.877 5070.761,867.033 5084.941,867.434 5099.121,866.873 5113.301,866.486 5127.481,866.545 5141.661,866.716 5155.841,866.094 5170.020,865.287 5184.200,866.191 5198.380,867.258 5212.560,865.684 5226.740,865.520 5240.920,867.571 5255.100,866.315 5269.280,866.420 5283.459,867.403 5297.639,867.515 5311.819,866.971 5325.999,867.497 5340.179,867.226 5354.359,867.375 5368.539,866.585 5382.719,866.351 5396.899,867.132 5411.078,866.675 5425.258,866.831 5439.438,866.833 5453.618,866.447 5467.798,866.977 5481.978,866.463 5496.158,866.552 5510.338,866.902 5524.518,866.948 5538.697,867.079 5552.877,865.891 5567.057,867.052 5581.237,867.516 5595.417,867.049 5609.597,866.565 5623.777,867.210 5637.957,866.198 5652.137,866.711 5666.316,867.033 5680.496,866.674 5694.676,867.319 5708.856,867.010 5723.036,866.421 5737.216,866.931 5751.396,866.913 5765.576,867.165 5779.755,866.220 5793.935,866.167 5808.115,866.522 5822.295,866.461 5836.475,866.958 5850.655,866.786 5864.835,867.341 5879.015,867.293 5893.195,867.100 5907.374,867.238 5921.554,866.662 5935.734,867.396 5949.914,866.855 5964.094,866.863 5978.274,867.514 5992.454,866.528 6006.634,867.170 6020.814,866.140 6034.993,867.578 6049.173,867.012 6063.353,867.444 6077.533,866.608 6091.713,867.116 6105.893,867.174 6120.073,866.778 6134.253,866.891 6148.433,866.788 6162.612,867.268 6176.792,866.912 6190.972,866.324 6205.152,866.961 6219.332,867.112 6233.512,867.180 6247.692,867.579 6261.872,866.845 6276.051,866.965 6290.231,867.095 6304.411,867.029 6318.591,867.270 6332.771,866.548 6346.951,867.214 6361.131,866.942 6375.311,867.185 6389.491,867.655 6403.670,867.548 6417.850,867.224 6432.030,866.370 6446.210,866.894 6460.390,867.679 6474.570,867.145 6488.750,867.068 6502.930,866.588 6517.110,866.938 6531.289,867.591 6545.469,867.180 6559.649,867.451 6573.829,866.766 6588.009,867.566 6602.189,867.460 6616.369,867.136 6630.549,867.146 6644.729,866.695 6658.908,867.711 6673.088,867.176 6687.268,866.980 6701.448,866.842 6715.628,866.130 6729.808,867.209 6743.988,867.276 6758.168,866.808 6772.347,866.974 6786.527,866.967 6800.707,866.938 6814.887,866.934 6829.067,867.178 6843.247,867.103 6857.427,866.558 6871.607,866.996 6885.787,867.261 6899.966,866.902 6914.146,866.961 6928.326,866.971 6942.506,867.497 6956.686,867.070 6970.866,867.579 6985.046,867.445 6999.226,866.719 7013.406,866.449 7027.585,867.084 7041.765,867.064 7055.945,867.334 7070.125,867.075 7084.305,867.192 7098.485,867.314 7112.665,867.205 7126.845,867.094 7141.025,866.636 7155.204,866.547 7169.384,867.449 7183.564,867.198 7197.744,867.462 7211.924,866.871 7226.104,867.422 7240.284,867.401 7254.464,867.231 7268.644,867.274 7282.823,867.603 7297.003,867.192 7311.183,866.358 7325.363,867.345 7339.543,867.325 7353.723,867.067 7367.903,867.222 7382.083,867.212 7396.262,867.576 7410.442,867.318 7424.622,867.083 7438.802,867.283 7452.982,867.467 7467.162,867.640 7481.342,867.423 7495.522,866.902 7509.702,867.119 7523.881,867.493 7538.061,866.827 7552.241,867.627 7566.421,867.032 7580.601,866.973 7594.781,867.437 7608.961,867.569 7623.141,867.229 7637.321,866.439 7651.500,867.109 7665.680,866.496 7679.860,867.320 7694.040,866.962 7708.220,867.168 7722.400,867.047 7736.580,867.090 7750.760,867.308 7764.940,866.918 7779.119,866.951 7793.299,867.476 7807.479,867.045 7821.659,866.964 7835.839,866.685 7850.019,867.085 7864.199,867.076 7878.379,866.856 7892.558,867.025 7906.738,867.023 7920.918,867.244 7935.098,867.064 7949.278,866.952 7963.458,867.563 7977.638,866.701 7991.818,867.475 8005.998,867.280 8020.177,867.442 8034.357,867.427 8048.537,867.203 8062.717,867.170 8076.897,867.013 8091.077,867.277 8105.257,867.091 8119.437,867.301 8133.617,867.496 8147.796,867.219 8161.976,867.531 8176.156,867.271 8190.336,867.186 8204.516,867.239 8218.696,867.702 8232.876,867.248 8247.056,867.225 8261.236,867.597 8275.415,867.007 8289.595,867.463 8303.775,867.129 8317.955,867.202 8332.135,867.047 8346.315,867.354 8360.495,867.605 8374.675,866.875 8388.854,866.931 8403.034,866.827 8417.214,866.960 8431.394,867.111 8445.574,867.658 8459.754,867.531 8473.934,867.360 8488.114,867.404 8502.294,867.254 8516.473,867.601 8530.653,867.418 8544.833,866.879 8559.013,867.379 8573.193,867.339 8587.373,867.697 8601.553,867.390 8615.733,867.293 8629.913,867.331 8644.092,867.441 8658.272,867.346 8672.452,867.019 8686.632,866.980 8700.812,867.437 8714.992,867.283 8729.172,867.614 8743.352,866.958 8757.532,866.802 8771.711,867.206 8785.891,867.396 8800.071,867.642 8814.251,867.435 8828.431,867.087 8842.611,867.196 8856.791,867.521 8870.971,867.468 8885.150,867.257 8899.330,867.550 8913.510,867.223 8927.690,867.602 8941.870,867.530 8956.050,867.086 8970.230,866.578 8984.410,867.280 8998.590,867.531 9012.769,867.161 9026.949,867.435 9041.129,867.092 9055.309,867.231 9069.489,867.228 9083.669,867.328 9097.849,867.459 9112.029,866.959 9126.209,867.315 9140.388,867.358 9154.568,867.554 9168.748,866.962 9182.928,866.934 9197.108,867.056 9211.288,866.966 9225.468,867.406 9239.648,867.219 9253.828,867.232 9268.007,867.691 9282.187,867.497 9296.367,867.244 9310.547,867.074 9324.727,867.147 9338.907,867.210 9353.087,866.910 9367.267,867.697 9381.446,867.104 9395.626,867.010 9409.806,867.223 9423.986,867.552 9438.166,867.422 9452.346,867.480 9466.526,867.373 9480.706,866.997 9494.886,867.181 9509.065,867.425 9523.245,866.865 9537.425,867.439 9551.605,867.234 9565.785,867.283 9579.965,867.012 9594.145,867.402 9608.325,867.343 9622.505,867.085 9636.684,867.414 9650.864,867.232 9665.044,867.520 9679.224,866.901 9693.404,867.374 9707.584,867.517 9721.764,866.831 9735.944,866.955 9750.124,867.064 9764.303,867.415 9778.483,866.775 9792.663,867.409 9806.843,867.304 9821.023,867.084 9835.203,867.428 9849.383,867.269 9863.563,867.130 9877.743,867.307 9891.922,867.173 9906.102,867.723 9920.282,866.973 9934.462,867.481 9948.642,867.573 9962.822,867.269 9977.002,867.598 9991.182,867.285 10005.361,867.351 10019.541,867.547 10033.721,867.428 10047.901,867.062 10062.081,867.462 10076.261,866.983 10090.441,867.661 10104.621,867.424 10118.801,867.425 10132.980,867.622 10147.160,867.455 10161.340,867.662 10175.520,867.147 10189.700,867.045 10203.880,866.989 10218.060,867.383 10232.240,867.324 10246.420,867.579 10260.599,867.589 10274.779,867.276 10288.959,867.396 10303.139,867.082 10317.319,867.598 10331.499,867.232 10345.679,867.561 10359.859,867.256 10374.039,866.826 10388.218,867.285 10402.398,867.304 10416.578,867.033 10430.758,867.419 10444.938,867.190 10459.118,867.182 10473.298,867.577 10487.478,867.536 10501.657,867.314 10515.837,867.160 10530.017,867.263 10544.197,867.269 10558.377,867.329 10572.557,867.267 10586.737,867.016 10600.917,867.679 10615.097,867.256 10629.276,867.503 10643.456,867.630 10657.636,867.202 10671.816,867.350 10685.996,867.474 10700.176,867.625 10714.356,867.211 10728.536,867.268 10742.716,867.337 10756.895,867.500 10771.075,867.457 10785.255,867.212 10799.435,867.478 10813.615,867.269 10827.795,867.323 10841.975,867.324 10856.155,867.339 10870.335,867.235 10884.514,867.165 10898.694,867.284 10912.874,867.634 10927.054,867.430 10941.234,867.699 10955.414,867.540 10969.594,867.366 10983.774,867.441 10997.953,867.058 11012.133,867.353 11026.313,867.525 11040.493,867.347 11054.673,867.617 11068.853,867.324 11083.033,867.376 11097.213,867.297 11111.393,867.282 11125.572,867.500 11139.752,867.517 11153.932,867.246 11168.112,867.440 11182.292,867.519 11196.472,867.270 11210.652,867.070 11224.832,867.279 11239.012,867.035 11253.191,867.353 11267.371,867.590 11281.551,867.558 11295.731,867.236 11309.911,866.620 11324.091,867.339 11338.271,867.047 11352.451,867.628 11366.631,867.201 11380.810,867.524 11394.990,867.417 11409.170,867.345 11423.350,867.430 11437.530,867.490 11451.710,867.396 11465.890,867.537 11480.070,867.558 11494.249,867.236 11508.429,867.279 11522.609,867.549 11536.789,867.551 11550.969,867.722 11565.149,867.328 11579.329,867.057 11593.509,867.518 11607.689,867.335 11621.868,867.451 11636.048,867.475 11650.228,867.105 11664.408,867.639 11678.588,867.519 11692.768,867.323 11706.948,867.290 11721.128,866.968 11735.308,867.417 11749.487,867.159 11763.667,867.527 11777.847,867.297 11792.027,867.195 11806.207,867.496 11820.387,867.419 11834.567,867.525 11848.747,866.842 11862.927,867.313 11877.106,867.560 11891.286,867.339 11905.466,867.386 11919.646,867.224 11933.826,867.534 11948.006,867.416 11962.186,867.513 11976.366,867.614 11990.545,867.231 12004.725,867.488 12018.905,867.205 12033.085,867.303 12047.265,867.427 12061.445,867.215 12075.625,867.379 12089.805,866.921 12103.985,867.118 12118.164,867.396 12132.344,867.624 12146.524,867.186 12160.704,867.087 12174.884,867.240 12189.064,867.580 12203.244,867.583 12217.424,867.518 12231.604,867.501 12245.783,867.448 12259.963,867.425 12274.143,867.146 12288.323,867.334 12302.503,867.596 12316.683,867.165 12330.863,867.225 12345.043,867.371 12359.223,867.502 12373.402,867.494 12387.582,867.449 12401.762,867.513 12415.942,867.357 12430.122,867.477 12444.302,867.060 12458.482,867.199 12472.662,867.563 12486.842,867.589 12501.021,867.574 12515.201,867.392 12529.381,867.632 12543.561,867.363 12557.741,867.580 12571.921,867.451 12586.101,867.564 12600.281,867.443 12614.460,867.428 12628.640,867.405 12642.820,867.328 12657.000,867.301 12671.180,867.489 12685.360,867.649 12699.540,867.542 12713.720,867.086 12727.900,867.111 12742.079,867.515 12756.259,867.477 12770.439,867.519 12784.619,866.972 12798.799,866.838 12812.979,867.109 12827.159,867.480 12841.339,867.457 12855.519,867.333 12869.698,867.421 12883.878,867.488 12898.058,867.006 12912.238,867.542 12926.418,867.669 12940.598,867.113 12954.778,867.603 12968.958,867.112 12983.138,867.296 12997.317,867.310 13011.497,867.616 13025.677,867.148 13039.857,866.777 13054.037,867.279 13068.217,867.558 13082.397,867.293 13096.577,867.275 13110.756,867.155 13124.936,867.589 13139.116,867.422 13153.296,867.116 13167.476,867.174 13181.656,867.389 13195.836,867.494 13210.016,867.590 13224.196,866.872 13238.375,867.096 13252.555,867.103 13266.735,867.184 13280.915,867.042 13295.095,867.662 13309.275,867.532 13323.455,867.408 13337.635,867.222 13351.815,867.684 13365.994,867.436 13380.174,867.165 13394.354,867.358 13408.534,866.980 13422.714,867.154 13436.894,867.296 13451.074,867.518 13465.254,867.539 13479.434,867.621 13493.613,867.319 13507.793,867.415 13521.973,867.298 13536.153,867.481 13550.333,867.195 13564.513,866.983 13578.693,867.149 13592.873,867.498 13607.052,867.514 13621.232,867.311 13635.412,867.681 13649.592,867.393 13663.772,867.157 13677.952,867.325 13692.132,867.598 13706.312,867.069 13720.492,867.188 13734.671,867.322 13748.851,867.331 13763.031,867.653 13777.211,867.457 13791.391,867.528 13805.571,867.508 13819.751,867.179 13833.931,866.965 13848.111,867.078 13862.290,867.251 13876.470,867.392 13890.650,867.407 13904.830,867.272 13919.010,866.928 13933.190,867.162 13947.370,867.415 13961.550,867.078 13975.730,867.589 13989.909,867.525 14004.089,867.587 14018.269,867.144 14032.449,867.174 14046.629,867.478 14060.809,867.455 14074.989,867.254 14089.169,867.519 14103.348,867.591 14117.528,867.566 14131.708,867.264 14145.888,867.647 14160.068,867.440 14174.248,867.412 14188.428,867.573 14202.608,867.381 14216.788,867.345 14230.967,867.408 14245.147,867.388 14259.327,867.273 14273.507,867.497 14287.687,867.173 14301.867,867.254 14316.047,867.528 14330.227,867.388 14344.407,867.401 14358.586,867.403 14372.766,867.593 14386.946,867.251 14401.126,867.667 14415.306,867.429 14429.486,867.224 14443.666,867.591 14457.846,867.577 14472.026,867.357 14486.205,867.199 14500.385,867.431 14514.565,867.357 14528.745,867.227 14542.925,867.421 14557.105,867.513 14571.285,867.483 14585.465,867.326 14599.644,867.683 14613.824,867.067 14628.004,867.588 14642.184,867.426 14656.364,867.587 14670.544,867.280 14684.724,866.998 14698.904,867.181 14713.084,867.385 14727.263,867.391 14741.443,866.874 14755.623,867.619 14769.803,867.367 14783.983,867.317 14798.163,867.155 14812.343,867.486 14826.523,867.489 14840.703,867.235 14854.882,867.374 14869.062,867.561 14883.242,867.311 14897.422,867.604 14911.602,867.545 14925.782,867.137 14939.962,867.465 14954.142,867.543 14968.322,867.537 14982.501,867.130 14996.681,867.403 15010.861,867.275 15025.041,867.641 15039.221,867.305 15053.401,866.749 15067.581,867.300 15081.761,866.945 15095.940,867.647 15110.120,866.952 15124.300,867.217 15138.480,867.408 15152.660,867.429 15166.840,867.472 15181.020,867.429 15195.200,867.619 15209.380,866.989 15223.559,866.957 15237.739,867.710 15251.919,867.589 15266.099,867.481 15280.279,867.214 15294.459,867.486 15308.639,867.358 15322.819,867.632 15336.999,867.641 15351.178,867.483 15365.358,867.218 15379.538,867.213 15393.718,867.540 15407.898,867.230 15422.078,867.384 15436.258,867.478 15450.438,867.261 15464.618,867.232 15478.797,867.519 15492.977,867.508 15507.157,867.458 15521.337,867.630 15535.517,867.663 15549.697,867.334 15563.877,867.156 15578.057,867.404 15592.237,867.112 15606.416,867.547 15620.596,867.260 15634.776,867.536 15648.956,867.297 15663.136,867.204 15677.316,867.255 15691.496,867.456 15705.676,867.658 15719.855,867.604 15734.035,867.237 15748.215,867.629 15762.395,867.441 15776.575,867.424 15790.755,867.476 15804.935,867.408 15819.115,867.279 15833.295,867.573 15847.474,867.188 15861.654,867.504 15875.834,867.160 15890.014,867.569 15904.194,866.780 15918.374,866.652 15932.554,867.105 15946.734,867.226 15960.914,867.188 15975.093,867.452 15989.273,867.347 16003.453,867.641 16017.633,867.408 16031.813,866.813 16045.993,867.060 16060.173,867.400 16074.353,867.313 16088.533,867.490 16102.712,867.254 16116.892,867.522 16131.072,867.273 16145.252,867.210 16159.432,867.414 16173.612,867.146 16187.792,867.430 16201.972,867.362 16216.151,867.699 16230.331,867.306 16244.511,867.154 16258.691,867.500 16272.871,867.153 16287.051,867.194 16301.231,867.374 16315.411,866.981 16329.591,867.245 16343.770,867.553 16357.950,867.483 16372.130,867.473 16386.310,867.007 16400.490,867.233 16414.670,867.493 16428.850,867.664 16443.030,866.826 16457.210,867.162 16471.389,867.258 16485.569,867.339 16499.749,867.667 16513.929,867.577 16528.109,867.313 16542.289,867.440 16556.469,867.282 16570.649,867.250 16584.829,867.662 16599.008,866.850 16613.188,866.851 16627.368,867.585 16641.548,867.573 16655.728,867.365 16669.908,867.682 16684.088,867.328 16698.268,867.553 16712.447,867.554 16726.627,867.520 16740.807,867.632 16754.987,867.635 16769.167,867.122 16783.347,866.716 16797.527,867.523 16811.707,867.507 16825.887,867.379 16840.066,866.910 16854.246,866.981 16868.426,867.400 16882.606,867.579 16896.786,867.385 16910.966,866.979 16925.146,867.508 16939.326,867.398 16953.506,867.321 16967.685,867.231 16981.865,867.434 16996.045,867.301 17010.225,867.575 17024.405,867.535 17038.585,867.340 17052.765,867.585 17066.945,867.629 17081.125,867.480 17095.304,867.239 17109.484,867.557 17123.664,867.509 17137.844,867.404 17152.024,867.509 17166.204,867.446 17180.384,867.094 17194.564,867.185 17208.743,867.181 17222.923,867.183 17237.103,867.687 17251.283,867.461 17265.463,867.477 17279.643,867.693 17293.823,867.399 17308.003,867.126 17322.183,867.002 17336.362,867.502 17350.542,867.560 17364.722,867.619 17378.902,867.200 17393.082,867.426 17407.262,867.314 17421.442,867.651 17435.622,867.412 17449.802,867.205 17463.981,867.396 17478.161,867.605 17492.341,867.583 17506.521,867.366 17520.701,867.366 17534.881,867.526 17549.061,867.499 17563.241,867.473 17577.421,867.709 17591.600,867.457 17605.780,867.206 17619.960,867.050 17634.140,867.131 17648.320,867.580 17662.500,867.335 17676.680,867.500 17690.860,867.569 17705.039,867.621 17719.219,867.403 17733.399,867.326 17747.579,867.058 17761.759,867.316 17775.939,867.373 17790.119,867.256 17804.299,867.448 17818.479,867.355 17832.658,867.181 17846.838,867.573 17861.018,867.536 17875.198,867.512 17889.378,867.450 17903.558,867.379 17917.738,867.509 17931.918,867.534 17946.098,867.546 17960.277,867.548 17974.457,867.407 17988.637,867.307 18002.817,867.577 18016.997,867.558 18031.177,867.536 18045.357,867.229 18059.537,867.354 18073.717,867.584 18087.896,867.371 18102.076,867.539 18116.256,867.476 18130.436,867.550 18144.616,867.524 18158.796,867.472 18172.976,867.613 18187.156,867.302 18201.336,867.267 18215.515,867.503 18229.695,867.496 18243.875,867.610 18258.055,867.279 18272.235,867.726 18286.415,867.265 18300.595,867.627 18314.775,867.520 18328.954,867.633 18343.134,867.401 18357.314,867.231 "/>
<g>
</g>
</g>
<g id="ID000041" >
</g>
<g id="ID000042" >
</g>
<g id="ID000043" >
</g>
<g id="ID000044" >
</g>
<g id="ID000045" >
</g>
<g id="ID000046" clip-path="url(#ID000039)" >
<g id="ID000047" >
<rect x="229.611" y="860.762" width="69.958" height="35.885" fill="#ffffee" stroke="#cccccc" stroke-width="0.5pt" stroke-dasharray="none" />
  <g transform="translate(235.100,874.693)">
    <g transform="rotate(-0.0)">
      <text x="0.000" y="0.000" font-family="Helvetica" text-anchor="start" font-size="8pt" fill="#000000" >X: 0.08005</text>
    </g>
  </g>
  <g transform="translate(235.100,886.693)">
    <g transform="rotate(-0.0)">
      <text x="0.000" y="0.000" font-family="Helvetica" text-anchor="start" font-size="8pt" fill="#000000" >Y: 9.197</text>
    </g>
  </g>
</g>
<g id="ID000048" >
<g>
      <polygon fill="#000000" fill-opacity="1.00" stroke="#ffffdc" stroke-width="2.0pt" stroke-opacity="1.00" stroke-dasharray="none" points="299.653,848.846 299.653,862.180 312.986,862.180 312.986,848.846 299.653,848.846 "/>
</g>
</g>
</g><g id="ID000049" clip-path="url(#ID000039)" >
<g id="ID000050" >
<rect x="215.620" y="822.918" width="69.958" height="35.885" fill="#ffffee" stroke="#cccccc" stroke-width="0.5pt" stroke-dasharray="none" />
  <g transform="translate(221.100,839.266)">
    <g transform="rotate(-0.0)">
      <text x="0.000" y="0.000" font-family="Helvetica" text-anchor="start" font-size="8pt" fill="#000000" >X: 0.06004</text>
    </g>
  </g>
  <g transform="translate(221.100,851.266)">
    <g transform="rotate(-0.0)">
      <text x="0.000" y="0.000" font-family="Helvetica" text-anchor="start" font-size="8pt" fill="#000000" >Y: 4.147</text>
    </g>
  </g>
</g>
<g id="ID000051" >
<g>
      <polygon fill="#000000" fill-opacity="1.00" stroke="#ffffdc" stroke-width="2.0pt" stroke-opacity="1.00" stroke-dasharray="none" points="285.473,855.565 285.473,868.898 298.806,868.898 298.806,855.565 285.473,855.565 "/>
</g>
</g>
</g><g id="ID000052" clip-path="url(#ID000039)" >
<g id="ID000053" >
<rect x="278.578" y="814.950" width="63.962" height="35.885" fill="#ffffee" stroke="#cccccc" stroke-width="0.5pt" stroke-dasharray="none" />
  <g transform="translate(284.100,831.275)">
    <g transform="rotate(-0.0)">
      <text x="0.000" y="0.000" font-family="Helvetica" text-anchor="start" font-size="8pt" fill="#000000" >X: 0.1401</text>
    </g>
  </g>
  <g transform="translate(284.100,843.275)">
    <g transform="rotate(-0.0)">
      <text x="0.000" y="0.000" font-family="Helvetica" text-anchor="start" font-size="8pt" fill="#000000" >Y: 9.924</text>
    </g>
  </g>
</g>
<g id="ID000054" >
<g>
      <polygon fill="#000000" fill-opacity="1.00" stroke="#ffffdc" stroke-width="2.0pt" stroke-opacity="1.00" stroke-dasharray="none" points="342.193,847.879 342.193,861.213 355.526,861.213 355.526,847.879 342.193,847.879 "/>
</g>
</g>
</g><g id="ID000055" clip-path="url(#ID000039)" >
<g id="ID000056" >
<rect x="408.491" y="804.991" width="63.962" height="35.885" fill="#ffffee" stroke="#cccccc" stroke-width="0.5pt" stroke-dasharray="none" />
  <g transform="translate(414.100,821.286)">
    <g transform="rotate(-0.0)">
      <text x="0.000" y="0.000" font-family="Helvetica" text-anchor="start" font-size="8pt" fill="#000000" >X: 0.2201</text>
    </g>
  </g>
  <g transform="translate(414.100,833.286)">
    <g transform="rotate(-0.0)">
      <text x="0.000" y="0.000" font-family="Helvetica" text-anchor="start" font-size="8pt" fill="#000000" >Y: 17.5</text>
    </g>
  </g>
</g>
<g id="ID000057" >
<g>
      <polygon fill="#000000" fill-opacity="1.00" stroke="#ffffdc" stroke-width="2.0pt" stroke-opacity="1.00" stroke-dasharray="none" points="398.912,837.800 398.912,851.133 412.245,851.133 412.245,837.800 398.912,837.800 "/>
</g>
</g>
</g><g id="ID000058" clip-path="url(#ID000039)" >
<g id="ID000059" >
<rect x="494.433" y="756.192" width="63.962" height="35.885" fill="#ffffee" stroke="#cccccc" stroke-width="0.5pt" stroke-dasharray="none" />
  <g transform="translate(500.100,772.340)">
    <g transform="rotate(-0.0)">
      <text x="0.000" y="0.000" font-family="Helvetica" text-anchor="start" font-size="8pt" fill="#000000" >X: 0.3402</text>
    </g>
  </g>
  <g transform="translate(500.100,784.340)">
    <g transform="rotate(-0.0)">
      <text x="0.000" y="0.000" font-family="Helvetica" text-anchor="start" font-size="8pt" fill="#000000" >Y: 54.34</text>
    </g>
  </g>
</g>
<g id="ID000060" >
<g>
      <polygon fill="#000000" fill-opacity="1.00" stroke="#ffffdc" stroke-width="2.0pt" stroke-opacity="1.00" stroke-dasharray="none" points="483.991,788.776 483.991,802.109 497.325,802.109 497.325,788.776 483.991,788.776 "/>
</g>
</g>
</g><g id="ID000061" clip-path="url(#ID000039)" >
<g id="ID000062" >
<rect x="579.376" y="722.331" width="63.962" height="35.885" fill="#ffffee" stroke="#cccccc" stroke-width="0.5pt" stroke-dasharray="none" />
  <g transform="translate(585.100,735.846)">
    <g transform="rotate(-0.0)">
      <text x="0.000" y="0.000" font-family="Helvetica" text-anchor="start" font-size="8pt" fill="#000000" >X: 0.4603</text>
    </g>
  </g>
  <g transform="translate(585.100,747.846)">
    <g transform="rotate(-0.0)">
      <text x="0.000" y="0.000" font-family="Helvetica" text-anchor="start" font-size="8pt" fill="#000000" >Y: 113.6</text>
    </g>
  </g>
</g>
<g id="ID000063" >
<g>
      <polygon fill="#000000" fill-opacity="1.00" stroke="#ffffdc" stroke-width="2.0pt" stroke-opacity="1.00" stroke-dasharray="none" points="569.071,709.996 569.071,723.330 582.404,723.330 582.404,709.996 569.071,709.996 "/>
</g>
</g>
</g><g id="ID000064" clip-path="url(#ID000039)" >
<g id="ID000065" >
<rect x="777.243" y="578.920" width="63.962" height="35.885" fill="#ffffee" stroke="#cccccc" stroke-width="0.5pt" stroke-dasharray="none" />
  <g transform="translate(783.100,592.004)">
    <g transform="rotate(-0.0)">
      <text x="0.000" y="0.000" font-family="Helvetica" text-anchor="start" font-size="8pt" fill="#000000" >X: 0.7404</text>
    </g>
  </g>
  <g transform="translate(783.100,604.004)">
    <g transform="rotate(-0.0)">
      <text x="0.000" y="0.000" font-family="Helvetica" text-anchor="start" font-size="8pt" fill="#000000" >Y: 222</text>
    </g>
  </g>
</g>
<g id="ID000066" >
<g>
      <polygon fill="#000000" fill-opacity="1.00" stroke="#ffffdc" stroke-width="2.0pt" stroke-opacity="1.00" stroke-dasharray="none" points="767.589,565.656 767.589,578.990 780.922,578.990 780.922,565.656 767.589,565.656 "/>
</g>
</g>
</g><g id="ID000067" clip-path="url(#ID000039)" >
<g id="ID000068" >
<rect x="1117.014" y="700.421" width="57.966" height="35.885" fill="#ffffee" stroke="#cccccc" stroke-width="0.5pt" stroke-dasharray="none" />
  <g transform="translate(1123.100,713.870)">
    <g transform="rotate(-0.0)">
      <text x="0.000" y="0.000" font-family="Helvetica" text-anchor="start" font-size="8pt" fill="#000000" >X: 1.221</text>
    </g>
  </g>
  <g transform="translate(1123.100,725.870)">
    <g transform="rotate(-0.0)">
      <text x="0.000" y="0.000" font-family="Helvetica" text-anchor="start" font-size="8pt" fill="#000000" >Y: 130.1</text>
    </g>
  </g>
</g>
<g id="ID000069" >
<g>
      <polygon fill="#000000" fill-opacity="1.00" stroke="#ffffdc" stroke-width="2.0pt" stroke-opacity="1.00" stroke-dasharray="none" points="1107.906,687.980 1107.906,701.313 1121.240,701.313 1121.240,687.980 1107.906,687.980 "/>
</g>
</g>
</g><g id="ID000070" clip-path="url(#ID000039)" >
<g id="ID000071" >
<rect x="1616.679" y="644.650" width="57.966" height="35.885" fill="#ffffee" stroke="#cccccc" stroke-width="0.5pt" stroke-dasharray="none" />
  <g transform="translate(1623.100,657.931)">
    <g transform="rotate(-0.0)">
      <text x="0.000" y="0.000" font-family="Helvetica" text-anchor="start" font-size="8pt" fill="#000000" >X: 2.021</text>
    </g>
  </g>
  <g transform="translate(1623.100,669.931)">
    <g transform="rotate(-0.0)">
      <text x="0.000" y="0.000" font-family="Helvetica" text-anchor="start" font-size="8pt" fill="#000000" >Y: 172</text>
    </g>
  </g>
</g>
<g id="ID000072" >
<g>
      <polygon fill="#000000" fill-opacity="1.00" stroke="#ffffdc" stroke-width="2.0pt" stroke-opacity="1.00" stroke-dasharray="none" points="1675.102,632.259 1675.102,645.592 1688.435,645.592 1688.435,632.259 1675.102,632.259 "/>
</g>
</g>
</g>    </g>
    <g>
      <polyline fill="none" stroke="#000000" stroke-width="0.5pt" stroke-dasharray="none" points="391.314,867.750 391.314,852.870 "/>
      <polyline fill="none" stroke="#000000" stroke-width="0.5pt" stroke-dasharray="none" points="533.029,867.750 533.029,852.870 "/>
      <polyline fill="none" stroke="#000000" stroke-width="0.5pt" stroke-dasharray="none" points="674.743,867.750 674.743,852.870 "/>
      <polyline fill="none" stroke="#000000" stroke-width="0.5pt" stroke-dasharray="none" points="816.457,867.750 816.457,852.870 "/>
      <polyline fill="none" stroke="#000000" stroke-width="0.5pt" stroke-dasharray="none" points="958.171,867.750 958.171,852.870 "/>
      <polyline fill="none" stroke="#000000" stroke-width="0.5pt" stroke-dasharray="none" points="1099.886,867.750 1099.886,852.870 "/>
      <polyline fill="none" stroke="#000000" stroke-width="0.5pt" stroke-dasharray="none" points="1241.600,867.750 1241.600,852.870 "/>
      <polyline fill="none" stroke="#000000" stroke-width="0.5pt" stroke-dasharray="none" points="1383.314,867.750 1383.314,852.870 "/>
      <polyline fill="none" stroke="#000000" stroke-width="0.5pt" stroke-dasharray="none" points="1525.029,867.750 1525.029,852.870 "/>
      <polyline fill="none" stroke="#000000" stroke-width="0.5pt" stroke-dasharray="none" points="1666.743,867.750 1666.743,852.870 "/>
      <polyline fill="none" stroke="#000000" stroke-width="0.5pt" stroke-dasharray="none" points="249.600,867.750 1737.600,867.750 "/>
      <polyline fill="none" stroke="#000000" stroke-width="0.5pt" stroke-dasharray="none" points="391.314,535.116 391.314,549.996 "/>
      <polyline fill="none" stroke="#000000" stroke-width="0.5pt" stroke-dasharray="none" points="533.029,535.116 533.029,549.996 "/>
      <polyline fill="none" stroke="#000000" stroke-width="0.5pt" stroke-dasharray="none" points="674.743,535.116 674.743,549.996 "/>
      <polyline fill="none" stroke="#000000" stroke-width="0.5pt" stroke-dasharray="none" points="816.457,535.116 816.457,549.996 "/>
      <polyline fill="none" stroke="#000000" stroke-width="0.5pt" stroke-dasharray="none" points="958.171,535.116 958.171,549.996 "/>
      <polyline fill="none" stroke="#000000" stroke-width="0.5pt" stroke-dasharray="none" points="1099.886,535.116 1099.886,549.996 "/>
      <polyline fill="none" stroke="#000000" stroke-width="0.5pt" stroke-dasharray="none" points="1241.600,535.116 1241.600,549.996 "/>
      <polyline fill="none" stroke="#000000" stroke-width="0.5pt" stroke-dasharray="none" points="1383.314,535.116 1383.314,549.996 "/>
      <polyline fill="none" stroke="#000000" stroke-width="0.5pt" stroke-dasharray="none" points="1525.029,535.116 1525.029,549.996 "/>
      <polyline fill="none" stroke="#000000" stroke-width="0.5pt" stroke-dasharray="none" points="1666.743,535.116 1666.743,549.996 "/>
      <polyline fill="none" stroke="#000000" stroke-width="0.5pt" stroke-dasharray="none" points="249.600,535.116 1737.600,535.116 "/>
  <g transform="translate(249.600,886.203)">
    <g transform="rotate(-0.0)">
      <text x="0.000" y="0.000" font-family="Helvetica" text-anchor="middle" font-size="10pt" fill="#000000" >0</text>
    </g>
  </g>
  <g transform="translate(391.314,886.203)">
    <g transform="rotate(-0.0)">
      <text x="0.000" y="0.000" font-family="Helvetica" text-anchor="middle" font-size="10pt" fill="#000000" >0.2</text>
    </g>
  </g>
  <g transform="translate(533.029,886.203)">
    <g transform="rotate(-0.0)">
      <text x="0.000" y="0.000" font-family="Helvetica" text-anchor="middle" font-size="10pt" fill="#000000" >0.4</text>
    </g>
  </g>
  <g transform="translate(674.743,886.203)">
    <g transform="rotate(-0.0)">
      <text x="0.000" y="0.000" font-family="Helvetica" text-anchor="middle" font-size="10pt" fill="#000000" >0.6</text>
    </g>
  </g>
  <g transform="translate(816.457,886.203)">
    <g transform="rotate(-0.0)">
      <text x="0.000" y="0.000" font-family="Helvetica" text-anchor="middle" font-size="10pt" fill="#000000" >0.8</text>
    </g>
  </g>
  <g transform="translate(958.171,886.203)">
    <g transform="rotate(-0.0)">
      <text x="0.000" y="0.000" font-family="Helvetica" text-anchor="middle" font-size="10pt" fill="#000000" >1</text>
    </g>
  </g>
  <g transform="translate(1099.886,886.203)">
    <g transform="rotate(-0.0)">
      <text x="0.000" y="0.000" font-family="Helvetica" text-anchor="middle" font-size="10pt" fill="#000000" >1.2</text>
    </g>
  </g>
  <g transform="translate(1241.600,886.203)">
    <g transform="rotate(-0.0)">
      <text x="0.000" y="0.000" font-family="Helvetica" text-anchor="middle" font-size="10pt" fill="#000000" >1.4</text>
    </g>
  </g>
  <g transform="translate(1383.314,886.203)">
    <g transform="rotate(-0.0)">
      <text x="0.000" y="0.000" font-family="Helvetica" text-anchor="middle" font-size="10pt" fill="#000000" >1.6</text>
    </g>
  </g>
  <g transform="translate(1525.029,886.203)">
    <g transform="rotate(-0.0)">
      <text x="0.000" y="0.000" font-family="Helvetica" text-anchor="middle" font-size="10pt" fill="#000000" >1.8</text>
    </g>
  </g>
  <g transform="translate(1666.743,886.203)">
    <g transform="rotate(-0.0)">
      <text x="0.000" y="0.000" font-family="Helvetica" text-anchor="middle" font-size="10pt" fill="#000000" >2</text>
    </g>
  </g>
      <polyline fill="none" stroke="#000000" stroke-width="0.5pt" stroke-dasharray="none" points="249.600,801.223 264.480,801.223 "/>
      <polyline fill="none" stroke="#000000" stroke-width="0.5pt" stroke-dasharray="none" points="249.600,734.697 264.480,734.697 "/>
      <polyline fill="none" stroke="#000000" stroke-width="0.5pt" stroke-dasharray="none" points="249.600,668.170 264.480,668.170 "/>
      <polyline fill="none" stroke="#000000" stroke-width="0.5pt" stroke-dasharray="none" points="249.600,601.643 264.480,601.643 "/>
      <polyline fill="none" stroke="#000000" stroke-width="0.5pt" stroke-dasharray="none" points="249.600,867.750 249.600,535.116 "/>
      <polyline fill="none" stroke="#000000" stroke-width="0.5pt" stroke-dasharray="none" points="1737.600,801.223 1722.720,801.223 "/>
      <polyline fill="none" stroke="#000000" stroke-width="0.5pt" stroke-dasharray="none" points="1737.600,734.697 1722.720,734.697 "/>
      <polyline fill="none" stroke="#000000" stroke-width="0.5pt" stroke-dasharray="none" points="1737.600,668.170 1722.720,668.170 "/>
      <polyline fill="none" stroke="#000000" stroke-width="0.5pt" stroke-dasharray="none" points="1737.600,601.643 1722.720,601.643 "/>
      <polyline fill="none" stroke="#000000" stroke-width="0.5pt" stroke-dasharray="none" points="1737.600,867.750 1737.600,535.116 "/>
  <g transform="translate(219.840,872.250)">
    <g transform="rotate(-0.0)">
      <text x="0.000" y="0.000" font-family="Helvetica" text-anchor="end" font-size="10pt" fill="#000000" >0</text>
    </g>
  </g>
  <g transform="translate(219.840,805.723)">
    <g transform="rotate(-0.0)">
      <text x="0.000" y="0.000" font-family="Helvetica" text-anchor="end" font-size="10pt" fill="#000000" >50</text>
    </g>
  </g>
  <g transform="translate(219.840,739.197)">
    <g transform="rotate(-0.0)">
      <text x="0.000" y="0.000" font-family="Helvetica" text-anchor="end" font-size="10pt" fill="#000000" >100</text>
    </g>
  </g>
  <g transform="translate(219.840,672.670)">
    <g transform="rotate(-0.0)">
      <text x="0.000" y="0.000" font-family="Helvetica" text-anchor="end" font-size="10pt" fill="#000000" >150</text>
    </g>
  </g>
  <g transform="translate(219.840,606.143)">
    <g transform="rotate(-0.0)">
      <text x="0.000" y="0.000" font-family="Helvetica" text-anchor="end" font-size="10pt" fill="#000000" >200</text>
    </g>
  </g>
  <g transform="translate(219.840,539.616)">
    <g transform="rotate(-0.0)">
      <text x="0.000" y="0.000" font-family="Helvetica" text-anchor="end" font-size="10pt" fill="#000000" >250</text>
    </g>
  </g>
      <polyline fill="none" stroke="#000000" stroke-width="0.5pt" stroke-dasharray="none" points="249.600,867.750 249.600,864.424 "/>
      <polyline fill="none" stroke="#000000" stroke-width="0.5pt" stroke-dasharray="none" points="249.600,867.750 249.600,864.424 "/>
      <polyline fill="none" stroke="#000000" stroke-width="0.5pt" stroke-dasharray="none" points="249.600,867.750 249.600,864.424 "/>
      <polyline fill="none" stroke="#000000" stroke-width="0.5pt" stroke-dasharray="none" points="249.600,867.750 249.600,864.424 "/>
      <polyline fill="none" stroke="#000000" stroke-width="0.5pt" stroke-dasharray="none" points="249.600,867.750 249.600,864.424 "/>
      <polyline fill="none" stroke="#000000" stroke-width="0.5pt" stroke-dasharray="none" points="249.600,867.750 249.600,867.750 "/>
    </g>
  </g>
  <g id ="ID000073">
  <clipPath id="ID000074">
    <rect x="1588.250" y="79.750" width="144.500" height="20.000"/>
  </clipPath>
      <polygon fill="#ffffff" fill-opacity="1.00" stroke="none" stroke-width="0.5pt" stroke-opacity="1.00" stroke-dasharray="none" points="1588.250,99.750 1732.750,99.750 1732.750,79.750 1588.250,79.750 "/>
      <polygon fill="#ffffff" fill-opacity="1.00" stroke="none" stroke-width="0.5pt" stroke-opacity="1.00" stroke-dasharray="none" points="1588.250,79.750 1732.750,79.750 1732.750,79.750 1588.250,79.750 "/>
      <polygon fill="#ffffff" fill-opacity="1.00" stroke="none" stroke-width="0.5pt" stroke-opacity="1.00" stroke-dasharray="none" points="1588.250,99.750 1588.250,99.750 1588.250,79.750 1588.250,79.750 "/>
    <g>
<g id="ID000075" >
  <g transform="translate(1637.579,95.750)">
    <g transform="rotate(-0.0)">
      <text x="0.000" y="0.000" font-family="Helvetica" text-anchor="start" font-size="10pt" fill="#000000" >VrpnposFreqdata</text>
    </g>
  </g>
</g>
<g id="ID000076" clip-path="url(#ID000074)" >
      <polyline fill="none" stroke="#0000ff" stroke-width="0.5pt" stroke-dasharray="none" points="1595.750,89.750 1633.250,89.750 "/>
<g>
</g>
</g>
<g id="ID000077" clip-path="url(#ID000074)" >
<g>
</g>
</g>
<g id="ID000078" >
</g>
<g id="ID000079" >
</g>
<g id="ID000080" >
</g>
    </g>
    <g>
      <polyline fill="none" stroke="#000000" stroke-width="0.5pt" stroke-dasharray="none" points="1588.250,99.750 1732.750,99.750 "/>
      <polyline fill="none" stroke="#000000" stroke-width="0.5pt" stroke-dasharray="none" points="1588.250,79.750 1732.750,79.750 "/>
      <polyline fill="none" stroke="#000000" stroke-width="0.5pt" stroke-dasharray="none" points="1588.250,99.750 1588.250,79.750 "/>
      <polyline fill="none" stroke="#000000" stroke-width="0.5pt" stroke-dasharray="none" points="1732.750,99.750 1732.750,79.750 "/>
      <polyline fill="none" stroke="#000000" stroke-width="0.5pt" stroke-dasharray="none" points="1588.250,99.750 1588.250,99.550 "/>
      <polyline fill="none" stroke="#000000" stroke-width="0.5pt" stroke-dasharray="none" points="1588.250,99.750 1588.250,99.750 "/>
    </g>
  </g>
  <g id ="ID000081">
  <clipPath id="ID000082">
    <rect x="1588.250" y="541.750" width="144.500" height="20.000"/>
  </clipPath>
      <polygon fill="#ffffff" fill-opacity="1.00" stroke="none" stroke-width="0.5pt" stroke-opacity="1.00" stroke-dasharray="none" points="1588.250,561.750 1732.750,561.750 1732.750,541.750 1588.250,541.750 "/>
      <polygon fill="#ffffff" fill-opacity="1.00" stroke="none" stroke-width="0.5pt" stroke-opacity="1.00" stroke-dasharray="none" points="1588.250,541.750 1732.750,541.750 1732.750,541.750 1588.250,541.750 "/>
      <polygon fill="#ffffff" fill-opacity="1.00" stroke="none" stroke-width="0.5pt" stroke-opacity="1.00" stroke-dasharray="none" points="1588.250,561.750 1588.250,561.750 1588.250,541.750 1588.250,541.750 "/>
    <g>
<g id="ID000083" >
  <g transform="translate(1637.579,557.750)">
    <g transform="rotate(-0.0)">
      <text x="0.000" y="0.000" font-family="Helvetica" text-anchor="start" font-size="10pt" fill="#000000" >VrpnFreqrpydata</text>
    </g>
  </g>
</g>
<g id="ID000084" clip-path="url(#ID000082)" >
      <polyline fill="none" stroke="#0000ff" stroke-width="0.5pt" stroke-dasharray="none" points="1595.750,551.750 1633.250,551.750 "/>
<g>
</g>
</g>
<g id="ID000085" clip-path="url(#ID000082)" >
<g>
</g>
</g>
<g id="ID000086" >
</g>
<g id="ID000087" >
</g>
<g id="ID000088" >
</g>
    </g>
    <g>
      <polyline fill="none" stroke="#000000" stroke-width="0.5pt" stroke-dasharray="none" points="1588.250,561.750 1732.750,561.750 "/>
      <polyline fill="none" stroke="#000000" stroke-width="0.5pt" stroke-dasharray="none" points="1588.250,541.750 1732.750,541.750 "/>
      <polyline fill="none" stroke="#000000" stroke-width="0.5pt" stroke-dasharray="none" points="1588.250,561.750 1588.250,541.750 "/>
      <polyline fill="none" stroke="#000000" stroke-width="0.5pt" stroke-dasharray="none" points="1732.750,561.750 1732.750,541.750 "/>
      <polyline fill="none" stroke="#000000" stroke-width="0.5pt" stroke-dasharray="none" points="1588.250,561.750 1588.250,561.550 "/>
      <polyline fill="none" stroke="#000000" stroke-width="0.5pt" stroke-dasharray="none" points="1588.250,561.750 1588.250,561.750 "/>
    </g>
  </g>
  </g>
</svg>
