<?xml version="1.0" encoding="utf-8" standalone="no"?><!DOCTYPE svg PUBLIC "-//W3C//DTD SVG 1.1//EN" "http://www.w3.org/Graphics/SVG/1.1/DTD/svg11.dtd">
<svg preserveAspectRatio="xMinYMin meet" width="100%" height="100%" viewBox="0 0 1920.000 968.000"  version="1.1" xmlns="http://www.w3.org/2000/svg" xmlns:xlink="http://www.w3.org/1999/xlink">
  <desc>Matlab Figure Converted by PLOT2SVG written by Juerg Schwizer</desc>
  <g id="topgroup">
  <rect x="0" y="0" width="1920.000" height="968.000" fill="#ffffff" stroke="none" />
  <g id ="ID000000">
  <clipPath id="ID000001">
    <rect x="249.600" y="72.600" width="1488.000" height="330.246"/>
  </clipPath>
      <polygon fill="#ffffff" fill-opacity="1.00" stroke="none" stroke-width="0.5pt" stroke-opacity="1.00" stroke-dasharray="none" points="249.600,402.846 1737.600,402.846 1737.600,72.600 249.600,72.600 "/>
      <polygon fill="#ffffff" fill-opacity="1.00" stroke="none" stroke-width="0.5pt" stroke-opacity="1.00" stroke-dasharray="none" points="249.600,72.600 1737.600,72.600 1737.600,72.600 249.600,72.600 "/>
      <polygon fill="#ffffff" fill-opacity="1.00" stroke="none" stroke-width="0.5pt" stroke-opacity="1.00" stroke-dasharray="none" points="249.600,402.846 249.600,402.846 249.600,72.600 249.600,72.600 "/>
    <g>
<g id="ID000002" clip-path="url(#ID000001)" >
      <polyline fill="none" stroke="#0000ff" stroke-width="0.5pt" stroke-dasharray="none" points="249.600,277.891 268.247,149.609 286.893,309.718 305.540,204.566 324.186,239.345 342.833,135.111 361.480,232.345 380.126,318.675 398.773,160.867 417.419,250.257 436.066,264.760 454.713,364.707 473.359,130.416 492.006,308.995 510.653,332.972 529.299,378.713 547.946,309.219 566.592,129.864 585.239,154.898 603.886,332.794 622.532,316.883 641.179,227.924 659.825,232.504 678.472,287.207 697.119,360.718 715.765,332.754 734.412,329.014 753.058,378.552 771.705,353.728 790.352,359.124 808.998,362.674 827.645,356.009 846.292,393.398 864.938,381.752 883.585,356.252 902.231,381.718 920.878,395.917 939.525,394.827 958.171,375.554 976.818,395.605 995.464,384.874 1014.111,387.966 1032.758,393.146 1051.404,388.780 1070.051,394.974 1088.697,394.771 1107.344,391.851 1125.991,402.012 1144.637,395.171 1163.284,398.956 1181.930,395.147 1200.577,396.556 1219.224,395.428 1237.870,401.667 1256.517,395.793 1275.164,398.192 1293.810,396.918 1312.457,400.165 1331.103,401.179 1349.750,394.142 1368.397,400.390 1387.043,400.167 1405.690,396.277 1424.336,402.008 1442.983,398.214 1461.630,401.827 1480.276,396.352 1498.923,399.289 1517.569,399.740 1536.216,401.012 1554.863,398.524 1573.509,396.753 1592.156,401.118 1610.802,400.645 1629.449,397.223 1648.096,396.847 1666.742,397.870 1685.389,397.245 1704.036,399.442 1722.682,402.463 1741.329,401.584 1759.975,400.210 1778.622,398.032 1797.269,402.369 1815.915,399.783 1834.562,398.719 1853.208,399.925 1871.855,400.578 1890.502,400.500 1909.148,399.939 1927.795,399.822 1946.441,398.974 1965.088,400.922 1983.735,400.542 2002.381,400.893 2021.028,401.512 2039.675,398.981 2058.321,401.277 2076.968,400.857 2095.614,397.861 2114.261,401.532 2132.908,400.519 2151.554,399.978 2170.201,399.257 2188.847,399.874 2207.494,399.035 2226.141,401.706 2244.787,399.810 2263.434,402.388 2282.080,401.872 2300.727,400.559 2319.374,400.906 2338.020,400.847 2356.667,401.549 2375.313,402.529 2393.960,401.234 2412.607,401.685 2431.253,402.147 2449.900,401.528 2468.547,401.647 2487.193,400.963 2505.840,401.724 2524.486,400.822 2543.133,400.699 2561.780,399.877 2580.426,401.206 2599.073,400.701 2617.719,401.579 2636.366,401.947 2655.013,401.507 2673.659,401.423 2692.306,401.507 2710.952,401.477 2729.599,401.899 2748.246,400.773 2766.892,401.137 2785.539,400.964 2804.186,401.512 2822.832,401.084 2841.479,401.137 2860.125,401.179 2878.772,402.066 2897.419,401.547 2916.065,401.864 2934.712,401.325 2953.358,401.242 2972.005,400.738 2990.652,401.265 3009.298,401.132 3027.945,401.340 3046.591,401.487 3065.238,401.021 3083.885,401.795 3102.531,401.715 3121.178,401.362 3139.824,401.250 3158.471,401.370 3177.118,401.638 3195.764,401.485 3214.411,401.481 3233.058,401.612 3251.704,401.506 3270.351,401.440 3288.997,402.463 3307.644,401.384 3326.291,402.089 3344.937,401.370 3363.584,402.041 3382.230,401.456 3400.877,401.256 3419.524,401.595 3438.170,402.468 3456.817,400.547 3475.463,401.210 3494.110,401.865 3512.757,401.224 3531.403,401.777 3550.050,401.788 3568.696,401.967 3587.343,401.399 3605.990,401.813 3624.636,401.908 3643.283,401.786 3661.930,401.189 3680.576,401.778 3699.223,402.085 3717.869,401.976 3736.516,401.707 3755.163,401.726 3773.809,401.699 3792.456,401.925 3811.102,401.456 3829.749,401.710 3848.396,401.712 3867.042,401.850 3885.689,401.624 3904.335,402.217 3922.982,401.835 3941.629,401.785 3960.275,402.280 3978.922,402.053 3997.569,401.922 4016.215,401.746 4034.862,402.069 4053.508,401.635 4072.155,401.794 4090.802,401.898 4109.448,401.929 4128.095,401.878 4146.741,401.840 4165.388,401.818 4184.035,401.826 4202.681,402.242 4221.328,401.886 4239.974,401.965 4258.621,402.259 4277.268,401.856 4295.914,402.154 4314.561,401.821 4333.207,402.369 4351.854,402.280 4370.501,402.015 4389.147,401.622 4407.794,401.653 4426.441,401.807 4445.087,402.077 4463.734,401.816 4482.380,401.522 4501.027,402.152 4519.674,401.607 4538.320,401.763 4556.967,402.135 4575.613,401.915 4594.260,402.159 4612.907,402.171 4631.553,401.966 4650.200,401.664 4668.846,401.944 4687.493,402.301 4706.140,401.801 4724.786,401.990 4743.433,401.845 4762.080,401.944 4780.726,401.889 4799.373,401.927 4818.019,402.191 4836.666,401.817 4855.313,401.927 4873.959,402.061 4892.606,402.090 4911.252,402.125 4929.899,401.919 4948.546,402.174 4967.192,401.965 4985.839,402.260 5004.485,402.214 5023.132,402.186 5041.779,402.062 5060.425,402.178 5079.072,401.782 5097.718,402.405 5116.365,401.931 5135.012,401.664 5153.658,402.056 5172.305,401.911 5190.952,401.886 5209.598,402.028 5228.245,401.764 5246.891,402.215 5265.538,402.356 5284.185,401.936 5302.831,402.076 5321.478,402.061 5340.124,401.905 5358.771,402.372 5377.418,401.979 5396.064,402.091 5414.711,402.003 5433.357,402.007 5452.004,401.900 5470.651,402.119 5489.297,402.084 5507.944,402.030 5526.590,402.251 5545.237,402.082 5563.884,402.221 5582.530,402.398 5601.177,401.932 5619.824,402.254 5638.470,401.987 5657.117,401.990 5675.763,402.206 5694.410,402.024 5713.057,402.099 5731.703,402.111 5750.350,402.013 5768.996,401.981 5787.643,402.073 5806.290,401.977 5824.936,402.152 5843.583,402.018 5862.229,402.248 5880.876,401.893 5899.523,401.963 5918.169,402.279 5936.816,402.434 5955.463,402.323 5974.109,401.978 5992.756,402.030 6011.402,402.155 6030.049,402.194 6048.696,402.084 6067.342,402.409 6085.989,402.263 6104.635,402.136 6123.282,402.291 6141.929,402.034 6160.575,401.970 6179.222,402.465 6197.868,402.098 6216.515,402.350 6235.162,402.115 6253.808,402.041 6272.455,402.357 6291.101,402.129 6309.748,402.207 6328.395,402.440 6347.041,402.317 6365.688,402.159 6384.335,402.182 6402.981,402.169 6421.628,402.277 6440.274,402.095 6458.921,402.152 6477.568,402.433 6496.214,402.107 6514.861,402.064 6533.507,402.344 6552.154,402.140 6570.801,402.233 6589.447,402.370 6608.094,402.524 6626.740,402.345 6645.387,402.396 6664.034,402.260 6682.680,402.193 6701.327,402.122 6719.973,402.268 6738.620,402.276 6757.267,402.317 6775.913,402.033 6794.560,402.145 6813.207,402.220 6831.853,402.152 6850.500,402.347 6869.146,402.347 6887.793,402.229 6906.440,402.097 6925.086,402.108 6943.733,402.247 6962.379,402.262 6981.026,402.441 6999.673,402.163 7018.319,402.280 7036.966,402.250 7055.612,402.122 7074.259,402.328 7092.906,402.458 7111.552,402.328 7130.199,402.594 7148.846,402.301 7167.492,402.277 7186.139,402.305 7204.785,402.252 7223.432,402.297 7242.079,402.337 7260.725,402.384 7279.372,402.315 7298.018,401.967 7316.665,402.216 7335.312,402.320 7353.958,402.311 7372.605,402.199 7391.251,402.245 7409.898,402.379 7428.545,402.494 7447.191,402.148 7465.838,402.468 7484.484,402.256 7503.131,402.306 7521.778,402.372 7540.424,402.226 7559.071,402.412 7577.718,402.286 7596.364,402.252 7615.011,402.076 7633.657,402.352 7652.304,402.385 7670.951,402.423 7689.597,402.325 7708.244,402.303 7726.890,402.318 7745.537,402.290 7764.184,402.221 7782.830,402.361 7801.477,402.354 7820.123,402.340 7838.770,402.389 7857.417,402.288 7876.063,402.387 7894.710,402.504 7913.357,402.283 7932.003,402.395 7950.650,402.272 7969.296,402.279 7987.943,402.358 8006.590,402.267 8025.236,402.381 8043.883,402.289 8062.529,402.110 8081.176,402.424 8099.823,402.380 8118.469,402.182 8137.116,402.499 8155.762,402.226 8174.409,402.436 8193.056,402.097 8211.702,402.256 8230.349,402.400 8248.995,402.441 8267.642,402.336 8286.289,402.390 8304.935,402.419 8323.582,402.219 8342.229,402.387 8360.875,402.559 8379.522,402.363 8398.168,402.537 8416.815,402.343 8435.462,402.288 8454.108,402.442 8472.755,402.242 8491.401,402.382 8510.048,402.451 8528.695,402.426 8547.341,402.226 8565.988,402.602 8584.634,402.431 8603.281,402.338 8621.928,402.438 8640.574,402.345 8659.221,402.544 8677.867,402.236 8696.514,402.465 8715.161,402.305 8733.807,402.089 8752.454,402.219 8771.101,402.465 8789.747,402.526 8808.394,402.417 8827.040,402.567 8845.687,402.560 8864.334,402.408 8882.980,402.297 8901.627,402.601 8920.273,402.537 8938.920,402.313 8957.567,402.569 8976.213,402.309 8994.860,402.495 9013.506,402.463 9032.153,402.201 9050.800,402.538 9069.446,402.459 9088.093,402.163 9106.740,402.450 9125.386,402.269 9144.033,402.320 9162.679,402.587 9181.326,402.444 9199.973,402.241 9218.619,402.337 9237.266,402.260 9255.912,402.541 9274.559,402.202 9293.206,402.391 9311.852,402.603 9330.499,402.308 9349.145,402.357 9367.792,402.442 9386.439,402.476 9405.085,402.259 9423.732,402.337 9442.378,402.377 9461.025,402.326 9479.672,402.200 9498.318,402.589 9516.965,402.380 9535.612,402.467 9554.258,402.555 9572.905,402.328 9591.551,402.444 9610.198,402.572 9628.845,402.290 9647.491,402.516 9666.138,402.249 9684.784,402.385 9703.431,402.311 9722.078,402.591 9740.724,402.419 9759.371,402.613 9778.017,402.344 9796.664,402.350 9815.311,402.478 9833.957,402.445 9852.604,402.439 9871.251,402.462 9889.897,402.315 9908.544,402.454 9927.190,402.497 9945.837,402.344 9964.484,402.342 9983.130,402.350 10001.777,402.330 10020.423,402.481 10039.070,402.451 10057.717,402.565 10076.363,402.529 10095.010,402.410 10113.656,402.412 10132.303,402.503 10150.950,402.463 10169.596,402.480 10188.243,402.567 10206.889,402.404 10225.536,402.500 10244.183,402.555 10262.829,402.537 10281.476,402.491 10300.123,402.614 10318.769,402.427 10337.416,402.334 10356.062,402.588 10374.709,402.348 10393.356,402.400 10412.002,402.297 10430.649,402.372 10449.295,402.573 10467.942,402.592 10486.589,402.541 10505.235,402.585 10523.882,402.461 10542.528,402.457 10561.175,402.650 10579.822,402.526 10598.468,402.381 10617.115,402.478 10635.761,402.365 10654.408,402.312 10673.055,402.633 10691.701,402.313 10710.348,402.409 10728.995,402.380 10747.641,402.361 10766.288,402.259 10784.934,402.557 10803.581,402.329 10822.228,402.455 10840.874,402.442 10859.521,402.451 10878.167,402.506 10896.814,402.336 10915.461,402.415 10934.107,402.425 10952.754,402.391 10971.400,402.449 10990.047,402.444 11008.694,402.482 11027.340,402.613 11045.987,402.433 11064.634,402.331 11083.280,402.463 11101.927,402.317 11120.573,402.384 11139.220,402.617 11157.867,402.429 11176.513,402.540 11195.160,402.510 11213.806,402.443 11232.453,402.543 11251.100,402.642 11269.746,402.353 11288.393,402.580 11307.039,402.549 11325.686,402.557 11344.333,402.476 11362.979,402.503 11381.626,402.256 11400.272,402.527 11418.919,402.524 11437.566,402.624 11456.212,402.444 11474.859,402.591 11493.506,402.519 11512.152,402.310 11530.799,402.436 11549.445,402.610 11568.092,402.594 11586.739,402.481 11605.385,402.530 11624.032,402.468 11642.678,402.592 11661.325,402.313 11679.972,402.542 11698.618,402.499 11717.265,402.490 11735.911,402.462 11754.558,402.436 11773.205,402.594 11791.851,402.734 11810.498,402.596 11829.145,402.533 11847.791,402.539 11866.438,402.551 11885.084,402.614 11903.731,402.723 11922.378,402.455 11941.024,402.663 11959.671,402.688 11978.317,402.456 11996.964,402.640 12015.611,402.571 12034.257,402.317 12052.904,402.592 12071.550,402.451 12090.197,402.582 12108.844,402.588 12127.490,402.499 12146.137,402.573 12164.783,402.634 12183.430,402.343 12202.077,402.462 12220.723,402.460 12239.370,402.517 12258.017,402.641 12276.663,402.522 12295.310,402.489 12313.956,402.542 12332.603,402.551 12351.250,402.473 12369.896,402.670 12388.543,402.749 12407.189,402.403 12425.836,402.640 12444.483,402.546 12463.129,402.573 12481.776,402.528 12500.422,402.461 12519.069,402.474 12537.716,402.511 12556.362,402.520 12575.009,402.361 12593.655,402.448 12612.302,402.362 12630.949,402.510 12649.595,402.474 12668.242,402.463 12686.889,402.534 12705.535,402.461 12724.182,402.496 12742.828,402.621 12761.475,402.534 12780.122,402.462 12798.768,402.299 12817.415,402.419 12836.061,402.320 12854.708,402.587 12873.355,402.451 12892.001,402.516 12910.648,402.659 12929.294,402.543 12947.941,402.501 12966.588,402.397 12985.234,402.486 13003.881,402.536 13022.528,402.555 13041.174,402.301 13059.821,402.373 13078.467,402.454 13097.114,402.511 13115.761,402.431 13134.407,402.687 13153.054,402.582 13171.700,402.446 13190.347,402.724 13208.994,402.592 13227.640,402.459 13246.287,402.478 13264.933,402.499 13283.580,402.541 13302.227,402.467 13320.873,402.688 13339.520,402.523 13358.166,402.500 13376.813,402.512 13395.460,402.635 13414.106,402.549 13432.753,402.638 13451.400,402.600 13470.046,402.490 13488.693,402.576 13507.339,402.618 13525.986,402.449 13544.633,402.487 13563.279,402.521 13581.926,402.417 13600.572,402.553 13619.219,402.501 13637.866,402.339 13656.512,402.513 13675.159,402.624 13693.805,402.429 13712.452,402.508 13731.099,402.455 13749.745,402.613 13768.392,402.498 13787.039,402.453 13805.685,402.581 13824.332,402.353 13842.978,402.523 13861.625,402.589 13880.272,402.471 13898.918,402.540 13917.565,402.557 13936.211,402.472 13954.858,402.579 13973.505,402.688 13992.151,402.560 14010.798,402.478 14029.444,402.473 14048.091,402.594 14066.738,402.343 14085.384,402.680 14104.031,402.444 14122.677,402.584 14141.324,402.540 14159.971,402.540 14178.617,402.495 14197.264,402.701 14215.911,402.674 14234.557,402.611 14253.204,402.598 14271.850,402.650 14290.497,402.521 14309.144,402.364 14327.790,402.783 14346.437,402.560 14365.083,402.529 14383.730,402.820 14402.377,402.535 14421.023,402.631 14439.670,402.598 14458.316,402.604 14476.963,402.477 14495.610,402.395 14514.256,402.564 14532.903,402.584 14551.549,402.412 14570.196,402.587 14588.843,402.542 14607.489,402.437 14626.136,402.613 14644.783,402.534 14663.429,402.466 14682.076,402.480 14700.722,402.470 14719.369,402.625 14738.016,402.647 14756.662,402.577 14775.309,402.715 14793.955,402.786 14812.602,402.689 14831.249,402.234 14849.895,402.759 14868.542,402.583 14887.188,402.658 14905.835,402.608 14924.482,402.716 14943.128,402.616 14961.775,402.442 14980.422,402.555 14999.068,402.629 15017.715,402.488 15036.361,402.766 15055.008,402.453 15073.655,402.400 15092.301,402.482 15110.948,402.584 15129.594,402.489 15148.241,402.646 15166.888,402.550 15185.534,402.404 15204.181,402.395 15222.827,402.350 15241.474,402.603 15260.121,402.471 15278.767,402.712 15297.414,402.590 15316.060,402.531 15334.707,402.741 15353.354,402.561 15372.000,402.555 15390.647,402.645 15409.294,402.306 15427.940,402.493 15446.587,402.335 15465.233,402.541 15483.880,402.426 15502.527,402.612 15521.173,402.356 15539.820,402.515 15558.466,402.424 15577.113,402.627 15595.760,402.720 15614.406,402.490 15633.053,402.556 15651.699,402.429 15670.346,402.568 15688.993,402.617 15707.639,402.676 15726.286,402.581 15744.933,402.476 15763.579,402.592 15782.226,402.502 15800.872,402.500 15819.519,402.607 15838.166,402.403 15856.812,402.662 15875.459,402.591 15894.105,402.497 15912.752,402.507 15931.399,402.625 15950.045,402.528 15968.692,402.663 15987.338,402.500 16005.985,402.655 16024.632,402.519 16043.278,402.663 16061.925,402.634 16080.571,402.517 16099.218,402.639 16117.865,402.612 16136.511,402.498 16155.158,402.339 16173.805,402.483 16192.451,402.465 16211.098,402.546 16229.744,402.551 16248.391,402.684 16267.038,402.668 16285.684,402.626 16304.331,402.465 16322.977,402.459 16341.624,402.603 16360.271,402.650 16378.917,402.600 16397.564,402.691 16416.210,402.529 16434.857,402.613 16453.504,402.429 16472.150,402.455 16490.797,402.479 16509.443,402.522 16528.090,402.558 16546.737,402.560 16565.383,402.532 16584.030,402.567 16602.677,402.574 16621.323,402.468 16639.970,402.676 16658.616,402.528 16677.263,402.634 16695.910,402.593 16714.556,402.556 16733.203,402.486 16751.849,402.507 16770.496,402.509 16789.143,402.579 16807.789,402.629 16826.436,402.543 16845.082,402.450 16863.729,402.677 16882.376,402.587 16901.022,402.681 16919.669,402.774 16938.316,402.587 16956.962,402.637 16975.609,402.541 16994.255,402.652 17012.902,402.626 17031.549,402.771 17050.195,402.657 17068.842,402.637 17087.488,402.546 17106.135,402.583 17124.782,402.696 17143.428,402.596 17162.075,402.492 17180.721,402.615 17199.368,402.526 17218.015,402.824 17236.661,402.454 17255.308,402.525 17273.954,402.468 17292.601,402.622 17311.248,402.622 17329.894,402.591 17348.541,402.820 17367.188,402.572 17385.834,402.649 17404.481,402.436 17423.127,402.678 17441.774,402.510 17460.421,402.740 17479.067,402.644 17497.714,402.590 17516.360,402.574 17535.007,402.638 17553.654,402.551 17572.300,402.749 17590.947,402.354 17609.593,402.617 17628.240,402.632 17646.887,402.649 17665.533,402.621 17684.180,402.678 17702.826,402.559 17721.473,402.491 17740.120,402.376 17758.766,402.623 17777.413,402.526 17796.060,402.642 17814.706,402.591 17833.353,402.587 17851.999,402.511 17870.646,402.651 17889.293,402.585 17907.939,402.574 17926.586,402.753 17945.232,402.495 17963.879,402.644 17982.526,402.671 18001.172,402.611 18019.819,402.595 18038.465,402.734 18057.112,402.638 18075.759,402.603 18094.405,402.489 18113.052,402.735 18131.699,402.540 18150.345,402.602 18168.992,402.669 18187.638,402.626 18206.285,402.575 18224.932,402.736 18243.578,402.590 18262.225,402.744 18280.871,402.571 18299.518,402.666 18318.165,402.696 18336.811,402.583 18355.458,402.529 18374.104,402.598 18392.751,402.456 18411.398,402.611 18430.044,402.574 18448.691,402.637 18467.337,402.624 18485.984,402.634 18504.631,402.592 18523.277,402.763 18541.924,402.644 18560.571,402.576 18579.217,402.643 18597.864,402.554 18616.510,402.668 18635.157,402.607 18653.804,402.626 18672.450,402.611 18691.097,402.528 18709.743,402.791 18728.390,402.579 18747.037,402.652 18765.683,402.735 18784.330,402.447 18802.976,402.580 18821.623,402.728 18840.270,402.535 18858.916,402.625 18877.563,402.677 18896.210,402.537 18914.856,402.630 18933.503,402.652 18952.149,402.681 18970.796,402.759 18989.443,402.633 19008.089,402.655 19026.736,402.621 19045.382,402.502 19064.029,402.654 19082.676,402.711 19101.322,402.505 19119.969,402.671 19138.615,402.583 19157.262,402.566 19175.909,402.739 19194.555,402.658 19213.202,402.570 19231.848,402.625 19250.495,402.646 19269.142,402.652 19287.788,402.728 19306.435,402.603 19325.082,402.691 19343.728,402.656 19362.375,402.527 19381.021,402.673 19399.668,402.579 19418.315,402.622 19436.961,402.615 19455.608,402.689 19474.254,402.635 19492.901,402.613 19511.548,402.628 19530.194,402.695 19548.841,402.671 19567.487,402.629 19586.134,402.723 19604.781,402.554 19623.427,402.750 19642.074,402.653 19660.720,402.706 19679.367,402.647 19698.014,402.611 19716.660,402.692 19735.307,402.615 19753.954,402.610 19772.600,402.627 19791.247,402.620 19809.893,402.628 19828.540,402.603 19847.187,402.691 19865.833,402.628 19884.480,402.636 19903.126,402.600 19921.773,402.575 19940.420,402.697 19959.066,402.640 19977.713,402.677 19996.359,402.662 20015.006,402.635 "/>
<g>
</g>
</g>
<g id="ID000003" >
</g>
<g id="ID000004" >
</g>
<g id="ID000005" >
</g>
<g id="ID000006" >
</g>
<g id="ID000007" >
</g>
<g id="ID000008" clip-path="url(#ID000001)" >
<g id="ID000009" >
<rect x="271.583" y="110.504" width="69.958" height="35.936" fill="#ffffee" stroke="#cccccc" stroke-width="0.5pt" stroke-dasharray="none" />
  <g transform="translate(277.100,126.150)">
    <g transform="rotate(-0.0)">
      <text x="0.000" y="0.000" font-family="Helvetica" text-anchor="start" font-size="8pt" fill="#000000" >X: 0.02632</text>
    </g>
  </g>
  <g transform="translate(277.100,138.150)">
    <g transform="rotate(-0.0)">
      <text x="0.000" y="0.000" font-family="Helvetica" text-anchor="start" font-size="8pt" fill="#000000" >Y: 19.17</text>
    </g>
  </g>
</g>
<g id="ID000010" >
<g>
      <polygon fill="#000000" fill-opacity="1.00" stroke="#ffffdc" stroke-width="2.0pt" stroke-opacity="1.00" stroke-dasharray="none" points="261.580,142.942 261.580,156.275 274.913,156.275 274.913,142.942 261.580,142.942 "/>
</g>
</g>
</g><g id="ID000011" clip-path="url(#ID000001)" >
<g id="ID000012" >
<rect x="346.532" y="96.536" width="63.962" height="35.936" fill="#ffffee" stroke="#cccccc" stroke-width="0.5pt" stroke-dasharray="none" />
  <g transform="translate(352.100,112.140)">
    <g transform="rotate(-0.0)">
      <text x="0.000" y="0.000" font-family="Helvetica" text-anchor="start" font-size="8pt" fill="#000000" >X: 0.1316</text>
    </g>
  </g>
  <g transform="translate(352.100,124.140)">
    <g transform="rotate(-0.0)">
      <text x="0.000" y="0.000" font-family="Helvetica" text-anchor="start" font-size="8pt" fill="#000000" >Y: 20.27</text>
    </g>
  </g>
</g>
<g id="ID000013" >
<g>
      <polygon fill="#000000" fill-opacity="1.00" stroke="#ffffdc" stroke-width="2.0pt" stroke-opacity="1.00" stroke-dasharray="none" points="336.166,128.445 336.166,141.778 349.500,141.778 349.500,128.445 336.166,128.445 "/>
</g>
</g>
</g><g id="ID000014" clip-path="url(#ID000001)" >
<g id="ID000015" >
<rect x="402.495" y="122.477" width="63.962" height="35.936" fill="#ffffee" stroke="#cccccc" stroke-width="0.5pt" stroke-dasharray="none" />
  <g transform="translate(408.100,138.159)">
    <g transform="rotate(-0.0)">
      <text x="0.000" y="0.000" font-family="Helvetica" text-anchor="start" font-size="8pt" fill="#000000" >X: 0.2105</text>
    </g>
  </g>
  <g transform="translate(408.100,150.159)">
    <g transform="rotate(-0.0)">
      <text x="0.000" y="0.000" font-family="Helvetica" text-anchor="start" font-size="8pt" fill="#000000" >Y: 18.32</text>
    </g>
  </g>
</g>
<g id="ID000016" >
<g>
      <polygon fill="#000000" fill-opacity="1.00" stroke="#ffffdc" stroke-width="2.0pt" stroke-opacity="1.00" stroke-dasharray="none" points="392.106,154.200 392.106,167.533 405.440,167.533 405.440,154.200 392.106,154.200 "/>
</g>
</g>
</g><g id="ID000017" clip-path="url(#ID000001)" >
<g id="ID000018" >
<rect x="476.445" y="136.445" width="63.962" height="35.936" fill="#ffffee" stroke="#cccccc" stroke-width="0.5pt" stroke-dasharray="none" />
  <g transform="translate(482.100,149.590)">
    <g transform="rotate(-0.0)">
      <text x="0.000" y="0.000" font-family="Helvetica" text-anchor="start" font-size="8pt" fill="#000000" >X: 0.3158</text>
    </g>
  </g>
  <g transform="translate(482.100,161.590)">
    <g transform="rotate(-0.0)">
      <text x="0.000" y="0.000" font-family="Helvetica" text-anchor="start" font-size="8pt" fill="#000000" >Y: 20.62</text>
    </g>
  </g>
</g>
<g id="ID000019" >
<g>
      <polygon fill="#000000" fill-opacity="1.00" stroke="#ffffdc" stroke-width="2.0pt" stroke-opacity="1.00" stroke-dasharray="none" points="466.693,123.749 466.693,137.082 480.026,137.082 480.026,123.749 466.693,123.749 "/>
</g>
</g>
</g><g id="ID000020" clip-path="url(#ID000001)" >
<g id="ID000021" >
<rect x="569.382" y="136.445" width="63.962" height="35.936" fill="#ffffee" stroke="#cccccc" stroke-width="0.5pt" stroke-dasharray="none" />
  <g transform="translate(575.100,149.590)">
    <g transform="rotate(-0.0)">
      <text x="0.000" y="0.000" font-family="Helvetica" text-anchor="start" font-size="8pt" fill="#000000" >X: 0.4474</text>
    </g>
  </g>
  <g transform="translate(575.100,161.590)">
    <g transform="rotate(-0.0)">
      <text x="0.000" y="0.000" font-family="Helvetica" text-anchor="start" font-size="8pt" fill="#000000" >Y: 20.67</text>
    </g>
  </g>
</g>
<g id="ID000022" >
<g>
      <polygon fill="#000000" fill-opacity="1.00" stroke="#ffffdc" stroke-width="2.0pt" stroke-opacity="1.00" stroke-dasharray="none" points="559.926,123.197 559.926,136.530 573.259,136.530 573.259,123.197 559.926,123.197 "/>
</g>
</g>
</g><g id="ID000023" clip-path="url(#ID000001)" >
<g id="ID000024" >
<rect x="644.332" y="189.324" width="63.962" height="35.936" fill="#ffffee" stroke="#cccccc" stroke-width="0.5pt" stroke-dasharray="none" />
  <g transform="translate(650.100,205.209)">
    <g transform="rotate(-0.0)">
      <text x="0.000" y="0.000" font-family="Helvetica" text-anchor="start" font-size="8pt" fill="#000000" >X: 0.5526</text>
    </g>
  </g>
  <g transform="translate(650.100,217.209)">
    <g transform="rotate(-0.0)">
      <text x="0.000" y="0.000" font-family="Helvetica" text-anchor="start" font-size="8pt" fill="#000000" >Y: 13.24</text>
    </g>
  </g>
</g>
<g id="ID000025" >
<g>
      <polygon fill="#000000" fill-opacity="1.00" stroke="#ffffdc" stroke-width="2.0pt" stroke-opacity="1.00" stroke-dasharray="none" points="634.512,221.257 634.512,234.591 647.845,234.591 647.845,221.257 634.512,221.257 "/>
</g>
</g>
</g><g id="ID000026" clip-path="url(#ID000001)" >
<g id="ID000027" >
<rect x="737.270" y="290.094" width="63.962" height="35.936" fill="#ffffee" stroke="#cccccc" stroke-width="0.5pt" stroke-dasharray="none" />
  <g transform="translate(743.100,306.284)">
    <g transform="rotate(-0.0)">
      <text x="0.000" y="0.000" font-family="Helvetica" text-anchor="start" font-size="8pt" fill="#000000" >X: 0.6842</text>
    </g>
  </g>
  <g transform="translate(743.100,318.284)">
    <g transform="rotate(-0.0)">
      <text x="0.000" y="0.000" font-family="Helvetica" text-anchor="start" font-size="8pt" fill="#000000" >Y: 5.589</text>
    </g>
  </g>
</g>
<g id="ID000028" >
<g>
      <polygon fill="#000000" fill-opacity="1.00" stroke="#ffffdc" stroke-width="2.0pt" stroke-opacity="1.00" stroke-dasharray="none" points="727.745,322.347 727.745,335.681 741.079,335.681 741.079,322.347 727.745,322.347 "/>
</g>
</g>
</g><g id="ID000029" clip-path="url(#ID000001)" >
<g id="ID000030" >
<rect x="886.170" y="317.032" width="63.962" height="35.936" fill="#ffffee" stroke="#cccccc" stroke-width="0.5pt" stroke-dasharray="none" />
  <g transform="translate(892.100,333.304)">
    <g transform="rotate(-0.0)">
      <text x="0.000" y="0.000" font-family="Helvetica" text-anchor="start" font-size="8pt" fill="#000000" >X: 0.8947</text>
    </g>
  </g>
  <g transform="translate(892.100,345.304)">
    <g transform="rotate(-0.0)">
      <text x="0.000" y="0.000" font-family="Helvetica" text-anchor="start" font-size="8pt" fill="#000000" >Y: 3.527</text>
    </g>
  </g>
</g>
<g id="ID000031" >
<g>
      <polygon fill="#000000" fill-opacity="1.00" stroke="#ffffdc" stroke-width="2.0pt" stroke-opacity="1.00" stroke-dasharray="none" points="876.918,349.585 876.918,362.919 890.251,362.919 890.251,349.585 876.918,349.585 "/>
</g>
</g>
</g><g id="ID000032" clip-path="url(#ID000001)" >
<g id="ID000033" >
<rect x="961.119" y="335.989" width="57.966" height="35.936" fill="#ffffee" stroke="#cccccc" stroke-width="0.5pt" stroke-dasharray="none" />
  <g transform="translate(967.100,352.318)">
    <g transform="rotate(-0.0)">
      <text x="0.000" y="0.000" font-family="Helvetica" text-anchor="start" font-size="8pt" fill="#000000" >X: 1</text>
    </g>
  </g>
  <g transform="translate(967.100,364.318)">
    <g transform="rotate(-0.0)">
      <text x="0.000" y="0.000" font-family="Helvetica" text-anchor="start" font-size="8pt" fill="#000000" >Y: 2.066</text>
    </g>
  </g>
</g>
<g id="ID000034" >
<g>
      <polygon fill="#000000" fill-opacity="1.00" stroke="#ffffdc" stroke-width="2.0pt" stroke-opacity="1.00" stroke-dasharray="none" points="951.504,368.887 951.504,382.221 964.838,382.221 964.838,368.887 951.504,368.887 "/>
</g>
</g>
</g>    </g>
    <g>
      <polyline fill="none" stroke="#000000" stroke-width="0.5pt" stroke-dasharray="none" points="391.314,402.846 391.314,387.966 "/>
      <polyline fill="none" stroke="#000000" stroke-width="0.5pt" stroke-dasharray="none" points="533.029,402.846 533.029,387.966 "/>
      <polyline fill="none" stroke="#000000" stroke-width="0.5pt" stroke-dasharray="none" points="674.743,402.846 674.743,387.966 "/>
      <polyline fill="none" stroke="#000000" stroke-width="0.5pt" stroke-dasharray="none" points="816.457,402.846 816.457,387.966 "/>
      <polyline fill="none" stroke="#000000" stroke-width="0.5pt" stroke-dasharray="none" points="958.171,402.846 958.171,387.966 "/>
      <polyline fill="none" stroke="#000000" stroke-width="0.5pt" stroke-dasharray="none" points="1099.886,402.846 1099.886,387.966 "/>
      <polyline fill="none" stroke="#000000" stroke-width="0.5pt" stroke-dasharray="none" points="1241.600,402.846 1241.600,387.966 "/>
      <polyline fill="none" stroke="#000000" stroke-width="0.5pt" stroke-dasharray="none" points="1383.314,402.846 1383.314,387.966 "/>
      <polyline fill="none" stroke="#000000" stroke-width="0.5pt" stroke-dasharray="none" points="1525.029,402.846 1525.029,387.966 "/>
      <polyline fill="none" stroke="#000000" stroke-width="0.5pt" stroke-dasharray="none" points="1666.743,402.846 1666.743,387.966 "/>
      <polyline fill="none" stroke="#000000" stroke-width="0.5pt" stroke-dasharray="none" points="249.600,402.846 1737.600,402.846 "/>
      <polyline fill="none" stroke="#000000" stroke-width="0.5pt" stroke-dasharray="none" points="391.314,72.600 391.314,87.480 "/>
      <polyline fill="none" stroke="#000000" stroke-width="0.5pt" stroke-dasharray="none" points="533.029,72.600 533.029,87.480 "/>
      <polyline fill="none" stroke="#000000" stroke-width="0.5pt" stroke-dasharray="none" points="674.743,72.600 674.743,87.480 "/>
      <polyline fill="none" stroke="#000000" stroke-width="0.5pt" stroke-dasharray="none" points="816.457,72.600 816.457,87.480 "/>
      <polyline fill="none" stroke="#000000" stroke-width="0.5pt" stroke-dasharray="none" points="958.171,72.600 958.171,87.480 "/>
      <polyline fill="none" stroke="#000000" stroke-width="0.5pt" stroke-dasharray="none" points="1099.886,72.600 1099.886,87.480 "/>
      <polyline fill="none" stroke="#000000" stroke-width="0.5pt" stroke-dasharray="none" points="1241.600,72.600 1241.600,87.480 "/>
      <polyline fill="none" stroke="#000000" stroke-width="0.5pt" stroke-dasharray="none" points="1383.314,72.600 1383.314,87.480 "/>
      <polyline fill="none" stroke="#000000" stroke-width="0.5pt" stroke-dasharray="none" points="1525.029,72.600 1525.029,87.480 "/>
      <polyline fill="none" stroke="#000000" stroke-width="0.5pt" stroke-dasharray="none" points="1666.743,72.600 1666.743,87.480 "/>
      <polyline fill="none" stroke="#000000" stroke-width="0.5pt" stroke-dasharray="none" points="249.600,72.600 1737.600,72.600 "/>
  <g transform="translate(249.600,421.250)">
    <g transform="rotate(-0.0)">
      <text x="0.000" y="0.000" font-family="Helvetica" text-anchor="middle" font-size="10pt" fill="#000000" >0</text>
    </g>
  </g>
  <g transform="translate(391.314,421.250)">
    <g transform="rotate(-0.0)">
      <text x="0.000" y="0.000" font-family="Helvetica" text-anchor="middle" font-size="10pt" fill="#000000" >0.2</text>
    </g>
  </g>
  <g transform="translate(533.029,421.250)">
    <g transform="rotate(-0.0)">
      <text x="0.000" y="0.000" font-family="Helvetica" text-anchor="middle" font-size="10pt" fill="#000000" >0.4</text>
    </g>
  </g>
  <g transform="translate(674.743,421.250)">
    <g transform="rotate(-0.0)">
      <text x="0.000" y="0.000" font-family="Helvetica" text-anchor="middle" font-size="10pt" fill="#000000" >0.6</text>
    </g>
  </g>
  <g transform="translate(816.457,421.250)">
    <g transform="rotate(-0.0)">
      <text x="0.000" y="0.000" font-family="Helvetica" text-anchor="middle" font-size="10pt" fill="#000000" >0.8</text>
    </g>
  </g>
  <g transform="translate(958.171,421.250)">
    <g transform="rotate(-0.0)">
      <text x="0.000" y="0.000" font-family="Helvetica" text-anchor="middle" font-size="10pt" fill="#000000" >1</text>
    </g>
  </g>
  <g transform="translate(1099.886,421.250)">
    <g transform="rotate(-0.0)">
      <text x="0.000" y="0.000" font-family="Helvetica" text-anchor="middle" font-size="10pt" fill="#000000" >1.2</text>
    </g>
  </g>
  <g transform="translate(1241.600,421.250)">
    <g transform="rotate(-0.0)">
      <text x="0.000" y="0.000" font-family="Helvetica" text-anchor="middle" font-size="10pt" fill="#000000" >1.4</text>
    </g>
  </g>
  <g transform="translate(1383.314,421.250)">
    <g transform="rotate(-0.0)">
      <text x="0.000" y="0.000" font-family="Helvetica" text-anchor="middle" font-size="10pt" fill="#000000" >1.6</text>
    </g>
  </g>
  <g transform="translate(1525.029,421.250)">
    <g transform="rotate(-0.0)">
      <text x="0.000" y="0.000" font-family="Helvetica" text-anchor="middle" font-size="10pt" fill="#000000" >1.8</text>
    </g>
  </g>
  <g transform="translate(1666.743,421.250)">
    <g transform="rotate(-0.0)">
      <text x="0.000" y="0.000" font-family="Helvetica" text-anchor="middle" font-size="10pt" fill="#000000" >2</text>
    </g>
  </g>
      <polyline fill="none" stroke="#000000" stroke-width="0.5pt" stroke-dasharray="none" points="249.600,336.796 264.480,336.796 "/>
      <polyline fill="none" stroke="#000000" stroke-width="0.5pt" stroke-dasharray="none" points="249.600,270.747 264.480,270.747 "/>
      <polyline fill="none" stroke="#000000" stroke-width="0.5pt" stroke-dasharray="none" points="249.600,204.698 264.480,204.698 "/>
      <polyline fill="none" stroke="#000000" stroke-width="0.5pt" stroke-dasharray="none" points="249.600,138.649 264.480,138.649 "/>
      <polyline fill="none" stroke="#000000" stroke-width="0.5pt" stroke-dasharray="none" points="249.600,402.846 249.600,72.600 "/>
      <polyline fill="none" stroke="#000000" stroke-width="0.5pt" stroke-dasharray="none" points="1737.600,336.796 1722.720,336.796 "/>
      <polyline fill="none" stroke="#000000" stroke-width="0.5pt" stroke-dasharray="none" points="1737.600,270.747 1722.720,270.747 "/>
      <polyline fill="none" stroke="#000000" stroke-width="0.5pt" stroke-dasharray="none" points="1737.600,204.698 1722.720,204.698 "/>
      <polyline fill="none" stroke="#000000" stroke-width="0.5pt" stroke-dasharray="none" points="1737.600,138.649 1722.720,138.649 "/>
      <polyline fill="none" stroke="#000000" stroke-width="0.5pt" stroke-dasharray="none" points="1737.600,402.846 1737.600,72.600 "/>
  <g transform="translate(219.840,407.346)">
    <g transform="rotate(-0.0)">
      <text x="0.000" y="0.000" font-family="Helvetica" text-anchor="end" font-size="10pt" fill="#000000" >0</text>
    </g>
  </g>
  <g transform="translate(219.840,341.296)">
    <g transform="rotate(-0.0)">
      <text x="0.000" y="0.000" font-family="Helvetica" text-anchor="end" font-size="10pt" fill="#000000" >5</text>
    </g>
  </g>
  <g transform="translate(219.840,275.247)">
    <g transform="rotate(-0.0)">
      <text x="0.000" y="0.000" font-family="Helvetica" text-anchor="end" font-size="10pt" fill="#000000" >10</text>
    </g>
  </g>
  <g transform="translate(219.840,209.198)">
    <g transform="rotate(-0.0)">
      <text x="0.000" y="0.000" font-family="Helvetica" text-anchor="end" font-size="10pt" fill="#000000" >15</text>
    </g>
  </g>
  <g transform="translate(219.840,143.149)">
    <g transform="rotate(-0.0)">
      <text x="0.000" y="0.000" font-family="Helvetica" text-anchor="end" font-size="10pt" fill="#000000" >20</text>
    </g>
  </g>
  <g transform="translate(219.840,77.100)">
    <g transform="rotate(-0.0)">
      <text x="0.000" y="0.000" font-family="Helvetica" text-anchor="end" font-size="10pt" fill="#000000" >25</text>
    </g>
  </g>
      <polyline fill="none" stroke="#000000" stroke-width="0.5pt" stroke-dasharray="none" points="249.600,402.846 249.600,399.543 "/>
      <polyline fill="none" stroke="#000000" stroke-width="0.5pt" stroke-dasharray="none" points="249.600,402.846 249.600,399.543 "/>
      <polyline fill="none" stroke="#000000" stroke-width="0.5pt" stroke-dasharray="none" points="249.600,402.846 249.600,399.543 "/>
      <polyline fill="none" stroke="#000000" stroke-width="0.5pt" stroke-dasharray="none" points="249.600,402.846 249.600,399.543 "/>
      <polyline fill="none" stroke="#000000" stroke-width="0.5pt" stroke-dasharray="none" points="249.600,402.846 249.600,399.543 "/>
      <polyline fill="none" stroke="#000000" stroke-width="0.5pt" stroke-dasharray="none" points="249.600,402.846 249.600,402.846 "/>
    </g>
  </g>
  <g id ="ID000035">
  <clipPath id="ID000036">
    <rect x="1588.250" y="79.750" width="144.500" height="20.000"/>
  </clipPath>
      <polygon fill="#ffffff" fill-opacity="1.00" stroke="none" stroke-width="0.5pt" stroke-opacity="1.00" stroke-dasharray="none" points="1588.250,99.750 1732.750,99.750 1732.750,79.750 1588.250,79.750 "/>
      <polygon fill="#ffffff" fill-opacity="1.00" stroke="none" stroke-width="0.5pt" stroke-opacity="1.00" stroke-dasharray="none" points="1588.250,79.750 1732.750,79.750 1732.750,79.750 1588.250,79.750 "/>
      <polygon fill="#ffffff" fill-opacity="1.00" stroke="none" stroke-width="0.5pt" stroke-opacity="1.00" stroke-dasharray="none" points="1588.250,99.750 1588.250,99.750 1588.250,79.750 1588.250,79.750 "/>
    <g>
<g id="ID000037" >
  <g transform="translate(1637.579,95.750)">
    <g transform="rotate(-0.0)">
      <text x="0.000" y="0.000" font-family="Helvetica" text-anchor="start" font-size="10pt" fill="#000000" >VrpnposFreqdata</text>
    </g>
  </g>
</g>
<g id="ID000038" clip-path="url(#ID000036)" >
      <polyline fill="none" stroke="#0000ff" stroke-width="0.5pt" stroke-dasharray="none" points="1595.750,89.750 1633.250,89.750 "/>
<g>
</g>
</g>
<g id="ID000039" clip-path="url(#ID000036)" >
<g>
</g>
</g>
<g id="ID000040" >
</g>
<g id="ID000041" >
</g>
<g id="ID000042" >
</g>
    </g>
    <g>
      <polyline fill="none" stroke="#000000" stroke-width="0.5pt" stroke-dasharray="none" points="1588.250,99.750 1732.750,99.750 "/>
      <polyline fill="none" stroke="#000000" stroke-width="0.5pt" stroke-dasharray="none" points="1588.250,79.750 1732.750,79.750 "/>
      <polyline fill="none" stroke="#000000" stroke-width="0.5pt" stroke-dasharray="none" points="1588.250,99.750 1588.250,79.750 "/>
      <polyline fill="none" stroke="#000000" stroke-width="0.5pt" stroke-dasharray="none" points="1732.750,99.750 1732.750,79.750 "/>
      <polyline fill="none" stroke="#000000" stroke-width="0.5pt" stroke-dasharray="none" points="1588.250,99.750 1588.250,99.550 "/>
      <polyline fill="none" stroke="#000000" stroke-width="0.5pt" stroke-dasharray="none" points="1588.250,99.750 1588.250,99.750 "/>
    </g>
  </g>
  <g id ="ID000043">
  <clipPath id="ID000044">
    <rect x="249.600" y="531.274" width="1488.000" height="330.246"/>
  </clipPath>
      <polygon fill="#ffffff" fill-opacity="1.00" stroke="none" stroke-width="0.5pt" stroke-opacity="1.00" stroke-dasharray="none" points="249.600,861.520 1737.600,861.520 1737.600,531.274 249.600,531.274 "/>
      <polygon fill="#ffffff" fill-opacity="1.00" stroke="none" stroke-width="0.5pt" stroke-opacity="1.00" stroke-dasharray="none" points="249.600,531.274 1737.600,531.274 1737.600,531.274 249.600,531.274 "/>
      <polygon fill="#ffffff" fill-opacity="1.00" stroke="none" stroke-width="0.5pt" stroke-opacity="1.00" stroke-dasharray="none" points="249.600,861.520 249.600,861.520 249.600,531.274 249.600,531.274 "/>
    <g>
<g id="ID000045" clip-path="url(#ID000044)" >
      <polyline fill="none" stroke="#0000ff" stroke-width="0.5pt" stroke-dasharray="none" points="249.600,625.229 268.247,824.008 286.893,811.097 305.540,829.076 324.186,822.837 342.833,816.233 361.480,794.077 380.126,796.871 398.773,773.370 417.419,784.401 436.066,803.313 454.713,801.814 473.359,795.939 492.006,726.057 510.653,744.688 529.299,840.588 547.946,740.520 566.592,612.270 585.239,842.489 603.886,727.462 622.532,824.724 641.179,753.169 659.825,538.050 678.472,760.175 697.119,821.964 715.765,667.389 734.412,694.854 753.058,756.232 771.705,711.294 790.352,686.484 808.998,743.736 827.645,831.858 846.292,776.884 864.938,748.480 883.585,821.244 902.231,803.544 920.878,754.694 939.525,826.072 958.171,830.453 976.818,823.304 995.464,841.627 1014.111,827.182 1032.758,845.137 1051.404,805.897 1070.051,837.454 1088.697,820.546 1107.344,808.865 1125.991,813.264 1144.637,858.770 1163.284,852.080 1181.930,850.286 1200.577,819.181 1219.224,856.513 1237.870,819.358 1256.517,829.330 1275.164,827.897 1293.810,844.730 1312.457,841.477 1331.103,842.606 1349.750,849.119 1368.397,838.501 1387.043,843.310 1405.690,811.938 1424.336,813.957 1442.983,849.123 1461.630,848.855 1480.276,811.226 1498.923,818.706 1517.569,829.380 1536.216,811.716 1554.863,814.700 1573.509,840.647 1592.156,829.579 1610.802,840.640 1629.449,841.084 1648.096,847.488 1666.742,844.033 1685.389,778.893 1704.036,847.741 1722.682,828.197 1741.329,849.414 1759.975,828.011 1778.622,832.233 1797.269,821.461 1815.915,827.307 1834.562,842.295 1853.208,835.579 1871.855,850.265 1890.502,827.561 1909.148,828.270 1927.795,829.196 1946.441,835.620 1965.088,838.084 1983.735,815.414 2002.381,860.624 2021.028,846.635 2039.675,830.525 2058.321,845.971 2076.968,840.680 2095.614,840.700 2114.261,841.992 2132.908,835.500 2151.554,837.256 2170.201,839.270 2188.847,847.918 2207.494,854.305 2226.141,848.606 2244.787,852.006 2263.434,851.304 2282.080,848.819 2300.727,853.330 2319.374,855.902 2338.020,849.021 2356.667,835.378 2375.313,837.386 2393.960,846.936 2412.607,860.307 2431.253,860.498 2449.900,845.173 2468.547,840.723 2487.193,850.819 2505.840,852.628 2524.486,853.464 2543.133,845.152 2561.780,854.782 2580.426,842.293 2599.073,854.539 2617.719,860.201 2636.366,861.014 2655.013,842.154 2673.659,854.718 2692.306,855.973 2710.952,859.047 2729.599,843.527 2748.246,858.287 2766.892,852.685 2785.539,852.650 2804.186,860.208 2822.832,853.899 2841.479,854.467 2860.125,848.859 2878.772,856.689 2897.419,855.613 2916.065,853.727 2934.712,859.270 2953.358,850.782 2972.005,855.179 2990.652,853.327 3009.298,855.178 3027.945,859.266 3046.591,857.950 3065.238,857.486 3083.885,857.410 3102.531,856.807 3121.178,854.352 3139.824,852.861 3158.471,856.273 3177.118,856.702 3195.764,853.307 3214.411,856.132 3233.058,855.877 3251.704,854.708 3270.351,854.402 3288.997,860.430 3307.644,856.467 3326.291,853.531 3344.937,861.064 3363.584,854.437 3382.230,857.366 3400.877,854.952 3419.524,856.917 3438.170,854.541 3456.817,855.251 3475.463,856.399 3494.110,854.596 3512.757,860.992 3531.403,858.588 3550.050,858.809 3568.696,853.250 3587.343,860.251 3605.990,860.140 3624.636,850.117 3643.283,859.065 3661.930,859.760 3680.576,859.766 3699.223,859.606 3717.869,858.891 3736.516,857.700 3755.163,855.611 3773.809,857.914 3792.456,857.608 3811.102,858.081 3829.749,855.173 3848.396,857.077 3867.042,858.948 3885.689,858.870 3904.335,859.673 3922.982,856.416 3941.629,856.574 3960.275,858.307 3978.922,858.941 3997.569,861.218 4016.215,859.249 4034.862,856.689 4053.508,858.089 4072.155,858.030 4090.802,859.008 4109.448,856.664 4128.095,854.466 4146.741,858.680 4165.388,857.126 4184.035,856.200 4202.681,857.732 4221.328,859.571 4239.974,858.242 4258.621,860.747 4277.268,861.472 4295.914,859.970 4314.561,859.965 4333.207,859.564 4351.854,860.332 4370.501,859.184 4389.147,858.886 4407.794,859.444 4426.441,859.360 4445.087,860.197 4463.734,859.359 4482.380,858.565 4501.027,858.618 4519.674,858.211 4538.320,858.657 4556.967,857.583 4575.613,858.535 4594.260,860.461 4612.907,858.973 4631.553,859.623 4650.200,860.445 4668.846,858.604 4687.493,859.964 4706.140,859.750 4724.786,858.065 4743.433,858.862 4762.080,859.388 4780.726,858.844 4799.373,860.586 4818.019,860.231 4836.666,860.899 4855.313,858.600 4873.959,858.740 4892.606,860.395 4911.252,861.070 4929.899,859.573 4948.546,860.437 4967.192,859.516 4985.839,858.396 5004.485,860.376 5023.132,859.358 5041.779,860.342 5060.425,861.185 5079.072,860.866 5097.718,858.759 5116.365,859.831 5135.012,858.535 5153.658,858.566 5172.305,859.151 5190.952,859.202 5209.598,858.409 5228.245,860.355 5246.891,860.316 5265.538,858.523 5284.185,859.674 5302.831,861.314 5321.478,859.001 5340.124,859.815 5358.771,859.711 5377.418,859.120 5396.064,860.975 5414.711,860.365 5433.357,859.770 5452.004,858.579 5470.651,860.736 5489.297,861.041 5507.944,860.984 5526.590,861.030 5545.237,860.827 5563.884,860.025 5582.530,860.488 5601.177,860.631 5619.824,860.571 5638.470,860.146 5657.117,860.190 5675.763,861.038 5694.410,859.537 5713.057,858.491 5731.703,860.473 5750.350,861.128 5768.996,860.111 5787.643,860.353 5806.290,859.570 5824.936,860.113 5843.583,859.186 5862.229,860.758 5880.876,859.254 5899.523,860.209 5918.169,859.177 5936.816,861.111 5955.463,861.318 5974.109,859.126 5992.756,859.544 6011.402,860.242 6030.049,859.746 6048.696,860.139 6067.342,859.731 6085.989,859.557 6104.635,861.270 6123.282,861.106 6141.929,860.891 6160.575,860.866 6179.222,860.344 6197.868,859.877 6216.515,860.880 6235.162,860.367 6253.808,860.308 6272.455,860.653 6291.101,860.446 6309.748,861.151 6328.395,860.314 6347.041,860.962 6365.688,860.612 6384.335,860.997 6402.981,859.826 6421.628,860.147 6440.274,859.565 6458.921,859.481 6477.568,861.144 6496.214,860.577 6514.861,860.778 6533.507,861.046 6552.154,860.634 6570.801,859.773 6589.447,860.367 6608.094,860.711 6626.740,860.799 6645.387,860.580 6664.034,860.909 6682.680,860.769 6701.327,860.416 6719.973,859.254 6738.620,860.717 6757.267,859.092 6775.913,860.971 6794.560,860.896 6813.207,860.708 6831.853,860.018 6850.500,859.303 6869.146,861.021 6887.793,860.719 6906.440,861.025 6925.086,859.236 6943.733,860.286 6962.379,860.681 6981.026,861.023 6999.673,859.498 7018.319,859.147 7036.966,860.365 7055.612,860.587 7074.259,859.000 7092.906,860.236 7111.552,859.591 7130.199,861.236 7148.846,860.319 7167.492,858.719 7186.139,859.393 7204.785,860.300 7223.432,861.116 7242.079,860.190 7260.725,860.196 7279.372,860.021 7298.018,860.474 7316.665,860.510 7335.312,860.658 7353.958,860.276 7372.605,859.843 7391.251,859.510 7409.898,860.336 7428.545,860.862 7447.191,860.526 7465.838,859.921 7484.484,861.024 7503.131,860.581 7521.778,860.892 7540.424,860.545 7559.071,861.039 7577.718,859.063 7596.364,860.908 7615.011,859.918 7633.657,860.464 7652.304,860.609 7670.951,860.453 7689.597,860.870 7708.244,860.642 7726.890,860.616 7745.537,860.010 7764.184,858.709 7782.830,860.933 7801.477,861.170 7820.123,858.661 7838.770,860.679 7857.417,860.408 7876.063,861.067 7894.710,860.704 7913.357,860.212 7932.003,859.807 7950.650,859.665 7969.296,860.813 7987.943,860.514 8006.590,860.135 8025.236,861.234 8043.883,860.057 8062.529,860.734 8081.176,860.916 8099.823,859.022 8118.469,860.254 8137.116,861.045 8155.762,860.127 8174.409,860.716 8193.056,859.611 8211.702,860.884 8230.349,861.020 8248.995,860.399 8267.642,859.889 8286.289,860.139 8304.935,861.189 8323.582,860.856 8342.229,860.583 8360.875,859.853 8379.522,858.902 8398.168,860.558 8416.815,860.151 8435.462,859.535 8454.108,859.960 8472.755,860.195 8491.401,860.561 8510.048,860.240 8528.695,860.896 8547.341,859.181 8565.988,860.450 8584.634,860.197 8603.281,860.484 8621.928,860.504 8640.574,859.891 8659.221,859.770 8677.867,860.540 8696.514,860.394 8715.161,860.861 8733.807,859.974 8752.454,859.385 8771.101,860.145 8789.747,860.005 8808.394,860.539 8827.040,860.496 8845.687,859.816 8864.334,861.004 8882.980,860.768 8901.627,860.446 8920.273,861.115 8938.920,861.065 8957.567,860.240 8976.213,860.459 8994.860,859.814 9013.506,860.947 9032.153,860.866 9050.800,860.718 9069.446,860.536 9088.093,860.132 9106.740,859.711 9125.386,860.981 9144.033,860.989 9162.679,860.408 9181.326,859.293 9199.973,860.621 9218.619,860.758 9237.266,861.291 9255.912,860.783 9274.559,858.912 9293.206,859.212 9311.852,859.829 9330.499,860.517 9349.145,860.694 9367.792,859.759 9386.439,859.955 9405.085,859.774 9423.732,860.639 9442.378,860.408 9461.025,859.836 9479.672,859.589 9498.318,860.693 9516.965,860.900 9535.612,860.797 9554.258,859.981 9572.905,860.456 9591.551,860.611 9610.198,859.417 9628.845,859.902 9647.491,859.867 9666.138,858.819 9684.784,860.587 9703.431,860.973 9722.078,860.768 9740.724,860.811 9759.371,860.995 9778.017,860.859 9796.664,860.334 9815.311,860.466 9833.957,860.689 9852.604,860.250 9871.251,859.503 9889.897,860.165 9908.544,859.448 9927.190,860.542 9945.837,860.409 9964.484,861.298 9983.130,858.919 10001.777,860.065 10020.423,860.424 10039.070,859.992 10057.717,861.085 10076.363,860.442 10095.010,860.837 10113.656,861.289 10132.303,860.009 10150.950,860.845 10169.596,861.183 10188.243,860.826 10206.889,861.013 10225.536,860.215 10244.183,860.722 10262.829,860.444 10281.476,859.794 10300.123,859.373 10318.769,860.533 10337.416,860.524 10356.062,861.028 10374.709,860.342 10393.356,860.705 10412.002,859.883 10430.649,860.779 10449.295,860.306 10467.942,860.319 10486.589,861.234 10505.235,861.190 10523.882,860.705 10542.528,860.498 10561.175,860.564 10579.822,860.361 10598.468,861.056 10617.115,861.237 10635.761,860.344 10654.408,859.726 10673.055,861.014 10691.701,859.381 10710.348,859.712 10728.995,861.171 10747.641,860.316 10766.288,860.748 10784.934,860.025 10803.581,861.040 10822.228,859.614 10840.874,860.191 10859.521,860.984 10878.167,860.504 10896.814,860.334 10915.461,860.929 10934.107,860.086 10952.754,861.074 10971.400,859.523 10990.047,860.925 11008.694,860.125 11027.340,860.432 11045.987,860.695 11064.634,860.171 11083.280,859.746 11101.927,860.627 11120.573,861.122 11139.220,858.918 11157.867,860.858 11176.513,860.297 11195.160,859.568 11213.806,860.597 11232.453,860.471 11251.100,861.320 11269.746,860.600 11288.393,859.987 11307.039,860.135 11325.686,859.332 11344.333,860.485 11362.979,860.456 11381.626,861.180 11400.272,859.930 11418.919,860.217 11437.566,860.706 11456.212,860.784 11474.859,860.272 11493.506,859.810 11512.152,860.599 11530.799,860.049 11549.445,860.952 11568.092,859.630 11586.739,859.683 11605.385,860.948 11624.032,860.472 11642.678,860.664 11661.325,859.103 11679.972,860.517 11698.618,860.730 11717.265,860.229 11735.911,860.080 11754.558,859.836 11773.205,860.374 11791.851,860.154 11810.498,860.008 11829.145,860.388 11847.791,859.965 11866.438,861.234 11885.084,859.994 11903.731,861.164 11922.378,861.070 11941.024,860.881 11959.671,860.813 11978.317,860.697 11996.964,860.336 12015.611,860.350 12034.257,860.329 12052.904,860.206 12071.550,861.161 12090.197,859.808 12108.844,861.024 12127.490,860.660 12146.137,859.690 12164.783,860.819 12183.430,861.431 12202.077,859.579 12220.723,860.431 12239.370,860.782 12258.017,861.317 12276.663,860.454 12295.310,861.314 12313.956,860.874 12332.603,860.731 12351.250,861.214 12369.896,861.340 12388.543,860.778 12407.189,860.684 12425.836,860.951 12444.483,861.280 12463.129,860.125 12481.776,860.726 12500.422,861.322 12519.069,860.403 12537.716,860.780 12556.362,860.651 12575.009,858.878 12593.655,860.505 12612.302,860.656 12630.949,861.033 12649.595,860.014 12668.242,860.110 12686.889,859.034 12705.535,859.926 12724.182,860.495 12742.828,860.682 12761.475,859.916 12780.122,860.173 12798.768,861.014 12817.415,859.905 12836.061,861.096 12854.708,860.598 12873.355,860.923 12892.001,860.823 12910.648,860.651 12929.294,861.326 12947.941,859.811 12966.588,859.103 12985.234,859.615 13003.881,860.436 13022.528,860.209 13041.174,860.382 13059.821,860.976 13078.467,860.134 13097.114,860.705 13115.761,860.785 13134.407,860.256 13153.054,860.604 13171.700,860.736 13190.347,861.133 13208.994,860.766 13227.640,859.737 13246.287,860.052 13264.933,860.896 13283.580,860.947 13302.227,860.126 13320.873,861.332 13339.520,860.218 13358.166,859.819 13376.813,860.147 13395.460,860.458 13414.106,859.493 13432.753,859.691 13451.400,860.730 13470.046,860.525 13488.693,860.630 13507.339,860.496 13525.986,860.890 13544.633,860.178 13563.279,860.536 13581.926,860.751 13600.572,861.181 13619.219,860.707 13637.866,860.172 13656.512,860.258 13675.159,860.677 13693.805,860.668 13712.452,860.577 13731.099,860.005 13749.745,859.958 13768.392,860.462 13787.039,861.100 13805.685,860.822 13824.332,860.259 13842.978,861.289 13861.625,860.442 13880.272,860.645 13898.918,860.689 13917.565,860.534 13936.211,861.034 13954.858,861.451 13973.505,861.324 13992.151,861.246 14010.798,860.716 14029.444,860.658 14048.091,860.725 14066.738,861.190 14085.384,860.735 14104.031,860.502 14122.677,860.535 14141.324,860.689 14159.971,860.208 14178.617,860.782 14197.264,860.851 14215.911,860.326 14234.557,861.095 14253.204,861.167 14271.850,859.684 14290.497,861.312 14309.144,859.931 14327.790,860.941 14346.437,859.959 14365.083,860.933 14383.730,861.083 14402.377,861.442 14421.023,861.222 14439.670,860.636 14458.316,860.040 14476.963,860.060 14495.610,860.755 14514.256,859.799 14532.903,860.652 14551.549,860.498 14570.196,860.917 14588.843,861.217 14607.489,861.059 14626.136,860.693 14644.783,860.685 14663.429,861.100 14682.076,860.601 14700.722,860.807 14719.369,861.002 14738.016,860.103 14756.662,861.139 14775.309,860.829 14793.955,859.877 14812.602,860.403 14831.249,859.921 14849.895,860.535 14868.542,860.721 14887.188,860.301 14905.835,860.225 14924.482,860.680 14943.128,860.521 14961.775,860.587 14980.422,860.408 14999.068,860.059 15017.715,860.544 15036.361,860.596 15055.008,861.042 15073.655,861.331 15092.301,861.281 15110.948,860.208 15129.594,859.769 15148.241,860.984 15166.888,860.502 15185.534,859.950 15204.181,861.226 15222.827,860.298 15241.474,861.019 15260.121,860.688 15278.767,861.141 15297.414,860.677 15316.060,859.993 15334.707,860.033 15353.354,860.974 15372.000,860.042 15390.647,860.637 15409.294,860.674 15427.940,860.872 15446.587,860.568 15465.233,859.950 15483.880,859.338 15502.527,859.847 15521.173,860.573 15539.820,860.201 15558.466,861.208 15577.113,860.747 15595.760,861.049 15614.406,860.684 15633.053,860.498 15651.699,860.430 15670.346,860.064 15688.993,861.008 15707.639,861.179 15726.286,860.156 15744.933,860.493 15763.579,860.155 15782.226,860.413 15800.872,859.868 15819.519,861.314 15838.166,859.912 15856.812,860.744 15875.459,860.303 15894.105,859.556 15912.752,860.679 15931.399,861.111 15950.045,860.845 15968.692,860.939 15987.338,860.794 16005.985,860.287 16024.632,861.461 16043.278,860.952 16061.925,860.601 16080.571,860.543 16099.218,860.996 16117.865,860.199 16136.511,860.324 16155.158,860.904 16173.805,860.113 16192.451,860.654 16211.098,861.079 16229.744,859.556 16248.391,860.244 16267.038,860.488 16285.684,860.606 16304.331,861.295 16322.977,861.000 16341.624,859.887 16360.271,861.186 16378.917,859.574 16397.564,860.795 16416.210,860.338 16434.857,860.507 16453.504,861.135 16472.150,861.258 16490.797,860.110 16509.443,860.621 16528.090,859.815 16546.737,860.766 16565.383,860.689 16584.030,861.182 16602.677,861.104 16621.323,860.857 16639.970,860.791 16658.616,860.183 16677.263,860.410 16695.910,861.127 16714.556,861.284 16733.203,859.939 16751.849,860.810 16770.496,860.278 16789.143,861.035 16807.789,860.651 16826.436,860.625 16845.082,861.153 16863.729,860.892 16882.376,860.723 16901.022,861.009 16919.669,860.238 16938.316,860.531 16956.962,860.907 16975.609,861.269 16994.255,861.072 17012.902,861.086 17031.549,861.387 17050.195,860.902 17068.842,860.787 17087.488,861.042 17106.135,860.964 17124.782,861.255 17143.428,860.880 17162.075,861.164 17180.721,861.290 17199.368,860.701 17218.015,860.598 17236.661,860.956 17255.308,860.899 17273.954,861.282 17292.601,859.978 17311.248,860.701 17329.894,860.693 17348.541,860.643 17367.188,861.078 17385.834,861.355 17404.481,860.600 17423.127,860.492 17441.774,860.413 17460.421,860.486 17479.067,860.459 17497.714,860.856 17516.360,860.675 17535.007,861.214 17553.654,859.290 17572.300,860.984 17590.947,860.590 17609.593,860.699 17628.240,859.947 17646.887,860.276 17665.533,859.708 17684.180,860.837 17702.826,860.958 17721.473,860.567 17740.120,860.737 17758.766,861.155 17777.413,860.359 17796.060,860.388 17814.706,860.824 17833.353,860.475 17851.999,859.909 17870.646,860.618 17889.293,860.194 17907.939,861.019 17926.586,860.741 17945.232,860.712 17963.879,860.515 17982.526,860.993 18001.172,860.300 18019.819,861.250 18038.465,861.189 18057.112,860.615 18075.759,860.609 18094.405,860.819 18113.052,860.805 18131.699,861.350 18150.345,861.160 18168.992,860.806 18187.638,860.730 18206.285,861.007 18224.932,861.379 18243.578,861.056 18262.225,861.149 18280.871,861.176 18299.518,860.756 18318.165,860.902 18336.811,861.014 18355.458,860.525 18374.104,860.943 18392.751,861.022 18411.398,860.095 18430.044,860.689 18448.691,861.088 18467.337,861.499 18485.984,859.898 18504.631,860.061 18523.277,860.373 18541.924,860.861 18560.571,860.835 18579.217,860.982 18597.864,860.464 18616.510,860.430 18635.157,860.682 18653.804,861.002 18672.450,860.577 18691.097,860.238 18709.743,860.377 18728.390,860.908 18747.037,860.536 18765.683,861.043 18784.330,860.904 18802.976,861.100 18821.623,860.836 18840.270,860.426 18858.916,860.644 18877.563,860.496 18896.210,860.567 18914.856,860.996 18933.503,861.121 18952.149,861.189 18970.796,861.076 18989.443,861.044 19008.089,861.384 19026.736,860.747 19045.382,860.797 19064.029,861.410 19082.676,860.876 19101.322,860.500 19119.969,860.421 19138.615,860.870 19157.262,861.025 19175.909,860.785 19194.555,861.142 19213.202,860.600 19231.848,860.857 19250.495,860.435 19269.142,861.094 19287.788,860.735 19306.435,861.162 19325.082,861.447 19343.728,860.833 19362.375,860.278 19381.021,861.272 19399.668,860.812 19418.315,861.129 19436.961,860.667 19455.608,860.992 19474.254,860.398 19492.901,860.633 19511.548,861.206 19530.194,861.151 19548.841,860.592 19567.487,860.822 19586.134,860.564 19604.781,860.357 19623.427,860.276 19642.074,860.765 19660.720,861.220 19679.367,860.634 19698.014,860.953 19716.660,861.096 19735.307,860.540 19753.954,861.281 19772.600,861.302 19791.247,860.778 19809.893,861.012 19828.540,860.786 19847.187,860.783 19865.833,860.852 19884.480,861.018 19903.126,860.565 19921.773,861.023 19940.420,860.794 19959.066,860.791 19977.713,860.887 19996.359,860.514 20015.006,860.907 "/>
<g>
</g>
</g>
<g id="ID000046" >
</g>
<g id="ID000047" >
</g>
<g id="ID000048" >
</g>
<g id="ID000049" >
</g>
<g id="ID000050" >
</g>
<g id="ID000051" clip-path="url(#ID000044)" >
<g id="ID000052" >
<rect x="663.319" y="544.185" width="63.962" height="35.852" fill="#ffffee" stroke="#cccccc" stroke-width="0.5pt" stroke-dasharray="none" />
  <g transform="translate(669.100,557.177)">
    <g transform="rotate(-0.0)">
      <text x="0.000" y="0.000" font-family="Helvetica" text-anchor="start" font-size="8pt" fill="#000000" >X: 0.5789</text>
    </g>
  </g>
  <g transform="translate(669.100,569.177)">
    <g transform="rotate(-0.0)">
      <text x="0.000" y="0.000" font-family="Helvetica" text-anchor="start" font-size="8pt" fill="#000000" >Y: 34.28</text>
    </g>
  </g>
</g>
<g id="ID000053" >
<g>
      <polygon fill="#000000" fill-opacity="1.00" stroke="#ffffdc" stroke-width="2.0pt" stroke-opacity="1.00" stroke-dasharray="none" points="653.159,531.383 653.159,544.716 666.492,544.716 666.492,531.383 653.159,531.383 "/>
</g>
</g>
</g><g id="ID000054" clip-path="url(#ID000044)" >
<g id="ID000055" >
<rect x="1619.677" y="740.144" width="57.966" height="35.852" fill="#ffffee" stroke="#cccccc" stroke-width="0.5pt" stroke-dasharray="none" />
  <g transform="translate(1626.100,756.229)">
    <g transform="rotate(-0.0)">
      <text x="0.000" y="0.000" font-family="Helvetica" text-anchor="start" font-size="8pt" fill="#000000" >X: 2.026</text>
    </g>
  </g>
  <g transform="translate(1626.100,768.229)">
    <g transform="rotate(-0.0)">
      <text x="0.000" y="0.000" font-family="Helvetica" text-anchor="start" font-size="8pt" fill="#000000" >Y: 8.757</text>
    </g>
  </g>
</g>
<g id="ID000056" >
<g>
      <polygon fill="#000000" fill-opacity="1.00" stroke="#ffffdc" stroke-width="2.0pt" stroke-opacity="1.00" stroke-dasharray="none" points="1678.722,772.227 1678.722,785.560 1692.056,785.560 1692.056,772.227 1678.722,772.227 "/>
</g>
</g>
</g><g id="ID000057" clip-path="url(#ID000044)" >
<g id="ID000058" >
<rect x="1110.019" y="769.985" width="57.966" height="35.852" fill="#ffffee" stroke="#cccccc" stroke-width="0.5pt" stroke-dasharray="none" />
  <g transform="translate(1116.100,786.160)">
    <g transform="rotate(-0.0)">
      <text x="0.000" y="0.000" font-family="Helvetica" text-anchor="start" font-size="8pt" fill="#000000" >X: 1.211</text>
    </g>
  </g>
  <g transform="translate(1116.100,798.160)">
    <g transform="rotate(-0.0)">
      <text x="0.000" y="0.000" font-family="Helvetica" text-anchor="start" font-size="8pt" fill="#000000" >Y: 5.58</text>
    </g>
  </g>
</g>
<g id="ID000059" >
<g>
      <polygon fill="#000000" fill-opacity="1.00" stroke="#ffffdc" stroke-width="2.0pt" stroke-opacity="1.00" stroke-dasharray="none" points="1100.677,802.198 1100.677,815.531 1114.011,815.531 1114.011,802.198 1100.677,802.198 "/>
</g>
</g>
</g><g id="ID000060" clip-path="url(#ID000044)" >
<g id="ID000061" >
<rect x="793.232" y="647.635" width="63.962" height="35.852" fill="#ffffee" stroke="#cccccc" stroke-width="0.5pt" stroke-dasharray="none" />
  <g transform="translate(799.100,663.441)">
    <g transform="rotate(-0.0)">
      <text x="0.000" y="0.000" font-family="Helvetica" text-anchor="start" font-size="8pt" fill="#000000" >X: 0.7632</text>
    </g>
  </g>
  <g transform="translate(799.100,675.441)">
    <g transform="rotate(-0.0)">
      <text x="0.000" y="0.000" font-family="Helvetica" text-anchor="start" font-size="8pt" fill="#000000" >Y: 18.55</text>
    </g>
  </g>
</g>
<g id="ID000062" >
<g>
      <polygon fill="#000000" fill-opacity="1.00" stroke="#ffffdc" stroke-width="2.0pt" stroke-opacity="1.00" stroke-dasharray="none" points="783.685,679.818 783.685,693.151 797.018,693.151 797.018,679.818 783.685,679.818 "/>
</g>
</g>
</g><g id="ID000063" clip-path="url(#ID000044)" >
<g id="ID000064" >
<rect x="569.382" y="618.788" width="63.962" height="35.852" fill="#ffffee" stroke="#cccccc" stroke-width="0.5pt" stroke-dasharray="none" />
  <g transform="translate(575.100,632.006)">
    <g transform="rotate(-0.0)">
      <text x="0.000" y="0.000" font-family="Helvetica" text-anchor="start" font-size="8pt" fill="#000000" >X: 0.4474</text>
    </g>
  </g>
  <g transform="translate(575.100,644.006)">
    <g transform="rotate(-0.0)">
      <text x="0.000" y="0.000" font-family="Helvetica" text-anchor="start" font-size="8pt" fill="#000000" >Y: 26.42</text>
    </g>
  </g>
</g>
<g id="ID000065" >
<g>
      <polygon fill="#000000" fill-opacity="1.00" stroke="#ffffdc" stroke-width="2.0pt" stroke-opacity="1.00" stroke-dasharray="none" points="559.926,605.603 559.926,618.937 573.259,618.937 573.259,605.603 559.926,605.603 "/>
</g>
</g>
</g><g id="ID000066" clip-path="url(#ID000044)" >
<g id="ID000067" >
<rect x="495.432" y="732.186" width="63.962" height="35.852" fill="#ffffee" stroke="#cccccc" stroke-width="0.5pt" stroke-dasharray="none" />
  <g transform="translate(501.100,745.746)">
    <g transform="rotate(-0.0)">
      <text x="0.000" y="0.000" font-family="Helvetica" text-anchor="start" font-size="8pt" fill="#000000" >X: 0.3421</text>
    </g>
  </g>
  <g transform="translate(501.100,757.746)">
    <g transform="rotate(-0.0)">
      <text x="0.000" y="0.000" font-family="Helvetica" text-anchor="start" font-size="8pt" fill="#000000" >Y: 14.36</text>
    </g>
  </g>
</g>
<g id="ID000068" >
<g>
      <polygon fill="#000000" fill-opacity="1.00" stroke="#ffffdc" stroke-width="2.0pt" stroke-opacity="1.00" stroke-dasharray="none" points="485.339,719.391 485.339,732.724 498.673,732.724 498.673,719.391 485.339,719.391 "/>
</g>
</g>
</g><g id="ID000069" clip-path="url(#ID000044)" >
<g id="ID000070" >
<rect x="402.495" y="734.175" width="63.962" height="35.852" fill="#ffffee" stroke="#cccccc" stroke-width="0.5pt" stroke-dasharray="none" />
  <g transform="translate(408.100,750.242)">
    <g transform="rotate(-0.0)">
      <text x="0.000" y="0.000" font-family="Helvetica" text-anchor="start" font-size="8pt" fill="#000000" >X: 0.2105</text>
    </g>
  </g>
  <g transform="translate(408.100,762.242)">
    <g transform="rotate(-0.0)">
      <text x="0.000" y="0.000" font-family="Helvetica" text-anchor="start" font-size="8pt" fill="#000000" >Y: 9.342</text>
    </g>
  </g>
</g>
<g id="ID000071" >
<g>
      <polygon fill="#000000" fill-opacity="1.00" stroke="#ffffdc" stroke-width="2.0pt" stroke-opacity="1.00" stroke-dasharray="none" points="392.106,766.703 392.106,780.037 405.440,780.037 405.440,766.703 392.106,766.703 "/>
</g>
</g>
</g><g id="ID000072" clip-path="url(#ID000044)" >
<g id="ID000073" >
<rect x="364.520" y="755.064" width="63.962" height="35.852" fill="#ffffee" stroke="#cccccc" stroke-width="0.5pt" stroke-dasharray="none" />
  <g transform="translate(370.100,771.194)">
    <g transform="rotate(-0.0)">
      <text x="0.000" y="0.000" font-family="Helvetica" text-anchor="start" font-size="8pt" fill="#000000" >X: 0.1579</text>
    </g>
  </g>
  <g transform="translate(370.100,783.194)">
    <g transform="rotate(-0.0)">
      <text x="0.000" y="0.000" font-family="Helvetica" text-anchor="start" font-size="8pt" fill="#000000" >Y: 7.148</text>
    </g>
  </g>
</g>
<g id="ID000074" >
<g>
      <polygon fill="#000000" fill-opacity="1.00" stroke="#ffffdc" stroke-width="2.0pt" stroke-opacity="1.00" stroke-dasharray="none" points="354.813,787.410 354.813,800.743 368.146,800.743 368.146,787.410 354.813,787.410 "/>
</g>
</g>
</g><g id="ID000075" clip-path="url(#ID000044)" >
<g id="ID000076" >
<rect x="290.570" y="771.974" width="69.958" height="35.852" fill="#ffffee" stroke="#cccccc" stroke-width="0.5pt" stroke-dasharray="none" />
  <g transform="translate(296.100,788.156)">
    <g transform="rotate(-0.0)">
      <text x="0.000" y="0.000" font-family="Helvetica" text-anchor="start" font-size="8pt" fill="#000000" >X: 0.05263</text>
    </g>
  </g>
  <g transform="translate(296.100,800.156)">
    <g transform="rotate(-0.0)">
      <text x="0.000" y="0.000" font-family="Helvetica" text-anchor="start" font-size="8pt" fill="#000000" >Y: 5.344</text>
    </g>
  </g>
</g>
<g id="ID000077" >
<g>
      <polygon fill="#000000" fill-opacity="1.00" stroke="#ffffdc" stroke-width="2.0pt" stroke-opacity="1.00" stroke-dasharray="none" points="280.227,804.431 280.227,817.764 293.560,817.764 293.560,804.431 280.227,804.431 "/>
</g>
</g>
</g>    </g>
    <g>
      <polyline fill="none" stroke="#000000" stroke-width="0.5pt" stroke-dasharray="none" points="391.314,861.520 391.314,846.640 "/>
      <polyline fill="none" stroke="#000000" stroke-width="0.5pt" stroke-dasharray="none" points="533.029,861.520 533.029,846.640 "/>
      <polyline fill="none" stroke="#000000" stroke-width="0.5pt" stroke-dasharray="none" points="674.743,861.520 674.743,846.640 "/>
      <polyline fill="none" stroke="#000000" stroke-width="0.5pt" stroke-dasharray="none" points="816.457,861.520 816.457,846.640 "/>
      <polyline fill="none" stroke="#000000" stroke-width="0.5pt" stroke-dasharray="none" points="958.171,861.520 958.171,846.640 "/>
      <polyline fill="none" stroke="#000000" stroke-width="0.5pt" stroke-dasharray="none" points="1099.886,861.520 1099.886,846.640 "/>
      <polyline fill="none" stroke="#000000" stroke-width="0.5pt" stroke-dasharray="none" points="1241.600,861.520 1241.600,846.640 "/>
      <polyline fill="none" stroke="#000000" stroke-width="0.5pt" stroke-dasharray="none" points="1383.314,861.520 1383.314,846.640 "/>
      <polyline fill="none" stroke="#000000" stroke-width="0.5pt" stroke-dasharray="none" points="1525.029,861.520 1525.029,846.640 "/>
      <polyline fill="none" stroke="#000000" stroke-width="0.5pt" stroke-dasharray="none" points="1666.743,861.520 1666.743,846.640 "/>
      <polyline fill="none" stroke="#000000" stroke-width="0.5pt" stroke-dasharray="none" points="249.600,861.520 1737.600,861.520 "/>
      <polyline fill="none" stroke="#000000" stroke-width="0.5pt" stroke-dasharray="none" points="391.314,531.274 391.314,546.154 "/>
      <polyline fill="none" stroke="#000000" stroke-width="0.5pt" stroke-dasharray="none" points="533.029,531.274 533.029,546.154 "/>
      <polyline fill="none" stroke="#000000" stroke-width="0.5pt" stroke-dasharray="none" points="674.743,531.274 674.743,546.154 "/>
      <polyline fill="none" stroke="#000000" stroke-width="0.5pt" stroke-dasharray="none" points="816.457,531.274 816.457,546.154 "/>
      <polyline fill="none" stroke="#000000" stroke-width="0.5pt" stroke-dasharray="none" points="958.171,531.274 958.171,546.154 "/>
      <polyline fill="none" stroke="#000000" stroke-width="0.5pt" stroke-dasharray="none" points="1099.886,531.274 1099.886,546.154 "/>
      <polyline fill="none" stroke="#000000" stroke-width="0.5pt" stroke-dasharray="none" points="1241.600,531.274 1241.600,546.154 "/>
      <polyline fill="none" stroke="#000000" stroke-width="0.5pt" stroke-dasharray="none" points="1383.314,531.274 1383.314,546.154 "/>
      <polyline fill="none" stroke="#000000" stroke-width="0.5pt" stroke-dasharray="none" points="1525.029,531.274 1525.029,546.154 "/>
      <polyline fill="none" stroke="#000000" stroke-width="0.5pt" stroke-dasharray="none" points="1666.743,531.274 1666.743,546.154 "/>
      <polyline fill="none" stroke="#000000" stroke-width="0.5pt" stroke-dasharray="none" points="249.600,531.274 1737.600,531.274 "/>
  <g transform="translate(249.600,879.925)">
    <g transform="rotate(-0.0)">
      <text x="0.000" y="0.000" font-family="Helvetica" text-anchor="middle" font-size="10pt" fill="#000000" >0</text>
    </g>
  </g>
  <g transform="translate(391.314,879.925)">
    <g transform="rotate(-0.0)">
      <text x="0.000" y="0.000" font-family="Helvetica" text-anchor="middle" font-size="10pt" fill="#000000" >0.2</text>
    </g>
  </g>
  <g transform="translate(533.029,879.925)">
    <g transform="rotate(-0.0)">
      <text x="0.000" y="0.000" font-family="Helvetica" text-anchor="middle" font-size="10pt" fill="#000000" >0.4</text>
    </g>
  </g>
  <g transform="translate(674.743,879.925)">
    <g transform="rotate(-0.0)">
      <text x="0.000" y="0.000" font-family="Helvetica" text-anchor="middle" font-size="10pt" fill="#000000" >0.6</text>
    </g>
  </g>
  <g transform="translate(816.457,879.925)">
    <g transform="rotate(-0.0)">
      <text x="0.000" y="0.000" font-family="Helvetica" text-anchor="middle" font-size="10pt" fill="#000000" >0.8</text>
    </g>
  </g>
  <g transform="translate(958.171,879.925)">
    <g transform="rotate(-0.0)">
      <text x="0.000" y="0.000" font-family="Helvetica" text-anchor="middle" font-size="10pt" fill="#000000" >1</text>
    </g>
  </g>
  <g transform="translate(1099.886,879.925)">
    <g transform="rotate(-0.0)">
      <text x="0.000" y="0.000" font-family="Helvetica" text-anchor="middle" font-size="10pt" fill="#000000" >1.2</text>
    </g>
  </g>
  <g transform="translate(1241.600,879.925)">
    <g transform="rotate(-0.0)">
      <text x="0.000" y="0.000" font-family="Helvetica" text-anchor="middle" font-size="10pt" fill="#000000" >1.4</text>
    </g>
  </g>
  <g transform="translate(1383.314,879.925)">
    <g transform="rotate(-0.0)">
      <text x="0.000" y="0.000" font-family="Helvetica" text-anchor="middle" font-size="10pt" fill="#000000" >1.6</text>
    </g>
  </g>
  <g transform="translate(1525.029,879.925)">
    <g transform="rotate(-0.0)">
      <text x="0.000" y="0.000" font-family="Helvetica" text-anchor="middle" font-size="10pt" fill="#000000" >1.8</text>
    </g>
  </g>
  <g transform="translate(1666.743,879.925)">
    <g transform="rotate(-0.0)">
      <text x="0.000" y="0.000" font-family="Helvetica" text-anchor="middle" font-size="10pt" fill="#000000" >2</text>
    </g>
  </g>
      <polyline fill="none" stroke="#000000" stroke-width="0.5pt" stroke-dasharray="none" points="249.600,814.342 264.480,814.342 "/>
      <polyline fill="none" stroke="#000000" stroke-width="0.5pt" stroke-dasharray="none" points="249.600,767.164 264.480,767.164 "/>
      <polyline fill="none" stroke="#000000" stroke-width="0.5pt" stroke-dasharray="none" points="249.600,719.986 264.480,719.986 "/>
      <polyline fill="none" stroke="#000000" stroke-width="0.5pt" stroke-dasharray="none" points="249.600,672.808 264.480,672.808 "/>
      <polyline fill="none" stroke="#000000" stroke-width="0.5pt" stroke-dasharray="none" points="249.600,625.630 264.480,625.630 "/>
      <polyline fill="none" stroke="#000000" stroke-width="0.5pt" stroke-dasharray="none" points="249.600,578.452 264.480,578.452 "/>
      <polyline fill="none" stroke="#000000" stroke-width="0.5pt" stroke-dasharray="none" points="249.600,861.520 249.600,531.274 "/>
      <polyline fill="none" stroke="#000000" stroke-width="0.5pt" stroke-dasharray="none" points="1737.600,814.342 1722.720,814.342 "/>
      <polyline fill="none" stroke="#000000" stroke-width="0.5pt" stroke-dasharray="none" points="1737.600,767.164 1722.720,767.164 "/>
      <polyline fill="none" stroke="#000000" stroke-width="0.5pt" stroke-dasharray="none" points="1737.600,719.986 1722.720,719.986 "/>
      <polyline fill="none" stroke="#000000" stroke-width="0.5pt" stroke-dasharray="none" points="1737.600,672.808 1722.720,672.808 "/>
      <polyline fill="none" stroke="#000000" stroke-width="0.5pt" stroke-dasharray="none" points="1737.600,625.630 1722.720,625.630 "/>
      <polyline fill="none" stroke="#000000" stroke-width="0.5pt" stroke-dasharray="none" points="1737.600,578.452 1722.720,578.452 "/>
      <polyline fill="none" stroke="#000000" stroke-width="0.5pt" stroke-dasharray="none" points="1737.600,861.520 1737.600,531.274 "/>
  <g transform="translate(219.840,866.020)">
    <g transform="rotate(-0.0)">
      <text x="0.000" y="0.000" font-family="Helvetica" text-anchor="end" font-size="10pt" fill="#000000" >0</text>
    </g>
  </g>
  <g transform="translate(219.840,818.842)">
    <g transform="rotate(-0.0)">
      <text x="0.000" y="0.000" font-family="Helvetica" text-anchor="end" font-size="10pt" fill="#000000" >5</text>
    </g>
  </g>
  <g transform="translate(219.840,771.664)">
    <g transform="rotate(-0.0)">
      <text x="0.000" y="0.000" font-family="Helvetica" text-anchor="end" font-size="10pt" fill="#000000" >10</text>
    </g>
  </g>
  <g transform="translate(219.840,724.486)">
    <g transform="rotate(-0.0)">
      <text x="0.000" y="0.000" font-family="Helvetica" text-anchor="end" font-size="10pt" fill="#000000" >15</text>
    </g>
  </g>
  <g transform="translate(219.840,677.308)">
    <g transform="rotate(-0.0)">
      <text x="0.000" y="0.000" font-family="Helvetica" text-anchor="end" font-size="10pt" fill="#000000" >20</text>
    </g>
  </g>
  <g transform="translate(219.840,630.130)">
    <g transform="rotate(-0.0)">
      <text x="0.000" y="0.000" font-family="Helvetica" text-anchor="end" font-size="10pt" fill="#000000" >25</text>
    </g>
  </g>
  <g transform="translate(219.840,582.952)">
    <g transform="rotate(-0.0)">
      <text x="0.000" y="0.000" font-family="Helvetica" text-anchor="end" font-size="10pt" fill="#000000" >30</text>
    </g>
  </g>
  <g transform="translate(219.840,535.774)">
    <g transform="rotate(-0.0)">
      <text x="0.000" y="0.000" font-family="Helvetica" text-anchor="end" font-size="10pt" fill="#000000" >35</text>
    </g>
  </g>
      <polyline fill="none" stroke="#000000" stroke-width="0.5pt" stroke-dasharray="none" points="249.600,861.520 249.600,858.218 "/>
      <polyline fill="none" stroke="#000000" stroke-width="0.5pt" stroke-dasharray="none" points="249.600,861.520 249.600,858.218 "/>
      <polyline fill="none" stroke="#000000" stroke-width="0.5pt" stroke-dasharray="none" points="249.600,861.520 249.600,858.218 "/>
      <polyline fill="none" stroke="#000000" stroke-width="0.5pt" stroke-dasharray="none" points="249.600,861.520 249.600,858.218 "/>
      <polyline fill="none" stroke="#000000" stroke-width="0.5pt" stroke-dasharray="none" points="249.600,861.520 249.600,858.218 "/>
      <polyline fill="none" stroke="#000000" stroke-width="0.5pt" stroke-dasharray="none" points="249.600,861.520 249.600,861.520 "/>
    </g>
  </g>
  <g id ="ID000078">
  <clipPath id="ID000079">
    <rect x="1588.250" y="537.750" width="144.500" height="20.000"/>
  </clipPath>
      <polygon fill="#ffffff" fill-opacity="1.00" stroke="none" stroke-width="0.5pt" stroke-opacity="1.00" stroke-dasharray="none" points="1588.250,557.750 1732.750,557.750 1732.750,537.750 1588.250,537.750 "/>
      <polygon fill="#ffffff" fill-opacity="1.00" stroke="none" stroke-width="0.5pt" stroke-opacity="1.00" stroke-dasharray="none" points="1588.250,537.750 1732.750,537.750 1732.750,537.750 1588.250,537.750 "/>
      <polygon fill="#ffffff" fill-opacity="1.00" stroke="none" stroke-width="0.5pt" stroke-opacity="1.00" stroke-dasharray="none" points="1588.250,557.750 1588.250,557.750 1588.250,537.750 1588.250,537.750 "/>
    <g>
<g id="ID000080" >
  <g transform="translate(1637.579,553.750)">
    <g transform="rotate(-0.0)">
      <text x="0.000" y="0.000" font-family="Helvetica" text-anchor="start" font-size="10pt" fill="#000000" >VrpnFreqrpydata</text>
    </g>
  </g>
</g>
<g id="ID000081" clip-path="url(#ID000079)" >
      <polyline fill="none" stroke="#0000ff" stroke-width="0.5pt" stroke-dasharray="none" points="1595.750,547.750 1633.250,547.750 "/>
<g>
</g>
</g>
<g id="ID000082" clip-path="url(#ID000079)" >
<g>
</g>
</g>
<g id="ID000083" >
</g>
<g id="ID000084" >
</g>
<g id="ID000085" >
</g>
    </g>
    <g>
      <polyline fill="none" stroke="#000000" stroke-width="0.5pt" stroke-dasharray="none" points="1588.250,557.750 1732.750,557.750 "/>
      <polyline fill="none" stroke="#000000" stroke-width="0.5pt" stroke-dasharray="none" points="1588.250,537.750 1732.750,537.750 "/>
      <polyline fill="none" stroke="#000000" stroke-width="0.5pt" stroke-dasharray="none" points="1588.250,557.750 1588.250,537.750 "/>
      <polyline fill="none" stroke="#000000" stroke-width="0.5pt" stroke-dasharray="none" points="1732.750,557.750 1732.750,537.750 "/>
      <polyline fill="none" stroke="#000000" stroke-width="0.5pt" stroke-dasharray="none" points="1588.250,557.750 1588.250,557.550 "/>
      <polyline fill="none" stroke="#000000" stroke-width="0.5pt" stroke-dasharray="none" points="1588.250,557.750 1588.250,557.750 "/>
    </g>
  </g>
  </g>
</svg>
